<svg width="328" height="129" viewBox="0 0 328 129" fill="none" xmlns="http://www.w3.org/2000/svg">
<rect y="31" width="328" height="98" rx="7" fill="#EEF1FB"/>
<path d="M11.888 84.12C11.208 84.12 10.58 84.036 10.004 83.868C9.436 83.692 8.948 83.452 8.54 83.148L9.02 81.936C9.292 82.128 9.576 82.292 9.872 82.428C10.168 82.556 10.484 82.656 10.82 82.728C11.156 82.792 11.512 82.824 11.888 82.824C12.52 82.824 12.976 82.72 13.256 82.512C13.536 82.304 13.676 82.032 13.676 81.696C13.676 81.4 13.58 81.176 13.388 81.024C13.196 80.864 12.852 80.732 12.356 80.628L11 80.352C10.224 80.192 9.644 79.924 9.26 79.548C8.876 79.172 8.684 78.668 8.684 78.036C8.684 77.508 8.824 77.048 9.104 76.656C9.384 76.264 9.776 75.96 10.28 75.744C10.784 75.528 11.372 75.42 12.044 75.42C12.644 75.42 13.2 75.508 13.712 75.684C14.224 75.852 14.652 76.096 14.996 76.416L14.516 77.568C14.172 77.28 13.796 77.068 13.388 76.932C12.98 76.788 12.524 76.716 12.02 76.716C11.452 76.716 11.008 76.828 10.688 77.052C10.376 77.268 10.22 77.568 10.22 77.952C10.22 78.248 10.316 78.484 10.508 78.66C10.708 78.836 11.044 78.972 11.516 79.068L12.86 79.332C13.66 79.492 14.252 79.756 14.636 80.124C15.02 80.484 15.212 80.972 15.212 81.588C15.212 82.092 15.076 82.536 14.804 82.92C14.532 83.296 14.148 83.592 13.652 83.808C13.156 84.016 12.568 84.12 11.888 84.12ZM16.5504 84V77.94H18.0504V84H16.5504ZM16.4664 76.8V75.336H18.1344V76.8H16.4664ZM19.6793 84V79.452C19.6793 79.204 19.6713 78.952 19.6553 78.696C19.6393 78.44 19.6153 78.188 19.5833 77.94H21.0353L21.1553 79.14H21.0113C21.1793 78.724 21.4353 78.4 21.7793 78.168C22.1313 77.936 22.5473 77.82 23.0273 77.82C23.5073 77.82 23.9033 77.936 24.2153 78.168C24.5353 78.392 24.7593 78.744 24.8873 79.224H24.6953C24.8633 78.792 25.1393 78.452 25.5233 78.204C25.9073 77.948 26.3473 77.82 26.8433 77.82C27.5233 77.82 28.0313 78.02 28.3673 78.42C28.7033 78.82 28.8713 79.444 28.8713 80.292V84H27.3713V80.352C27.3713 79.872 27.2913 79.528 27.1313 79.32C26.9713 79.104 26.7153 78.996 26.3633 78.996C25.9473 78.996 25.6193 79.144 25.3793 79.44C25.1393 79.728 25.0193 80.12 25.0193 80.616V84H23.5193V80.352C23.5193 79.872 23.4393 79.528 23.2793 79.32C23.1193 79.104 22.8633 78.996 22.5113 78.996C22.0953 78.996 21.7673 79.144 21.5273 79.44C21.2953 79.728 21.1793 80.12 21.1793 80.616V84H19.6793ZM30.4723 86.592V79.452C30.4723 79.204 30.4643 78.952 30.4482 78.696C30.4323 78.44 30.4083 78.188 30.3763 77.94H31.8283L31.9603 79.212H31.8283C31.9483 78.788 32.2003 78.452 32.5843 78.204C32.9763 77.948 33.4283 77.82 33.9403 77.82C34.4763 77.82 34.9443 77.948 35.3443 78.204C35.7443 78.452 36.0563 78.812 36.2803 79.284C36.5043 79.748 36.6163 80.308 36.6163 80.964C36.6163 81.62 36.5043 82.184 36.2803 82.656C36.0563 83.128 35.7443 83.492 35.3443 83.748C34.9443 83.996 34.4763 84.12 33.9403 84.12C33.4363 84.12 32.9923 83.996 32.6083 83.748C32.2243 83.5 31.9683 83.168 31.8403 82.752H31.9723V86.592H30.4723ZM33.5203 82.968C34.0003 82.968 34.3843 82.804 34.6723 82.476C34.9603 82.14 35.1043 81.636 35.1043 80.964C35.1043 80.292 34.9603 79.792 34.6723 79.464C34.3843 79.136 34.0003 78.972 33.5203 78.972C33.0483 78.972 32.6683 79.136 32.3803 79.464C32.0923 79.792 31.9483 80.292 31.9483 80.964C31.9483 81.636 32.0923 82.14 32.3803 82.476C32.6683 82.804 33.0483 82.968 33.5203 82.968ZM37.9137 84V75.168H39.4137V84H37.9137ZM43.9706 84.12C42.9546 84.12 42.1586 83.84 41.5826 83.28C41.0066 82.72 40.7186 81.952 40.7186 80.976C40.7186 80.344 40.8426 79.792 41.0906 79.32C41.3386 78.848 41.6826 78.48 42.1226 78.216C42.5706 77.952 43.0906 77.82 43.6826 77.82C44.2666 77.82 44.7546 77.944 45.1466 78.192C45.5386 78.44 45.8346 78.788 46.0346 79.236C46.2426 79.684 46.3466 80.208 46.3466 80.808V81.204H41.9306V80.412H45.2786L45.0746 80.58C45.0746 80.02 44.9546 79.592 44.7146 79.296C44.4826 79 44.1426 78.852 43.6946 78.852C43.1986 78.852 42.8146 79.028 42.5426 79.38C42.2786 79.732 42.1466 80.224 42.1466 80.856V81.012C42.1466 81.668 42.3066 82.16 42.6266 82.488C42.9546 82.808 43.4146 82.968 44.0066 82.968C44.3506 82.968 44.6706 82.924 44.9666 82.836C45.2706 82.74 45.5586 82.588 45.8306 82.38L46.2746 83.388C45.9866 83.62 45.6426 83.8 45.2426 83.928C44.8426 84.056 44.4186 84.12 43.9706 84.12ZM51.0298 84V75.54H52.5778V84H51.0298ZM54.3199 84V79.452C54.3199 79.204 54.3119 78.952 54.2959 78.696C54.2799 78.44 54.2559 78.188 54.2239 77.94H55.6759L55.7959 79.14H55.6519C55.8439 78.716 56.1279 78.392 56.5039 78.168C56.8799 77.936 57.3159 77.82 57.8119 77.82C58.5239 77.82 59.0599 78.02 59.4199 78.42C59.7799 78.82 59.9599 79.444 59.9599 80.292V84H58.4599V80.364C58.4599 79.876 58.3639 79.528 58.1719 79.32C57.9879 79.104 57.7079 78.996 57.3319 78.996C56.8679 78.996 56.4999 79.14 56.2279 79.428C55.9559 79.716 55.8199 80.1 55.8199 80.58V84H54.3199ZM63.2678 84L60.6518 77.94H62.2478L64.1438 82.68H63.7718L65.7158 77.94H67.2158L64.5878 84H63.2678ZM70.8299 84.12C69.8139 84.12 69.0179 83.84 68.4419 83.28C67.8659 82.72 67.5779 81.952 67.5779 80.976C67.5779 80.344 67.7019 79.792 67.9499 79.32C68.1979 78.848 68.5419 78.48 68.9819 78.216C69.4299 77.952 69.9499 77.82 70.5419 77.82C71.1259 77.82 71.6139 77.944 72.0059 78.192C72.3979 78.44 72.6939 78.788 72.8939 79.236C73.1019 79.684 73.2059 80.208 73.2059 80.808V81.204H68.7899V80.412H72.1379L71.9339 80.58C71.9339 80.02 71.8139 79.592 71.5739 79.296C71.3419 79 71.0019 78.852 70.5539 78.852C70.0579 78.852 69.6739 79.028 69.4019 79.38C69.1379 79.732 69.0059 80.224 69.0059 80.856V81.012C69.0059 81.668 69.1659 82.16 69.4859 82.488C69.8139 82.808 70.2739 82.968 70.8659 82.968C71.2099 82.968 71.5299 82.924 71.8259 82.836C72.1299 82.74 72.4179 82.588 72.6899 82.38L73.1339 83.388C72.8459 83.62 72.5019 83.8 72.1019 83.928C71.7019 84.056 71.2779 84.12 70.8299 84.12ZM76.6362 84.12C76.1162 84.12 75.6362 84.06 75.1962 83.94C74.7642 83.812 74.4002 83.636 74.1042 83.412L74.5242 82.404C74.8282 82.612 75.1642 82.772 75.5322 82.884C75.9002 82.996 76.2722 83.052 76.6482 83.052C77.0482 83.052 77.3442 82.984 77.5362 82.848C77.7362 82.712 77.8362 82.528 77.8362 82.296C77.8362 82.112 77.7722 81.968 77.6442 81.864C77.5242 81.752 77.3282 81.668 77.0562 81.612L75.8562 81.384C75.3442 81.272 74.9522 81.08 74.6802 80.808C74.4162 80.536 74.2842 80.18 74.2842 79.74C74.2842 79.364 74.3842 79.032 74.5842 78.744C74.7922 78.456 75.0842 78.232 75.4602 78.072C75.8442 77.904 76.2922 77.82 76.8042 77.82C77.2522 77.82 77.6722 77.88 78.0642 78C78.4642 78.12 78.8002 78.3 79.0722 78.54L78.6402 79.512C78.3922 79.312 78.1082 79.156 77.7882 79.044C77.4682 78.932 77.1562 78.876 76.8522 78.876C76.4362 78.876 76.1322 78.952 75.9402 79.104C75.7482 79.248 75.6522 79.436 75.6522 79.668C75.6522 79.844 75.7082 79.992 75.8202 80.112C75.9402 80.224 76.1242 80.308 76.3722 80.364L77.5722 80.592C78.1082 80.696 78.5122 80.88 78.7842 81.144C79.0642 81.4 79.2042 81.752 79.2042 82.2C79.2042 82.6 79.0962 82.944 78.8802 83.232C78.6642 83.52 78.3642 83.74 77.9802 83.892C77.5962 84.044 77.1482 84.12 76.6362 84.12ZM83.0213 84.12C82.3013 84.12 81.7573 83.932 81.3893 83.556C81.0213 83.18 80.8373 82.616 80.8373 81.864V79.068H79.6733V77.94H80.8373V76.392L82.3373 76.008V77.94H83.9573V79.068H82.3373V81.768C82.3373 82.184 82.4173 82.476 82.5773 82.644C82.7373 82.812 82.9573 82.896 83.2373 82.896C83.3893 82.896 83.5173 82.884 83.6213 82.86C83.7333 82.836 83.8413 82.804 83.9453 82.764V83.952C83.8093 84.008 83.6573 84.048 83.4893 84.072C83.3293 84.104 83.1733 84.12 83.0213 84.12ZM84.9762 84V79.452C84.9762 79.204 84.9682 78.952 84.9522 78.696C84.9362 78.44 84.9122 78.188 84.8802 77.94H86.3322L86.4522 79.14H86.3082C86.4762 78.724 86.7322 78.4 87.0762 78.168C87.4282 77.936 87.8442 77.82 88.3242 77.82C88.8042 77.82 89.2002 77.936 89.5122 78.168C89.8322 78.392 90.0562 78.744 90.1842 79.224H89.9922C90.1602 78.792 90.4362 78.452 90.8202 78.204C91.2042 77.948 91.6442 77.82 92.1402 77.82C92.8202 77.82 93.3282 78.02 93.6642 78.42C94.0002 78.82 94.1682 79.444 94.1682 80.292V84H92.6682V80.352C92.6682 79.872 92.5882 79.528 92.4282 79.32C92.2682 79.104 92.0122 78.996 91.6602 78.996C91.2442 78.996 90.9162 79.144 90.6762 79.44C90.4362 79.728 90.3162 80.12 90.3162 80.616V84H88.8162V80.352C88.8162 79.872 88.7362 79.528 88.5762 79.32C88.4162 79.104 88.1602 78.996 87.8082 78.996C87.3922 78.996 87.0642 79.144 86.8242 79.44C86.5922 79.728 86.4762 80.12 86.4762 80.616V84H84.9762ZM98.6971 84.12C97.6811 84.12 96.8851 83.84 96.3091 83.28C95.7331 82.72 95.4451 81.952 95.4451 80.976C95.4451 80.344 95.5691 79.792 95.8171 79.32C96.0651 78.848 96.4091 78.48 96.8491 78.216C97.2971 77.952 97.8171 77.82 98.4091 77.82C98.9931 77.82 99.4811 77.944 99.8731 78.192C100.265 78.44 100.561 78.788 100.761 79.236C100.969 79.684 101.073 80.208 101.073 80.808V81.204H96.6571V80.412H100.005L99.8011 80.58C99.8011 80.02 99.6811 79.592 99.4411 79.296C99.2091 79 98.8691 78.852 98.4211 78.852C97.9251 78.852 97.5411 79.028 97.2691 79.38C97.0051 79.732 96.8731 80.224 96.8731 80.856V81.012C96.8731 81.668 97.0331 82.16 97.3531 82.488C97.6811 82.808 98.1411 82.968 98.7331 82.968C99.0771 82.968 99.3971 82.924 99.6931 82.836C99.9971 82.74 100.285 82.588 100.557 82.38L101.001 83.388C100.713 83.62 100.369 83.8 99.9691 83.928C99.5691 84.056 99.1451 84.12 98.6971 84.12ZM102.343 84V79.452C102.343 79.204 102.335 78.952 102.319 78.696C102.303 78.44 102.279 78.188 102.247 77.94H103.699L103.819 79.14H103.675C103.867 78.716 104.151 78.392 104.527 78.168C104.903 77.936 105.339 77.82 105.835 77.82C106.547 77.82 107.083 78.02 107.443 78.42C107.803 78.82 107.983 79.444 107.983 80.292V84H106.483V80.364C106.483 79.876 106.387 79.528 106.195 79.32C106.011 79.104 105.731 78.996 105.355 78.996C104.891 78.996 104.523 79.14 104.251 79.428C103.979 79.716 103.843 80.1 103.843 80.58V84H102.343ZM112.166 84.12C111.446 84.12 110.902 83.932 110.534 83.556C110.166 83.18 109.982 82.616 109.982 81.864V79.068H108.818V77.94H109.982V76.392L111.482 76.008V77.94H113.102V79.068H111.482V81.768C111.482 82.184 111.562 82.476 111.722 82.644C111.882 82.812 112.102 82.896 112.382 82.896C112.534 82.896 112.662 82.884 112.766 82.86C112.878 82.836 112.986 82.804 113.09 82.764V83.952C112.954 84.008 112.802 84.048 112.634 84.072C112.474 84.104 112.318 84.12 112.166 84.12Z" fill="#141B2F"/>
<path d="M8.88 103V95.95H9.53L14.05 101.95H13.82V95.95H14.59V103H13.95L9.43 97H9.65V103H8.88ZM18.3207 103.09C17.8407 103.09 17.4207 102.987 17.0607 102.78C16.7074 102.567 16.434 102.267 16.2407 101.88C16.0474 101.487 15.9507 101.023 15.9507 100.49C15.9507 99.95 16.0474 99.4867 16.2407 99.1C16.434 98.7133 16.7074 98.4167 17.0607 98.21C17.4207 97.9967 17.8407 97.89 18.3207 97.89C18.8074 97.89 19.2274 97.9967 19.5807 98.21C19.9407 98.4167 20.2174 98.7133 20.4107 99.1C20.6107 99.4867 20.7107 99.95 20.7107 100.49C20.7107 101.023 20.6107 101.487 20.4107 101.88C20.2174 102.267 19.9407 102.567 19.5807 102.78C19.2274 102.987 18.8074 103.09 18.3207 103.09ZM18.3207 102.43C18.8007 102.43 19.1807 102.267 19.4607 101.94C19.7407 101.607 19.8807 101.123 19.8807 100.49C19.8807 99.85 19.7374 99.3667 19.4507 99.04C19.1707 98.7067 18.794 98.54 18.3207 98.54C17.8474 98.54 17.4707 98.7067 17.1907 99.04C16.9107 99.3667 16.7707 99.85 16.7707 100.49C16.7707 101.123 16.9107 101.607 17.1907 101.94C17.4707 102.267 17.8474 102.43 18.3207 102.43ZM24.581 103V99.14C24.581 98.9533 24.571 98.7633 24.551 98.57C24.5377 98.37 24.521 98.1733 24.501 97.98H25.281L25.381 99.08H25.261C25.4077 98.6933 25.641 98.4 25.961 98.2C26.2877 97.9933 26.6643 97.89 27.091 97.89C27.6843 97.89 28.131 98.05 28.431 98.37C28.7377 98.6833 28.891 99.18 28.891 99.86V103H28.081V99.91C28.081 99.4367 27.9843 99.0933 27.791 98.88C27.6043 98.66 27.311 98.55 26.911 98.55C26.4443 98.55 26.0743 98.6933 25.801 98.98C25.5277 99.2667 25.391 99.65 25.391 100.13V103H24.581ZM32.6704 103.09C31.8837 103.09 31.2637 102.863 30.8104 102.41C30.3571 101.95 30.1304 101.313 30.1304 100.5C30.1304 99.9733 30.2304 99.5167 30.4304 99.13C30.6304 98.7367 30.9104 98.4333 31.2704 98.22C31.6304 98 32.0437 97.89 32.5104 97.89C32.9704 97.89 33.3571 97.9867 33.6704 98.18C33.9837 98.3733 34.2237 98.65 34.3904 99.01C34.5571 99.3633 34.6404 99.7833 34.6404 100.27V100.57H30.7504V100.06H34.1104L33.9404 100.19C33.9404 99.6567 33.8204 99.24 33.5804 98.94C33.3404 98.64 32.9837 98.49 32.5104 98.49C32.0104 98.49 31.6204 98.6667 31.3404 99.02C31.0604 99.3667 30.9204 99.8367 30.9204 100.43V100.52C30.9204 101.147 31.0737 101.623 31.3804 101.95C31.6937 102.27 32.1304 102.43 32.6904 102.43C32.9904 102.43 33.2704 102.387 33.5304 102.3C33.7971 102.207 34.0504 102.057 34.2904 101.85L34.5704 102.42C34.3504 102.633 34.0704 102.8 33.7304 102.92C33.3971 103.033 33.0437 103.09 32.6704 103.09ZM38.1098 103.09C37.3232 103.09 36.7032 102.863 36.2498 102.41C35.7965 101.95 35.5698 101.313 35.5698 100.5C35.5698 99.9733 35.6698 99.5167 35.8698 99.13C36.0698 98.7367 36.3498 98.4333 36.7098 98.22C37.0698 98 37.4832 97.89 37.9498 97.89C38.4098 97.89 38.7965 97.9867 39.1098 98.18C39.4232 98.3733 39.6632 98.65 39.8298 99.01C39.9965 99.3633 40.0798 99.7833 40.0798 100.27V100.57H36.1898V100.06H39.5498L39.3798 100.19C39.3798 99.6567 39.2598 99.24 39.0198 98.94C38.7798 98.64 38.4232 98.49 37.9498 98.49C37.4498 98.49 37.0598 98.6667 36.7798 99.02C36.4998 99.3667 36.3598 99.8367 36.3598 100.43V100.52C36.3598 101.147 36.5132 101.623 36.8198 101.95C37.1332 102.27 37.5698 102.43 38.1298 102.43C38.4298 102.43 38.7098 102.387 38.9698 102.3C39.2365 102.207 39.4898 102.057 39.7298 101.85L40.0098 102.42C39.7898 102.633 39.5098 102.8 39.1698 102.92C38.8365 103.033 38.4832 103.09 38.1098 103.09ZM43.2193 103.09C42.7793 103.09 42.3926 102.987 42.0593 102.78C41.726 102.567 41.466 102.267 41.2793 101.88C41.0993 101.493 41.0093 101.03 41.0093 100.49C41.0093 99.9433 41.0993 99.4767 41.2793 99.09C41.466 98.7033 41.726 98.4067 42.0593 98.2C42.3926 97.9933 42.7793 97.89 43.2193 97.89C43.6726 97.89 44.0626 98.0033 44.3893 98.23C44.7226 98.4567 44.946 98.7633 45.0593 99.15H44.9393V95.64H45.7493V103H44.9493V101.8H45.0593C44.9526 102.2 44.7326 102.517 44.3993 102.75C44.066 102.977 43.6726 103.09 43.2193 103.09ZM43.3893 102.43C43.8626 102.43 44.2426 102.267 44.5293 101.94C44.816 101.607 44.9593 101.123 44.9593 100.49C44.9593 99.85 44.816 99.3667 44.5293 99.04C44.2426 98.7067 43.8626 98.54 43.3893 98.54C42.916 98.54 42.536 98.7067 42.2493 99.04C41.9693 99.3667 41.8293 99.85 41.8293 100.49C41.8293 101.123 41.9693 101.607 42.2493 101.94C42.536 102.267 42.916 102.43 43.3893 102.43ZM51.9828 103.09C51.5028 103.09 51.0828 102.987 50.7228 102.78C50.3695 102.567 50.0961 102.267 49.9028 101.88C49.7095 101.487 49.6128 101.023 49.6128 100.49C49.6128 99.95 49.7095 99.4867 49.9028 99.1C50.0961 98.7133 50.3695 98.4167 50.7228 98.21C51.0828 97.9967 51.5028 97.89 51.9828 97.89C52.4695 97.89 52.8895 97.9967 53.2428 98.21C53.6028 98.4167 53.8795 98.7133 54.0728 99.1C54.2728 99.4867 54.3728 99.95 54.3728 100.49C54.3728 101.023 54.2728 101.487 54.0728 101.88C53.8795 102.267 53.6028 102.567 53.2428 102.78C52.8895 102.987 52.4695 103.09 51.9828 103.09ZM51.9828 102.43C52.4628 102.43 52.8428 102.267 53.1228 101.94C53.4028 101.607 53.5428 101.123 53.5428 100.49C53.5428 99.85 53.3995 99.3667 53.1128 99.04C52.8328 98.7067 52.4561 98.54 51.9828 98.54C51.5095 98.54 51.1328 98.7067 50.8528 99.04C50.5728 99.3667 50.4328 99.85 50.4328 100.49C50.4328 101.123 50.5728 101.607 50.8528 101.94C51.1328 102.267 51.5095 102.43 51.9828 102.43ZM55.8469 103V98.61H54.8669V97.98H56.0669L55.8469 98.19V97.35C55.8469 96.7833 55.9902 96.35 56.2769 96.05C56.5635 95.75 56.9735 95.6 57.5069 95.6C57.6402 95.6 57.7769 95.6133 57.9169 95.64C58.0635 95.66 58.1835 95.69 58.2769 95.73V96.4C58.1969 96.3667 58.0969 96.34 57.9769 96.32C57.8635 96.2933 57.7469 96.28 57.6269 96.28C57.4202 96.28 57.2435 96.3233 57.0969 96.41C56.9502 96.49 56.8402 96.6133 56.7669 96.78C56.6935 96.9467 56.6569 97.16 56.6569 97.42V98.15L56.5269 97.98H58.0569V98.61H56.6569V103H55.8469ZM61.5732 103V95.64H62.3832V99.09H62.2532C62.3932 98.6967 62.6265 98.4 62.9532 98.2C63.2865 97.9933 63.6699 97.89 64.1032 97.89C64.7032 97.89 65.1499 98.0533 65.4432 98.38C65.7365 98.7 65.8832 99.1867 65.8832 99.84V103H65.0732V99.89C65.0732 99.4233 64.9799 99.0833 64.7932 98.87C64.6132 98.6567 64.3199 98.55 63.9132 98.55C63.4465 98.55 63.0732 98.6933 62.7932 98.98C62.5199 99.2667 62.3832 99.6433 62.3832 100.11V103H61.5732ZM69.2026 103.09C68.6092 103.09 68.1592 102.927 67.8526 102.6C67.5526 102.273 67.4026 101.773 67.4026 101.1V97.98H68.2126V101.08C68.2126 101.54 68.3059 101.88 68.4926 102.1C68.6792 102.313 68.9692 102.42 69.3626 102.42C69.8026 102.42 70.1559 102.277 70.4226 101.99C70.6892 101.703 70.8226 101.32 70.8226 100.84V97.98H71.6326V103H70.8426V101.87H70.9726C70.8326 102.257 70.6059 102.557 70.2926 102.77C69.9859 102.983 69.6226 103.09 69.2026 103.09ZM75.4141 105.23C74.9807 105.23 74.5807 105.177 74.2141 105.07C73.8474 104.963 73.5174 104.8 73.2241 104.58L73.4641 103.97C73.6707 104.117 73.8741 104.233 74.0741 104.32C74.2741 104.407 74.4807 104.47 74.6941 104.51C74.9074 104.557 75.1341 104.58 75.3741 104.58C75.8674 104.58 76.2407 104.45 76.4941 104.19C76.7474 103.93 76.8741 103.56 76.8741 103.08V101.61H76.9741C76.8674 102.003 76.6474 102.317 76.3141 102.55C75.9807 102.777 75.5907 102.89 75.1441 102.89C74.6841 102.89 74.2841 102.79 73.9441 102.59C73.6107 102.383 73.3507 102.093 73.1641 101.72C72.9841 101.34 72.8941 100.893 72.8941 100.38C72.8941 99.8733 72.9841 99.4333 73.1641 99.06C73.3507 98.6867 73.6107 98.4 73.9441 98.2C74.2841 97.9933 74.6841 97.89 75.1441 97.89C75.5974 97.89 75.9874 98.0033 76.3141 98.23C76.6474 98.4567 76.8674 98.77 76.9741 99.17L76.8741 99.07L76.9641 97.98H77.7541C77.7274 98.1733 77.7074 98.37 77.6941 98.57C77.6807 98.7633 77.6741 98.9533 77.6741 99.14V102.97C77.6741 103.717 77.4807 104.28 77.0941 104.66C76.7141 105.04 76.1541 105.23 75.4141 105.23ZM75.2941 102.23C75.7807 102.23 76.1641 102.07 76.4441 101.75C76.7241 101.423 76.8641 100.967 76.8641 100.38C76.8641 99.7933 76.7241 99.34 76.4441 99.02C76.1641 98.7 75.7807 98.54 75.2941 98.54C74.8141 98.54 74.4307 98.7 74.1441 99.02C73.8574 99.34 73.7141 99.7933 73.7141 100.38C73.7141 100.967 73.8574 101.423 74.1441 101.75C74.4307 102.07 74.8141 102.23 75.2941 102.23ZM81.4595 103.09C80.6728 103.09 80.0528 102.863 79.5995 102.41C79.1461 101.95 78.9195 101.313 78.9195 100.5C78.9195 99.9733 79.0195 99.5167 79.2195 99.13C79.4195 98.7367 79.6995 98.4333 80.0595 98.22C80.4195 98 80.8328 97.89 81.2995 97.89C81.7595 97.89 82.1461 97.9867 82.4595 98.18C82.7728 98.3733 83.0128 98.65 83.1795 99.01C83.3461 99.3633 83.4295 99.7833 83.4295 100.27V100.57H79.5395V100.06H82.8995L82.7295 100.19C82.7295 99.6567 82.6095 99.24 82.3695 98.94C82.1295 98.64 81.7728 98.49 81.2995 98.49C80.7995 98.49 80.4095 98.6667 80.1295 99.02C79.8495 99.3667 79.7095 99.8367 79.7095 100.43V100.52C79.7095 101.147 79.8628 101.623 80.1695 101.95C80.4828 102.27 80.9195 102.43 81.4795 102.43C81.7795 102.43 82.0595 102.387 82.3195 102.3C82.5861 102.207 82.8395 102.057 83.0795 101.85L83.3595 102.42C83.1395 102.633 82.8595 102.8 82.5195 102.92C82.1861 103.033 81.8328 103.09 81.4595 103.09ZM89.1863 103.09C88.7397 103.09 88.3497 102.987 88.0163 102.78C87.683 102.567 87.423 102.267 87.2363 101.88C87.0563 101.493 86.9663 101.03 86.9663 100.49C86.9663 99.9433 87.0563 99.4767 87.2363 99.09C87.423 98.7033 87.683 98.4067 88.0163 98.2C88.3497 97.9933 88.7397 97.89 89.1863 97.89C89.6397 97.89 90.0297 98.0067 90.3563 98.24C90.6897 98.4667 90.9097 98.7767 91.0163 99.17H90.8963L91.0063 97.98H91.7863C91.7663 98.1733 91.7463 98.37 91.7263 98.57C91.713 98.7633 91.7063 98.9533 91.7063 99.14V103H90.8963V101.82H91.0063C90.8997 102.213 90.6797 102.523 90.3463 102.75C90.013 102.977 89.6263 103.09 89.1863 103.09ZM89.3463 102.43C89.8263 102.43 90.2063 102.267 90.4863 101.94C90.7663 101.607 90.9063 101.123 90.9063 100.49C90.9063 99.85 90.7663 99.3667 90.4863 99.04C90.2063 98.7067 89.8263 98.54 89.3463 98.54C88.873 98.54 88.493 98.7067 88.2063 99.04C87.9263 99.3667 87.7863 99.85 87.7863 100.49C87.7863 101.123 87.9263 101.607 88.2063 101.94C88.493 102.267 88.873 102.43 89.3463 102.43ZM93.2724 103V99.14C93.2724 98.9533 93.2624 98.7633 93.2424 98.57C93.2291 98.37 93.2124 98.1733 93.1924 97.98H93.9724L94.0724 99.08H93.9524C94.0858 98.7 94.2958 98.4067 94.5824 98.2C94.8758 97.9933 95.2291 97.89 95.6424 97.89C96.0624 97.89 96.4024 97.99 96.6624 98.19C96.9291 98.39 97.1091 98.7 97.2024 99.12H97.0524C97.1791 98.74 97.4024 98.44 97.7224 98.22C98.0424 98 98.4158 97.89 98.8424 97.89C99.3958 97.89 99.8124 98.05 100.092 98.37C100.372 98.6833 100.512 99.18 100.512 99.86V103H99.7024V99.91C99.7024 99.4367 99.6191 99.0933 99.4524 98.88C99.2858 98.66 99.0191 98.55 98.6524 98.55C98.2324 98.55 97.8991 98.6967 97.6524 98.99C97.4124 99.2767 97.2924 99.6633 97.2924 100.15V103H96.4824V99.91C96.4824 99.4367 96.3991 99.0933 96.2324 98.88C96.0658 98.66 95.7991 98.55 95.4324 98.55C95.0124 98.55 94.6824 98.6967 94.4424 98.99C94.2024 99.2767 94.0824 99.6633 94.0824 100.15V103H93.2724ZM104.112 103.09C103.632 103.09 103.212 102.987 102.852 102.78C102.498 102.567 102.225 102.267 102.032 101.88C101.838 101.487 101.742 101.023 101.742 100.49C101.742 99.95 101.838 99.4867 102.032 99.1C102.225 98.7133 102.498 98.4167 102.852 98.21C103.212 97.9967 103.632 97.89 104.112 97.89C104.598 97.89 105.018 97.9967 105.372 98.21C105.732 98.4167 106.008 98.7133 106.202 99.1C106.402 99.4867 106.502 99.95 106.502 100.49C106.502 101.023 106.402 101.487 106.202 101.88C106.008 102.267 105.732 102.567 105.372 102.78C105.018 102.987 104.598 103.09 104.112 103.09ZM104.112 102.43C104.592 102.43 104.972 102.267 105.252 101.94C105.532 101.607 105.672 101.123 105.672 100.49C105.672 99.85 105.528 99.3667 105.242 99.04C104.962 98.7067 104.585 98.54 104.112 98.54C103.638 98.54 103.262 98.7067 102.982 99.04C102.702 99.3667 102.562 99.85 102.562 100.49C102.562 101.123 102.702 101.607 102.982 101.94C103.262 102.267 103.638 102.43 104.112 102.43ZM109.535 103.09C108.941 103.09 108.491 102.927 108.185 102.6C107.885 102.273 107.735 101.773 107.735 101.1V97.98H108.545V101.08C108.545 101.54 108.638 101.88 108.825 102.1C109.011 102.313 109.301 102.42 109.695 102.42C110.135 102.42 110.488 102.277 110.755 101.99C111.021 101.703 111.155 101.32 111.155 100.84V97.98H111.965V103H111.175V101.87H111.305C111.165 102.257 110.938 102.557 110.625 102.77C110.318 102.983 109.955 103.09 109.535 103.09ZM113.536 103V99.14C113.536 98.9533 113.526 98.7633 113.506 98.57C113.493 98.37 113.476 98.1733 113.456 97.98H114.236L114.336 99.08H114.216C114.363 98.6933 114.596 98.4 114.916 98.2C115.243 97.9933 115.619 97.89 116.046 97.89C116.639 97.89 117.086 98.05 117.386 98.37C117.693 98.6833 117.846 99.18 117.846 99.86V103H117.036V99.91C117.036 99.4367 116.939 99.0933 116.746 98.88C116.559 98.66 116.266 98.55 115.866 98.55C115.399 98.55 115.029 98.6933 114.756 98.98C114.483 99.2667 114.346 99.65 114.346 100.13V103H113.536ZM121.175 103.09C120.682 103.09 120.305 102.95 120.045 102.67C119.785 102.383 119.655 101.953 119.655 101.38V98.61H118.675V97.98H119.655V96.61L120.465 96.38V97.98H121.905V98.61H120.465V101.29C120.465 101.69 120.532 101.977 120.665 102.15C120.805 102.317 121.012 102.4 121.285 102.4C121.412 102.4 121.525 102.39 121.625 102.37C121.725 102.343 121.815 102.313 121.895 102.28V102.96C121.802 103 121.689 103.03 121.555 103.05C121.429 103.077 121.302 103.09 121.175 103.09ZM127.559 103.09C127.079 103.09 126.659 102.987 126.299 102.78C125.946 102.567 125.672 102.267 125.479 101.88C125.286 101.487 125.189 101.023 125.189 100.49C125.189 99.95 125.286 99.4867 125.479 99.1C125.672 98.7133 125.946 98.4167 126.299 98.21C126.659 97.9967 127.079 97.89 127.559 97.89C128.046 97.89 128.466 97.9967 128.819 98.21C129.179 98.4167 129.456 98.7133 129.649 99.1C129.849 99.4867 129.949 99.95 129.949 100.49C129.949 101.023 129.849 101.487 129.649 101.88C129.456 102.267 129.179 102.567 128.819 102.78C128.466 102.987 128.046 103.09 127.559 103.09ZM127.559 102.43C128.039 102.43 128.419 102.267 128.699 101.94C128.979 101.607 129.119 101.123 129.119 100.49C129.119 99.85 128.976 99.3667 128.689 99.04C128.409 98.7067 128.032 98.54 127.559 98.54C127.086 98.54 126.709 98.7067 126.429 99.04C126.149 99.3667 126.009 99.85 126.009 100.49C126.009 101.123 126.149 101.607 126.429 101.94C126.709 102.267 127.086 102.43 127.559 102.43ZM131.423 103V98.61H130.443V97.98H131.643L131.423 98.19V97.35C131.423 96.7833 131.566 96.35 131.853 96.05C132.14 95.75 132.55 95.6 133.083 95.6C133.216 95.6 133.353 95.6133 133.493 95.64C133.64 95.66 133.76 95.69 133.853 95.73V96.4C133.773 96.3667 133.673 96.34 133.553 96.32C133.44 96.2933 133.323 96.28 133.203 96.28C132.996 96.28 132.82 96.3233 132.673 96.41C132.526 96.49 132.416 96.6133 132.343 96.78C132.27 96.9467 132.233 97.16 132.233 97.42V98.15L132.103 97.98H133.633V98.61H132.233V103H131.423ZM137.149 103V99.14C137.149 98.9533 137.139 98.7633 137.119 98.57C137.106 98.37 137.089 98.1733 137.069 97.98H137.849L137.949 99.08H137.829C137.963 98.7 138.173 98.4067 138.459 98.2C138.753 97.9933 139.106 97.89 139.519 97.89C139.939 97.89 140.279 97.99 140.539 98.19C140.806 98.39 140.986 98.7 141.079 99.12H140.929C141.056 98.74 141.279 98.44 141.599 98.22C141.919 98 142.293 97.89 142.719 97.89C143.273 97.89 143.689 98.05 143.969 98.37C144.249 98.6833 144.389 99.18 144.389 99.86V103H143.579V99.91C143.579 99.4367 143.496 99.0933 143.329 98.88C143.163 98.66 142.896 98.55 142.529 98.55C142.109 98.55 141.776 98.6967 141.529 98.99C141.289 99.2767 141.169 99.6633 141.169 100.15V103H140.359V99.91C140.359 99.4367 140.276 99.0933 140.109 98.88C139.943 98.66 139.676 98.55 139.309 98.55C138.889 98.55 138.559 98.6967 138.319 98.99C138.079 99.2767 137.959 99.6633 137.959 100.15V103H137.149ZM147.989 103.09C147.509 103.09 147.089 102.987 146.729 102.78C146.375 102.567 146.102 102.267 145.909 101.88C145.715 101.487 145.619 101.023 145.619 100.49C145.619 99.95 145.715 99.4867 145.909 99.1C146.102 98.7133 146.375 98.4167 146.729 98.21C147.089 97.9967 147.509 97.89 147.989 97.89C148.475 97.89 148.895 97.9967 149.249 98.21C149.609 98.4167 149.885 98.7133 150.079 99.1C150.279 99.4867 150.379 99.95 150.379 100.49C150.379 101.023 150.279 101.487 150.079 101.88C149.885 102.267 149.609 102.567 149.249 102.78C148.895 102.987 148.475 103.09 147.989 103.09ZM147.989 102.43C148.469 102.43 148.849 102.267 149.129 101.94C149.409 101.607 149.549 101.123 149.549 100.49C149.549 99.85 149.405 99.3667 149.119 99.04C148.839 98.7067 148.462 98.54 147.989 98.54C147.515 98.54 147.139 98.7067 146.859 99.04C146.579 99.3667 146.439 99.85 146.439 100.49C146.439 101.123 146.579 101.607 146.859 101.94C147.139 102.267 147.515 102.43 147.989 102.43ZM151.642 103V99.14C151.642 98.9533 151.632 98.7633 151.612 98.57C151.598 98.37 151.582 98.1733 151.562 97.98H152.342L152.442 99.08H152.322C152.468 98.6933 152.702 98.4 153.022 98.2C153.348 97.9933 153.725 97.89 154.152 97.89C154.745 97.89 155.192 98.05 155.492 98.37C155.798 98.6833 155.952 99.18 155.952 99.86V103H155.142V99.91C155.142 99.4367 155.045 99.0933 154.852 98.88C154.665 98.66 154.372 98.55 153.972 98.55C153.505 98.55 153.135 98.6933 152.862 98.98C152.588 99.2667 152.452 99.65 152.452 100.13V103H151.642ZM159.731 103.09C158.944 103.09 158.324 102.863 157.871 102.41C157.418 101.95 157.191 101.313 157.191 100.5C157.191 99.9733 157.291 99.5167 157.491 99.13C157.691 98.7367 157.971 98.4333 158.331 98.22C158.691 98 159.104 97.89 159.571 97.89C160.031 97.89 160.418 97.9867 160.731 98.18C161.044 98.3733 161.284 98.65 161.451 99.01C161.618 99.3633 161.701 99.7833 161.701 100.27V100.57H157.811V100.06H161.171L161.001 100.19C161.001 99.6567 160.881 99.24 160.641 98.94C160.401 98.64 160.044 98.49 159.571 98.49C159.071 98.49 158.681 98.6667 158.401 99.02C158.121 99.3667 157.981 99.8367 157.981 100.43V100.52C157.981 101.147 158.134 101.623 158.441 101.95C158.754 102.27 159.191 102.43 159.751 102.43C160.051 102.43 160.331 102.387 160.591 102.3C160.858 102.207 161.111 102.057 161.351 101.85L161.631 102.42C161.411 102.633 161.131 102.8 160.791 102.92C160.458 103.033 160.104 103.09 159.731 103.09ZM162.682 105.27L162.492 104.6C162.805 104.527 163.065 104.44 163.272 104.34C163.485 104.247 163.662 104.12 163.802 103.96C163.942 103.8 164.062 103.6 164.162 103.36L164.422 102.77L164.402 103.11L162.212 97.98H163.092L164.902 102.39H164.642L166.432 97.98H167.282L164.962 103.42C164.828 103.74 164.682 104.007 164.522 104.22C164.362 104.44 164.188 104.617 164.002 104.75C163.822 104.89 163.622 105 163.402 105.08C163.182 105.16 162.942 105.223 162.682 105.27ZM172.582 103.09C172.088 103.09 171.712 102.95 171.452 102.67C171.192 102.383 171.062 101.953 171.062 101.38V98.61H170.082V97.98H171.062V96.61L171.872 96.38V97.98H173.312V98.61H171.872V101.29C171.872 101.69 171.938 101.977 172.072 102.15C172.212 102.317 172.418 102.4 172.692 102.4C172.818 102.4 172.932 102.39 173.032 102.37C173.132 102.343 173.222 102.313 173.302 102.28V102.96C173.208 103 173.095 103.03 172.962 103.05C172.835 103.077 172.708 103.09 172.582 103.09ZM176.309 103.09C175.829 103.09 175.409 102.987 175.049 102.78C174.696 102.567 174.422 102.267 174.229 101.88C174.036 101.487 173.939 101.023 173.939 100.49C173.939 99.95 174.036 99.4867 174.229 99.1C174.422 98.7133 174.696 98.4167 175.049 98.21C175.409 97.9967 175.829 97.89 176.309 97.89C176.796 97.89 177.216 97.9967 177.569 98.21C177.929 98.4167 178.206 98.7133 178.399 99.1C178.599 99.4867 178.699 99.95 178.699 100.49C178.699 101.023 178.599 101.487 178.399 101.88C178.206 102.267 177.929 102.567 177.569 102.78C177.216 102.987 176.796 103.09 176.309 103.09ZM176.309 102.43C176.789 102.43 177.169 102.267 177.449 101.94C177.729 101.607 177.869 101.123 177.869 100.49C177.869 99.85 177.726 99.3667 177.439 99.04C177.159 98.7067 176.782 98.54 176.309 98.54C175.836 98.54 175.459 98.7067 175.179 99.04C174.899 99.3667 174.759 99.85 174.759 100.49C174.759 101.123 174.899 101.607 175.179 101.94C175.459 102.267 175.836 102.43 176.309 102.43ZM184.239 103.09C183.839 103.09 183.466 103.037 183.119 102.93C182.773 102.817 182.486 102.66 182.259 102.46L182.539 101.89C182.786 102.083 183.053 102.227 183.339 102.32C183.633 102.413 183.936 102.46 184.249 102.46C184.649 102.46 184.949 102.39 185.149 102.25C185.356 102.103 185.459 101.903 185.459 101.65C185.459 101.457 185.393 101.303 185.259 101.19C185.133 101.07 184.923 100.977 184.629 100.91L183.699 100.72C183.273 100.627 182.953 100.47 182.739 100.25C182.526 100.023 182.419 99.7367 182.419 99.39C182.419 99.0967 182.496 98.84 182.649 98.62C182.803 98.3933 183.026 98.2167 183.319 98.09C183.613 97.9567 183.956 97.89 184.349 97.89C184.716 97.89 185.053 97.9467 185.359 98.06C185.673 98.1667 185.933 98.3233 186.139 98.53L185.849 99.09C185.649 98.8967 185.419 98.7533 185.159 98.66C184.906 98.56 184.643 98.51 184.369 98.51C183.976 98.51 183.679 98.59 183.479 98.75C183.286 98.9033 183.189 99.1067 183.189 99.36C183.189 99.5533 183.249 99.7133 183.369 99.84C183.496 99.96 183.689 100.05 183.949 100.11L184.879 100.3C185.333 100.4 185.669 100.557 185.889 100.77C186.116 100.977 186.229 101.257 186.229 101.61C186.229 101.91 186.146 102.173 185.979 102.4C185.813 102.62 185.579 102.79 185.279 102.91C184.986 103.03 184.639 103.09 184.239 103.09ZM189.261 103.09C188.768 103.09 188.391 102.95 188.131 102.67C187.871 102.383 187.741 101.953 187.741 101.38V98.61H186.761V97.98H187.741V96.61L188.551 96.38V97.98H189.991V98.61H188.551V101.29C188.551 101.69 188.618 101.977 188.751 102.15C188.891 102.317 189.098 102.4 189.371 102.4C189.498 102.4 189.611 102.39 189.711 102.37C189.811 102.343 189.901 102.313 189.981 102.28V102.96C189.888 103 189.775 103.03 189.641 103.05C189.515 103.077 189.388 103.09 189.261 103.09ZM192.888 103.09C192.441 103.09 192.051 102.987 191.718 102.78C191.384 102.567 191.124 102.267 190.938 101.88C190.758 101.493 190.668 101.03 190.668 100.49C190.668 99.9433 190.758 99.4767 190.938 99.09C191.124 98.7033 191.384 98.4067 191.718 98.2C192.051 97.9933 192.441 97.89 192.888 97.89C193.341 97.89 193.731 98.0067 194.058 98.24C194.391 98.4667 194.611 98.7767 194.718 99.17H194.598L194.708 97.98H195.488C195.468 98.1733 195.448 98.37 195.428 98.57C195.414 98.7633 195.408 98.9533 195.408 99.14V103H194.598V101.82H194.708C194.601 102.213 194.381 102.523 194.048 102.75C193.714 102.977 193.328 103.09 192.888 103.09ZM193.048 102.43C193.528 102.43 193.908 102.267 194.188 101.94C194.468 101.607 194.608 101.123 194.608 100.49C194.608 99.85 194.468 99.3667 194.188 99.04C193.908 98.7067 193.528 98.54 193.048 98.54C192.574 98.54 192.194 98.7067 191.908 99.04C191.628 99.3667 191.488 99.85 191.488 100.49C191.488 101.123 191.628 101.607 191.908 101.94C192.194 102.267 192.574 102.43 193.048 102.43ZM196.954 103V99.19C196.954 98.99 196.947 98.7867 196.934 98.58C196.927 98.3733 196.914 98.1733 196.894 97.98H197.674L197.774 99.2L197.634 99.21C197.7 98.91 197.817 98.6633 197.984 98.47C198.15 98.2767 198.347 98.1333 198.574 98.04C198.8 97.94 199.037 97.89 199.284 97.89C199.384 97.89 199.47 97.8933 199.544 97.9C199.624 97.9067 199.697 97.9233 199.764 97.95L199.754 98.67C199.654 98.6367 199.56 98.6167 199.474 98.61C199.394 98.5967 199.3 98.59 199.194 98.59C198.9 98.59 198.644 98.66 198.424 98.8C198.21 98.94 198.047 99.12 197.934 99.34C197.827 99.56 197.774 99.7933 197.774 100.04V103H196.954ZM202.65 103.09C202.157 103.09 201.78 102.95 201.52 102.67C201.26 102.383 201.13 101.953 201.13 101.38V98.61H200.15V97.98H201.13V96.61L201.94 96.38V97.98H203.38V98.61H201.94V101.29C201.94 101.69 202.007 101.977 202.14 102.15C202.28 102.317 202.487 102.4 202.76 102.4C202.887 102.4 203 102.39 203.1 102.37C203.2 102.343 203.29 102.313 203.37 102.28V102.96C203.277 103 203.163 103.03 203.03 103.05C202.903 103.077 202.777 103.09 202.65 103.09ZM206.974 103V97.98H207.784V103H206.974ZM206.874 96.84V95.93H207.874V96.84H206.874ZM209.356 103V99.14C209.356 98.9533 209.346 98.7633 209.326 98.57C209.313 98.37 209.296 98.1733 209.276 97.98H210.056L210.156 99.08H210.036C210.183 98.6933 210.416 98.4 210.736 98.2C211.063 97.9933 211.44 97.89 211.866 97.89C212.46 97.89 212.906 98.05 213.206 98.37C213.513 98.6833 213.666 99.18 213.666 99.86V103H212.856V99.91C212.856 99.4367 212.76 99.0933 212.566 98.88C212.38 98.66 212.086 98.55 211.686 98.55C211.22 98.55 210.85 98.6933 210.576 98.98C210.303 99.2667 210.166 99.65 210.166 100.13V103H209.356ZM216.647 103L214.497 97.98H215.377L217.177 102.4H216.907L218.727 97.98H219.567L217.417 103H216.647ZM222.641 103.09C221.854 103.09 221.234 102.863 220.781 102.41C220.328 101.95 220.101 101.313 220.101 100.5C220.101 99.9733 220.201 99.5167 220.401 99.13C220.601 98.7367 220.881 98.4333 221.241 98.22C221.601 98 222.014 97.89 222.481 97.89C222.941 97.89 223.328 97.9867 223.641 98.18C223.954 98.3733 224.194 98.65 224.361 99.01C224.528 99.3633 224.611 99.7833 224.611 100.27V100.57H220.721V100.06H224.081L223.911 100.19C223.911 99.6567 223.791 99.24 223.551 98.94C223.311 98.64 222.954 98.49 222.481 98.49C221.981 98.49 221.591 98.6667 221.311 99.02C221.031 99.3667 220.891 99.8367 220.891 100.43V100.52C220.891 101.147 221.044 101.623 221.351 101.95C221.664 102.27 222.101 102.43 222.661 102.43C222.961 102.43 223.241 102.387 223.501 102.3C223.768 102.207 224.021 102.057 224.261 101.85L224.541 102.42C224.321 102.633 224.041 102.8 223.701 102.92C223.368 103.033 223.014 103.09 222.641 103.09ZM227.521 103.09C227.121 103.09 226.747 103.037 226.401 102.93C226.054 102.817 225.767 102.66 225.541 102.46L225.821 101.89C226.067 102.083 226.334 102.227 226.621 102.32C226.914 102.413 227.217 102.46 227.531 102.46C227.931 102.46 228.231 102.39 228.431 102.25C228.637 102.103 228.741 101.903 228.741 101.65C228.741 101.457 228.674 101.303 228.541 101.19C228.414 101.07 228.204 100.977 227.911 100.91L226.981 100.72C226.554 100.627 226.234 100.47 226.021 100.25C225.807 100.023 225.701 99.7367 225.701 99.39C225.701 99.0967 225.777 98.84 225.931 98.62C226.084 98.3933 226.307 98.2167 226.601 98.09C226.894 97.9567 227.237 97.89 227.631 97.89C227.997 97.89 228.334 97.9467 228.641 98.06C228.954 98.1667 229.214 98.3233 229.421 98.53L229.131 99.09C228.931 98.8967 228.701 98.7533 228.441 98.66C228.187 98.56 227.924 98.51 227.651 98.51C227.257 98.51 226.961 98.59 226.761 98.75C226.567 98.9033 226.471 99.1067 226.471 99.36C226.471 99.5533 226.531 99.7133 226.651 99.84C226.777 99.96 226.971 100.05 227.231 100.11L228.161 100.3C228.614 100.4 228.951 100.557 229.171 100.77C229.397 100.977 229.511 101.257 229.511 101.61C229.511 101.91 229.427 102.173 229.261 102.4C229.094 102.62 228.861 102.79 228.561 102.91C228.267 103.03 227.921 103.09 227.521 103.09ZM232.543 103.09C232.049 103.09 231.673 102.95 231.413 102.67C231.153 102.383 231.023 101.953 231.023 101.38V98.61H230.043V97.98H231.023V96.61L231.833 96.38V97.98H233.273V98.61H231.833V101.29C231.833 101.69 231.899 101.977 232.033 102.15C232.173 102.317 232.379 102.4 232.653 102.4C232.779 102.4 232.893 102.39 232.993 102.37C233.093 102.343 233.183 102.313 233.263 102.28V102.96C233.169 103 233.056 103.03 232.923 103.05C232.796 103.077 232.669 103.09 232.543 103.09ZM234.259 103V97.98H235.069V103H234.259ZM234.159 96.84V95.93H235.159V96.84H234.159ZM236.642 103V99.14C236.642 98.9533 236.632 98.7633 236.612 98.57C236.598 98.37 236.582 98.1733 236.562 97.98H237.342L237.442 99.08H237.322C237.468 98.6933 237.702 98.4 238.022 98.2C238.348 97.9933 238.725 97.89 239.152 97.89C239.745 97.89 240.192 98.05 240.492 98.37C240.798 98.6833 240.952 99.18 240.952 99.86V103H240.142V99.91C240.142 99.4367 240.045 99.0933 239.852 98.88C239.665 98.66 239.372 98.55 238.972 98.55C238.505 98.55 238.135 98.6933 237.862 98.98C237.588 99.2667 237.452 99.65 237.452 100.13V103H236.642ZM244.711 105.23C244.278 105.23 243.878 105.177 243.511 105.07C243.144 104.963 242.814 104.8 242.521 104.58L242.761 103.97C242.968 104.117 243.171 104.233 243.371 104.32C243.571 104.407 243.778 104.47 243.991 104.51C244.204 104.557 244.431 104.58 244.671 104.58C245.164 104.58 245.538 104.45 245.791 104.19C246.044 103.93 246.171 103.56 246.171 103.08V101.61H246.271C246.164 102.003 245.944 102.317 245.611 102.55C245.278 102.777 244.888 102.89 244.441 102.89C243.981 102.89 243.581 102.79 243.241 102.59C242.908 102.383 242.648 102.093 242.461 101.72C242.281 101.34 242.191 100.893 242.191 100.38C242.191 99.8733 242.281 99.4333 242.461 99.06C242.648 98.6867 242.908 98.4 243.241 98.2C243.581 97.9933 243.981 97.89 244.441 97.89C244.894 97.89 245.284 98.0033 245.611 98.23C245.944 98.4567 246.164 98.77 246.271 99.17L246.171 99.07L246.261 97.98H247.051C247.024 98.1733 247.004 98.37 246.991 98.57C246.978 98.7633 246.971 98.9533 246.971 99.14V102.97C246.971 103.717 246.778 104.28 246.391 104.66C246.011 105.04 245.451 105.23 244.711 105.23ZM244.591 102.23C245.078 102.23 245.461 102.07 245.741 101.75C246.021 101.423 246.161 100.967 246.161 100.38C246.161 99.7933 246.021 99.34 245.741 99.02C245.461 98.7 245.078 98.54 244.591 98.54C244.111 98.54 243.728 98.7 243.441 99.02C243.154 99.34 243.011 99.7933 243.011 100.38C243.011 100.967 243.154 101.423 243.441 101.75C243.728 102.07 244.111 102.23 244.591 102.23ZM248.366 103V101.98H249.386V103H248.366ZM8.88 116V108.95H9.71V116H8.88ZM11.3779 116V112.14C11.3779 111.953 11.3679 111.763 11.3479 111.57C11.3346 111.37 11.3179 111.173 11.2979 110.98H12.0779L12.1779 112.08H12.0579C12.2046 111.693 12.4379 111.4 12.7579 111.2C13.0846 110.993 13.4612 110.89 13.8879 110.89C14.4812 110.89 14.9279 111.05 15.2279 111.37C15.5346 111.683 15.6879 112.18 15.6879 112.86V116H14.8779V112.91C14.8779 112.437 14.7812 112.093 14.5879 111.88C14.4012 111.66 14.1079 111.55 13.7079 111.55C13.2412 111.55 12.8712 111.693 12.5979 111.98C12.3246 112.267 12.1879 112.65 12.1879 113.13V116H11.3779ZM18.6684 116L16.5184 110.98H17.3984L19.1984 115.4H18.9284L20.7484 110.98H21.5884L19.4384 116H18.6684ZM24.6626 116.09C23.8759 116.09 23.2559 115.863 22.8026 115.41C22.3492 114.95 22.1226 114.313 22.1226 113.5C22.1226 112.973 22.2226 112.517 22.4226 112.13C22.6226 111.737 22.9026 111.433 23.2626 111.22C23.6226 111 24.0359 110.89 24.5026 110.89C24.9626 110.89 25.3492 110.987 25.6626 111.18C25.9759 111.373 26.2159 111.65 26.3826 112.01C26.5492 112.363 26.6326 112.783 26.6326 113.27V113.57H22.7426V113.06H26.1026L25.9326 113.19C25.9326 112.657 25.8126 112.24 25.5726 111.94C25.3326 111.64 24.9759 111.49 24.5026 111.49C24.0026 111.49 23.6126 111.667 23.3326 112.02C23.0526 112.367 22.9126 112.837 22.9126 113.43V113.52C22.9126 114.147 23.0659 114.623 23.3726 114.95C23.6859 115.27 24.1226 115.43 24.6826 115.43C24.9826 115.43 25.2626 115.387 25.5226 115.3C25.7892 115.207 26.0426 115.057 26.2826 114.85L26.5626 115.42C26.3426 115.633 26.0626 115.8 25.7226 115.92C25.3892 116.033 25.0359 116.09 24.6626 116.09ZM29.542 116.09C29.142 116.09 28.7687 116.037 28.422 115.93C28.0754 115.817 27.7887 115.66 27.562 115.46L27.842 114.89C28.0887 115.083 28.3554 115.227 28.642 115.32C28.9354 115.413 29.2387 115.46 29.552 115.46C29.952 115.46 30.252 115.39 30.452 115.25C30.6587 115.103 30.762 114.903 30.762 114.65C30.762 114.457 30.6954 114.303 30.562 114.19C30.4354 114.07 30.2254 113.977 29.932 113.91L29.002 113.72C28.5754 113.627 28.2554 113.47 28.042 113.25C27.8287 113.023 27.722 112.737 27.722 112.39C27.722 112.097 27.7987 111.84 27.952 111.62C28.1054 111.393 28.3287 111.217 28.622 111.09C28.9154 110.957 29.2587 110.89 29.652 110.89C30.0187 110.89 30.3554 110.947 30.662 111.06C30.9754 111.167 31.2354 111.323 31.442 111.53L31.152 112.09C30.952 111.897 30.722 111.753 30.462 111.66C30.2087 111.56 29.9454 111.51 29.672 111.51C29.2787 111.51 28.982 111.59 28.782 111.75C28.5887 111.903 28.492 112.107 28.492 112.36C28.492 112.553 28.552 112.713 28.672 112.84C28.7987 112.96 28.992 113.05 29.252 113.11L30.182 113.3C30.6354 113.4 30.972 113.557 31.192 113.77C31.4187 113.977 31.532 114.257 31.532 114.61C31.532 114.91 31.4487 115.173 31.282 115.4C31.1154 115.62 30.882 115.79 30.582 115.91C30.2887 116.03 29.942 116.09 29.542 116.09ZM34.5641 116.09C34.0708 116.09 33.6941 115.95 33.4341 115.67C33.1741 115.383 33.0441 114.953 33.0441 114.38V111.61H32.0641V110.98H33.0441V109.61L33.8541 109.38V110.98H35.2941V111.61H33.8541V114.29C33.8541 114.69 33.9208 114.977 34.0541 115.15C34.1941 115.317 34.4008 115.4 34.6741 115.4C34.8008 115.4 34.9141 115.39 35.0141 115.37C35.1141 115.343 35.2041 115.313 35.2841 115.28V115.96C35.1908 116 35.0775 116.03 34.9441 116.05C34.8175 116.077 34.6908 116.09 34.5641 116.09ZM36.2802 116V112.14C36.2802 111.953 36.2702 111.763 36.2502 111.57C36.2369 111.37 36.2202 111.173 36.2002 110.98H36.9802L37.0802 112.08H36.9602C37.0936 111.7 37.3036 111.407 37.5902 111.2C37.8836 110.993 38.2369 110.89 38.6502 110.89C39.0702 110.89 39.4102 110.99 39.6702 111.19C39.9369 111.39 40.1169 111.7 40.2102 112.12H40.0602C40.1869 111.74 40.4102 111.44 40.7302 111.22C41.0502 111 41.4236 110.89 41.8502 110.89C42.4036 110.89 42.8202 111.05 43.1002 111.37C43.3802 111.683 43.5202 112.18 43.5202 112.86V116H42.7102V112.91C42.7102 112.437 42.6269 112.093 42.4602 111.88C42.2936 111.66 42.0269 111.55 41.6602 111.55C41.2402 111.55 40.9069 111.697 40.6602 111.99C40.4202 112.277 40.3002 112.663 40.3002 113.15V116H39.4902V112.91C39.4902 112.437 39.4069 112.093 39.2402 111.88C39.0736 111.66 38.8069 111.55 38.4402 111.55C38.0202 111.55 37.6902 111.697 37.4502 111.99C37.2102 112.277 37.0902 112.663 37.0902 113.15V116H36.2802ZM47.2895 116.09C46.5029 116.09 45.8829 115.863 45.4295 115.41C44.9762 114.95 44.7495 114.313 44.7495 113.5C44.7495 112.973 44.8495 112.517 45.0495 112.13C45.2495 111.737 45.5295 111.433 45.8895 111.22C46.2495 111 46.6629 110.89 47.1295 110.89C47.5895 110.89 47.9762 110.987 48.2895 111.18C48.6029 111.373 48.8429 111.65 49.0095 112.01C49.1762 112.363 49.2595 112.783 49.2595 113.27V113.57H45.3695V113.06H48.7295L48.5595 113.19C48.5595 112.657 48.4395 112.24 48.1995 111.94C47.9595 111.64 47.6029 111.49 47.1295 111.49C46.6295 111.49 46.2395 111.667 45.9595 112.02C45.6795 112.367 45.5395 112.837 45.5395 113.43V113.52C45.5395 114.147 45.6929 114.623 45.9995 114.95C46.3129 115.27 46.7495 115.43 47.3095 115.43C47.6095 115.43 47.8895 115.387 48.1495 115.3C48.4162 115.207 48.6695 115.057 48.9095 114.85L49.1895 115.42C48.9695 115.633 48.6895 115.8 48.3495 115.92C48.0162 116.033 47.6629 116.09 47.2895 116.09ZM50.499 116V112.14C50.499 111.953 50.489 111.763 50.469 111.57C50.4557 111.37 50.439 111.173 50.419 110.98H51.199L51.299 112.08H51.179C51.3257 111.693 51.559 111.4 51.879 111.2C52.2057 110.993 52.5823 110.89 53.009 110.89C53.6023 110.89 54.049 111.05 54.349 111.37C54.6557 111.683 54.809 112.18 54.809 112.86V116H53.999V112.91C53.999 112.437 53.9023 112.093 53.709 111.88C53.5223 111.66 53.229 111.55 52.829 111.55C52.3623 111.55 51.9923 111.693 51.719 111.98C51.4457 112.267 51.309 112.65 51.309 113.13V116H50.499ZM58.1384 116.09C57.645 116.09 57.2684 115.95 57.0084 115.67C56.7484 115.383 56.6184 114.953 56.6184 114.38V111.61H55.6384V110.98H56.6184V109.61L57.4284 109.38V110.98H58.8684V111.61H57.4284V114.29C57.4284 114.69 57.495 114.977 57.6284 115.15C57.7684 115.317 57.975 115.4 58.2484 115.4C58.375 115.4 58.4884 115.39 58.5884 115.37C58.6884 115.343 58.7784 115.313 58.8584 115.28V115.96C58.765 116 58.6517 116.03 58.5184 116.05C58.3917 116.077 58.265 116.09 58.1384 116.09ZM64.1319 116.09C63.7319 116.09 63.3585 116.037 63.0119 115.93C62.6652 115.817 62.3785 115.66 62.1519 115.46L62.4319 114.89C62.6785 115.083 62.9452 115.227 63.2319 115.32C63.5252 115.413 63.8285 115.46 64.1419 115.46C64.5419 115.46 64.8419 115.39 65.0419 115.25C65.2485 115.103 65.3519 114.903 65.3519 114.65C65.3519 114.457 65.2852 114.303 65.1519 114.19C65.0252 114.07 64.8152 113.977 64.5219 113.91L63.5919 113.72C63.1652 113.627 62.8452 113.47 62.6319 113.25C62.4185 113.023 62.3119 112.737 62.3119 112.39C62.3119 112.097 62.3885 111.84 62.5419 111.62C62.6952 111.393 62.9185 111.217 63.2119 111.09C63.5052 110.957 63.8485 110.89 64.2419 110.89C64.6085 110.89 64.9452 110.947 65.2519 111.06C65.5652 111.167 65.8252 111.323 66.0319 111.53L65.7419 112.09C65.5419 111.897 65.3119 111.753 65.0519 111.66C64.7985 111.56 64.5352 111.51 64.2619 111.51C63.8685 111.51 63.5719 111.59 63.3719 111.75C63.1785 111.903 63.0819 112.107 63.0819 112.36C63.0819 112.553 63.1419 112.713 63.2619 112.84C63.3885 112.96 63.5819 113.05 63.8419 113.11L64.7719 113.3C65.2252 113.4 65.5619 113.557 65.7819 113.77C66.0085 113.977 66.1219 114.257 66.1219 114.61C66.1219 114.91 66.0385 115.173 65.8719 115.4C65.7052 115.62 65.4719 115.79 65.1719 115.91C64.8785 116.03 64.5319 116.09 64.1319 116.09ZM69.154 116.09C68.6607 116.09 68.284 115.95 68.024 115.67C67.764 115.383 67.634 114.953 67.634 114.38V111.61H66.654V110.98H67.634V109.61L68.444 109.38V110.98H69.884V111.61H68.444V114.29C68.444 114.69 68.5107 114.977 68.644 115.15C68.784 115.317 68.9907 115.4 69.264 115.4C69.3907 115.4 69.504 115.39 69.604 115.37C69.704 115.343 69.794 115.313 69.874 115.28V115.96C69.7807 116 69.6673 116.03 69.534 116.05C69.4073 116.077 69.2807 116.09 69.154 116.09ZM72.7801 116.09C72.3334 116.09 71.9434 115.987 71.6101 115.78C71.2767 115.567 71.0167 115.267 70.8301 114.88C70.6501 114.493 70.5601 114.03 70.5601 113.49C70.5601 112.943 70.6501 112.477 70.8301 112.09C71.0167 111.703 71.2767 111.407 71.6101 111.2C71.9434 110.993 72.3334 110.89 72.7801 110.89C73.2334 110.89 73.6234 111.007 73.9501 111.24C74.2834 111.467 74.5034 111.777 74.6101 112.17H74.4901L74.6001 110.98H75.3801C75.3601 111.173 75.3401 111.37 75.3201 111.57C75.3067 111.763 75.3001 111.953 75.3001 112.14V116H74.4901V114.82H74.6001C74.4934 115.213 74.2734 115.523 73.9401 115.75C73.6067 115.977 73.2201 116.09 72.7801 116.09ZM72.9401 115.43C73.4201 115.43 73.8001 115.267 74.0801 114.94C74.3601 114.607 74.5001 114.123 74.5001 113.49C74.5001 112.85 74.3601 112.367 74.0801 112.04C73.8001 111.707 73.4201 111.54 72.9401 111.54C72.4667 111.54 72.0867 111.707 71.8001 112.04C71.5201 112.367 71.3801 112.85 71.3801 113.49C71.3801 114.123 71.5201 114.607 71.8001 114.94C72.0867 115.267 72.4667 115.43 72.9401 115.43ZM76.8462 116V112.19C76.8462 111.99 76.8395 111.787 76.8262 111.58C76.8195 111.373 76.8062 111.173 76.7862 110.98H77.5662L77.6662 112.2L77.5262 112.21C77.5928 111.91 77.7095 111.663 77.8762 111.47C78.0428 111.277 78.2395 111.133 78.4662 111.04C78.6928 110.94 78.9295 110.89 79.1762 110.89C79.2762 110.89 79.3628 110.893 79.4362 110.9C79.5162 110.907 79.5895 110.923 79.6562 110.95L79.6462 111.67C79.5462 111.637 79.4528 111.617 79.3662 111.61C79.2862 111.597 79.1928 111.59 79.0862 111.59C78.7928 111.59 78.5362 111.66 78.3162 111.8C78.1028 111.94 77.9395 112.12 77.8262 112.34C77.7195 112.56 77.6662 112.793 77.6662 113.04V116H76.8462ZM82.5427 116.09C82.0493 116.09 81.6727 115.95 81.4127 115.67C81.1527 115.383 81.0227 114.953 81.0227 114.38V111.61H80.0427V110.98H81.0227V109.61L81.8327 109.38V110.98H83.2727V111.61H81.8327V114.29C81.8327 114.69 81.8993 114.977 82.0327 115.15C82.1727 115.317 82.3793 115.4 82.6527 115.4C82.7793 115.4 82.8927 115.39 82.9927 115.37C83.0927 115.343 83.1827 115.313 83.2627 115.28V115.96C83.1693 116 83.056 116.03 82.9227 116.05C82.796 116.077 82.6693 116.09 82.5427 116.09ZM85.9288 116.09C85.5288 116.09 85.1554 116.037 84.8088 115.93C84.4621 115.817 84.1754 115.66 83.9488 115.46L84.2288 114.89C84.4754 115.083 84.7421 115.227 85.0288 115.32C85.3221 115.413 85.6254 115.46 85.9388 115.46C86.3388 115.46 86.6388 115.39 86.8388 115.25C87.0454 115.103 87.1488 114.903 87.1488 114.65C87.1488 114.457 87.0821 114.303 86.9488 114.19C86.8221 114.07 86.6121 113.977 86.3188 113.91L85.3888 113.72C84.9621 113.627 84.6421 113.47 84.4288 113.25C84.2154 113.023 84.1088 112.737 84.1088 112.39C84.1088 112.097 84.1854 111.84 84.3388 111.62C84.4921 111.393 84.7154 111.217 85.0088 111.09C85.3021 110.957 85.6454 110.89 86.0387 110.89C86.4054 110.89 86.7421 110.947 87.0488 111.06C87.3621 111.167 87.6221 111.323 87.8288 111.53L87.5388 112.09C87.3388 111.897 87.1088 111.753 86.8488 111.66C86.5954 111.56 86.3321 111.51 86.0588 111.51C85.6654 111.51 85.3688 111.59 85.1688 111.75C84.9754 111.903 84.8788 112.107 84.8788 112.36C84.8788 112.553 84.9388 112.713 85.0588 112.84C85.1854 112.96 85.3788 113.05 85.6388 113.11L86.5688 113.3C87.0221 113.4 87.3588 113.557 87.5788 113.77C87.8054 113.977 87.9188 114.257 87.9188 114.61C87.9188 114.91 87.8354 115.173 87.6688 115.4C87.5021 115.62 87.2688 115.79 86.9688 115.91C86.6754 116.03 86.3288 116.09 85.9288 116.09ZM92.0871 116V111.61H91.1071V110.98H92.3071L92.0871 111.19V110.35C92.0871 109.783 92.2304 109.35 92.5171 109.05C92.8038 108.75 93.2138 108.6 93.7471 108.6C93.8804 108.6 94.0171 108.613 94.1571 108.64C94.3038 108.66 94.4238 108.69 94.5171 108.73V109.4C94.4371 109.367 94.3371 109.34 94.2171 109.32C94.1038 109.293 93.9871 109.28 93.8671 109.28C93.6604 109.28 93.4838 109.323 93.3371 109.41C93.1904 109.49 93.0804 109.613 93.0071 109.78C92.9338 109.947 92.8971 110.16 92.8971 110.42V111.15L92.7671 110.98H94.2971V111.61H92.8971V116H92.0871ZM95.186 116V112.19C95.186 111.99 95.1793 111.787 95.166 111.58C95.1593 111.373 95.146 111.173 95.126 110.98H95.906L96.006 112.2L95.866 112.21C95.9327 111.91 96.0493 111.663 96.216 111.47C96.3827 111.277 96.5793 111.133 96.806 111.04C97.0327 110.94 97.2693 110.89 97.516 110.89C97.616 110.89 97.7027 110.893 97.776 110.9C97.856 110.907 97.9293 110.923 97.996 110.95L97.986 111.67C97.886 111.637 97.7927 111.617 97.706 111.61C97.626 111.597 97.5327 111.59 97.426 111.59C97.1327 111.59 96.876 111.66 96.656 111.8C96.4427 111.94 96.2793 112.12 96.166 112.34C96.0593 112.56 96.006 112.793 96.006 113.04V116H95.186ZM100.84 116.09C100.36 116.09 99.9402 115.987 99.5802 115.78C99.2269 115.567 98.9536 115.267 98.7602 114.88C98.5669 114.487 98.4702 114.023 98.4702 113.49C98.4702 112.95 98.5669 112.487 98.7602 112.1C98.9536 111.713 99.2269 111.417 99.5802 111.21C99.9402 110.997 100.36 110.89 100.84 110.89C101.327 110.89 101.747 110.997 102.1 111.21C102.46 111.417 102.737 111.713 102.93 112.1C103.13 112.487 103.23 112.95 103.23 113.49C103.23 114.023 103.13 114.487 102.93 114.88C102.737 115.267 102.46 115.567 102.1 115.78C101.747 115.987 101.327 116.09 100.84 116.09ZM100.84 115.43C101.32 115.43 101.7 115.267 101.98 114.94C102.26 114.607 102.4 114.123 102.4 113.49C102.4 112.85 102.257 112.367 101.97 112.04C101.69 111.707 101.314 111.54 100.84 111.54C100.367 111.54 99.9902 111.707 99.7102 112.04C99.4302 112.367 99.2902 112.85 99.2902 113.49C99.2902 114.123 99.4302 114.607 99.7102 114.94C99.9902 115.267 100.367 115.43 100.84 115.43ZM104.493 116V112.14C104.493 111.953 104.483 111.763 104.463 111.57C104.45 111.37 104.433 111.173 104.413 110.98H105.193L105.293 112.08H105.173C105.306 111.7 105.516 111.407 105.803 111.2C106.096 110.993 106.45 110.89 106.863 110.89C107.283 110.89 107.623 110.99 107.883 111.19C108.15 111.39 108.33 111.7 108.423 112.12H108.273C108.4 111.74 108.623 111.44 108.943 111.22C109.263 111 109.636 110.89 110.063 110.89C110.616 110.89 111.033 111.05 111.313 111.37C111.593 111.683 111.733 112.18 111.733 112.86V116H110.923V112.91C110.923 112.437 110.84 112.093 110.673 111.88C110.506 111.66 110.24 111.55 109.873 111.55C109.453 111.55 109.12 111.697 108.873 111.99C108.633 112.277 108.513 112.663 108.513 113.15V116H107.703V112.91C107.703 112.437 107.62 112.093 107.453 111.88C107.286 111.66 107.02 111.55 106.653 111.55C106.233 111.55 105.903 111.697 105.663 111.99C105.423 112.277 105.303 112.663 105.303 113.15V116H104.493ZM119.51 116L118.03 113.75C117.917 113.563 117.8 113.417 117.68 113.31C117.56 113.203 117.423 113.127 117.27 113.08C117.123 113.033 116.943 113.01 116.73 113.01H115.3V112.39H117.33C117.917 112.39 118.353 112.27 118.64 112.03C118.927 111.783 119.073 111.423 119.08 110.95L119.21 111.03H115.3V110.49H119.21L119.06 110.61C119.007 110.243 118.84 109.967 118.56 109.78C118.287 109.587 117.903 109.49 117.41 109.49H115.3V108.95H120.88V109.49H118.8L118.99 109.37C119.243 109.497 119.443 109.67 119.59 109.89C119.737 110.103 119.827 110.353 119.86 110.64L119.69 110.49H120.88V111.03H119.72L119.88 110.88C119.9 111.307 119.817 111.677 119.63 111.99C119.45 112.303 119.18 112.547 118.82 112.72C118.467 112.887 118.033 112.97 117.52 112.97V112.88H117.68C117.933 112.88 118.16 112.94 118.36 113.06C118.567 113.18 118.767 113.39 118.96 113.69L120.49 116H119.51ZM122.356 116V115.29H124.016V109.66H124.456L122.516 110.87V110.04L124.246 108.95H124.846V115.29H126.406V116H122.356ZM127.712 116V114.98H128.732V116H127.712Z" fill="#5A5A5A"/>
<g filter="url(#filter0_d_1_2724)">
<rect x="15" y="16" width="48" height="48" rx="24" fill="#F4F7FF" shape-rendering="crispEdges"/>
<circle cx="39" cy="40" r="11.5" stroke="#FFD166" stroke-dasharray="3 3"/>
<circle cx="39" cy="40" r="9" fill="#FFD166"/>
<path d="M36.5425 44.0001L34.9035 41.5361C34.8081 41.3821 34.7055 41.2575 34.5955 41.1621C34.4928 41.0668 34.3755 41.0008 34.2435 40.9641C34.1188 40.9201 33.9685 40.8981 33.7925 40.8981H32.2305V39.9301H34.3865C34.9071 39.9301 35.2995 39.8238 35.5635 39.6111C35.8275 39.3911 35.9851 39.0795 36.0365 38.6761L36.2235 38.7861H32.2305V37.9721H36.2235L36.0145 38.1151C35.9558 37.7705 35.7981 37.5101 35.5415 37.3341C35.2848 37.1508 34.9181 37.0591 34.4415 37.0591H32.2305V36.2451H38.3795V37.0591H36.4105L36.5865 36.9051C36.8211 37.0371 37.0045 37.2131 37.1365 37.4331C37.2685 37.6458 37.3491 37.8951 37.3785 38.1811L37.1255 37.9721H38.3795V38.7861H37.1585L37.4005 38.5331C37.4078 39.0025 37.3051 39.4095 37.0925 39.7541C36.8798 40.0988 36.5755 40.3665 36.1795 40.5571C35.7908 40.7405 35.3215 40.8321 34.7715 40.8321V40.7221H35.0795C35.4095 40.7221 35.6918 40.7881 35.9265 40.9201C36.1685 41.0448 36.3958 41.2685 36.6085 41.5911L38.2365 44.0001H36.5425Z" fill="white"/>
<path d="M39.8162 44.0001V42.8231H41.5982V37.4331H42.2802L39.9922 38.7971V37.4551L42.0052 36.2451H43.0172V42.8231H44.6892V44.0001H39.8162Z" fill="white"/>
</g>
<defs>
<filter id="filter0_d_1_2724" x="-5" y="0" width="88" height="88" filterUnits="userSpaceOnUse" color-interpolation-filters="sRGB">
<feFlood flood-opacity="0" result="BackgroundImageFix"/>
<feColorMatrix in="SourceAlpha" type="matrix" values="0 0 0 0 0 0 0 0 0 0 0 0 0 0 0 0 0 0 127 0" result="hardAlpha"/>
<feOffset dy="4"/>
<feGaussianBlur stdDeviation="10"/>
<feComposite in2="hardAlpha" operator="out"/>
<feColorMatrix type="matrix" values="0 0 0 0 0 0 0 0 0 0 0 0 0 0 0 0 0 0 0.08 0"/>
<feBlend mode="normal" in2="BackgroundImageFix" result="effect1_dropShadow_1_2724"/>
<feBlend mode="normal" in="SourceGraphic" in2="effect1_dropShadow_1_2724" result="shape"/>
</filter>
</defs>
</svg>
