<svg width="160" height="129" viewBox="0 0 160 129" fill="none" xmlns="http://www.w3.org/2000/svg">
<rect y="31" width="160" height="98" rx="7" fill="#EEF1FB"/>
<path d="M9.332 84V82.716H11.276V76.836H12.02L9.524 78.324V76.86L11.72 75.54H12.824V82.716H14.648V84H9.332ZM18.7953 84.12C17.8033 84.12 17.0393 83.744 16.5033 82.992C15.9673 82.232 15.6993 81.152 15.6993 79.752C15.6993 78.336 15.9673 77.26 16.5033 76.524C17.0393 75.788 17.8033 75.42 18.7953 75.42C19.7953 75.42 20.5593 75.788 21.0873 76.524C21.6233 77.26 21.8913 78.332 21.8913 79.74C21.8913 81.148 21.6233 82.232 21.0873 82.992C20.5593 83.744 19.7953 84.12 18.7953 84.12ZM18.7953 82.848C19.3393 82.848 19.7433 82.6 20.0073 82.104C20.2713 81.6 20.4033 80.812 20.4033 79.74C20.4033 78.668 20.2713 77.892 20.0073 77.412C19.7433 76.924 19.3393 76.68 18.7953 76.68C18.2593 76.68 17.8553 76.924 17.5833 77.412C17.3193 77.892 17.1873 78.668 17.1873 79.74C17.1873 80.812 17.3193 81.6 17.5833 82.104C17.8553 82.6 18.2593 82.848 18.7953 82.848ZM25.9906 84.12C24.9986 84.12 24.2346 83.744 23.6986 82.992C23.1626 82.232 22.8946 81.152 22.8946 79.752C22.8946 78.336 23.1626 77.26 23.6986 76.524C24.2346 75.788 24.9986 75.42 25.9906 75.42C26.9906 75.42 27.7546 75.788 28.2826 76.524C28.8186 77.26 29.0866 78.332 29.0866 79.74C29.0866 81.148 28.8186 82.232 28.2826 82.992C27.7546 83.744 26.9906 84.12 25.9906 84.12ZM25.9906 82.848C26.5346 82.848 26.9386 82.6 27.2026 82.104C27.4666 81.6 27.5986 80.812 27.5986 79.74C27.5986 78.668 27.4666 77.892 27.2026 77.412C26.9386 76.924 26.5346 76.68 25.9906 76.68C25.4546 76.68 25.0506 76.924 24.7786 77.412C24.5146 77.892 24.3826 78.668 24.3826 79.74C24.3826 80.812 24.5146 81.6 24.7786 82.104C25.0506 82.6 25.4546 82.848 25.9906 82.848ZM33.4379 84H32.1539L37.1459 75.54H38.4299L33.4379 84ZM32.2499 80.592C31.5699 80.592 31.0379 80.36 30.6539 79.896C30.2699 79.432 30.0779 78.8 30.0779 78C30.0779 77.192 30.2699 76.56 30.6539 76.104C31.0459 75.648 31.5779 75.42 32.2499 75.42C32.9299 75.42 33.4619 75.652 33.8459 76.116C34.2299 76.58 34.4219 77.208 34.4219 78C34.4219 78.8 34.2299 79.432 33.8459 79.896C33.4619 80.36 32.9299 80.592 32.2499 80.592ZM32.2499 79.632C32.5459 79.632 32.7739 79.5 32.9339 79.236C33.1019 78.972 33.1859 78.56 33.1859 78C33.1859 77.432 33.1019 77.024 32.9339 76.776C32.7739 76.52 32.5459 76.392 32.2499 76.392C31.9539 76.392 31.7219 76.516 31.5539 76.764C31.3939 77.012 31.3139 77.424 31.3139 78C31.3139 78.576 31.3939 78.992 31.5539 79.248C31.7219 79.504 31.9539 79.632 32.2499 79.632ZM38.3339 84.12C37.6539 84.12 37.1219 83.888 36.7379 83.424C36.3539 82.952 36.1619 82.316 36.1619 81.516C36.1619 80.708 36.3539 80.08 36.7379 79.632C37.1299 79.176 37.6619 78.948 38.3339 78.948C39.0139 78.948 39.5459 79.18 39.9299 79.644C40.3139 80.1 40.5059 80.724 40.5059 81.516C40.5059 82.316 40.3139 82.952 39.9299 83.424C39.5459 83.888 39.0139 84.12 38.3339 84.12ZM38.3339 83.148C38.6299 83.148 38.8579 83.02 39.0179 82.764C39.1859 82.5 39.2699 82.084 39.2699 81.516C39.2699 80.948 39.1859 80.54 39.0179 80.292C38.8579 80.036 38.6299 79.908 38.3339 79.908C38.0379 79.908 37.8059 80.036 37.6379 80.292C37.4779 80.54 37.3979 80.948 37.3979 81.516C37.3979 82.092 37.4779 82.508 37.6379 82.764C37.8059 83.02 38.0379 83.148 38.3339 83.148ZM48.1693 84.12C47.4893 84.12 46.8613 84.036 46.2853 83.868C45.7173 83.692 45.2293 83.452 44.8213 83.148L45.3013 81.936C45.5733 82.128 45.8573 82.292 46.1533 82.428C46.4493 82.556 46.7653 82.656 47.1013 82.728C47.4373 82.792 47.7933 82.824 48.1693 82.824C48.8013 82.824 49.2573 82.72 49.5373 82.512C49.8173 82.304 49.9573 82.032 49.9573 81.696C49.9573 81.4 49.8613 81.176 49.6693 81.024C49.4773 80.864 49.1333 80.732 48.6373 80.628L47.2812 80.352C46.5053 80.192 45.9253 79.924 45.5413 79.548C45.1573 79.172 44.9653 78.668 44.9653 78.036C44.9653 77.508 45.1053 77.048 45.3853 76.656C45.6653 76.264 46.0573 75.96 46.5613 75.744C47.0653 75.528 47.6533 75.42 48.3253 75.42C48.9253 75.42 49.4813 75.508 49.9933 75.684C50.5053 75.852 50.9333 76.096 51.2773 76.416L50.7973 77.568C50.4533 77.28 50.0773 77.068 49.6693 76.932C49.2613 76.788 48.8053 76.716 48.3013 76.716C47.7333 76.716 47.2893 76.828 46.9693 77.052C46.6573 77.268 46.5013 77.568 46.5013 77.952C46.5013 78.248 46.5973 78.484 46.7893 78.66C46.9893 78.836 47.3253 78.972 47.7973 79.068L49.1413 79.332C49.9413 79.492 50.5333 79.756 50.9173 80.124C51.3013 80.484 51.4933 80.972 51.4933 81.588C51.4933 82.092 51.3573 82.536 51.0853 82.92C50.8133 83.296 50.4293 83.592 49.9333 83.808C49.4373 84.016 48.8493 84.12 48.1693 84.12ZM55.7596 84.12C54.7436 84.12 53.9476 83.84 53.3716 83.28C52.7956 82.72 52.5076 81.952 52.5076 80.976C52.5076 80.344 52.6316 79.792 52.8796 79.32C53.1276 78.848 53.4716 78.48 53.9116 78.216C54.3596 77.952 54.8796 77.82 55.4716 77.82C56.0556 77.82 56.5436 77.944 56.9356 78.192C57.3276 78.44 57.6236 78.788 57.8236 79.236C58.0316 79.684 58.1356 80.208 58.1356 80.808V81.204H53.7196V80.412H57.0676L56.8636 80.58C56.8636 80.02 56.7436 79.592 56.5036 79.296C56.2716 79 55.9316 78.852 55.4836 78.852C54.9876 78.852 54.6036 79.028 54.3316 79.38C54.0676 79.732 53.9356 80.224 53.9356 80.856V81.012C53.9356 81.668 54.0956 82.16 54.4156 82.488C54.7436 82.808 55.2036 82.968 55.7956 82.968C56.1396 82.968 56.4596 82.924 56.7556 82.836C57.0596 82.74 57.3476 82.588 57.6196 82.38L58.0636 83.388C57.7756 83.62 57.4316 83.8 57.0316 83.928C56.6316 84.056 56.2076 84.12 55.7596 84.12ZM62.1898 84.12C61.5658 84.12 61.0178 83.992 60.5458 83.736C60.0818 83.48 59.7218 83.116 59.4658 82.644C59.2098 82.164 59.0818 81.596 59.0818 80.94C59.0818 80.284 59.2098 79.724 59.4658 79.26C59.7298 78.796 60.0938 78.44 60.5578 78.192C61.0218 77.944 61.5658 77.82 62.1898 77.82C62.5898 77.82 62.9778 77.884 63.3538 78.012C63.7378 78.132 64.0498 78.308 64.2898 78.54L63.8338 79.584C63.6178 79.384 63.3738 79.236 63.1018 79.14C62.8378 79.036 62.5778 78.984 62.3218 78.984C61.7858 78.984 61.3658 79.152 61.0618 79.488C60.7658 79.824 60.6178 80.312 60.6178 80.952C60.6178 81.592 60.7658 82.084 61.0618 82.428C61.3658 82.772 61.7858 82.944 62.3218 82.944C62.5698 82.944 62.8258 82.896 63.0898 82.8C63.3618 82.704 63.6098 82.556 63.8338 82.356L64.2898 83.388C64.0418 83.62 63.7258 83.8 63.3418 83.928C62.9658 84.056 62.5818 84.12 62.1898 84.12ZM67.6367 84.12C66.8927 84.12 66.3367 83.916 65.9687 83.508C65.6007 83.1 65.4167 82.476 65.4167 81.636V77.94H66.9167V81.624C66.9167 82.072 67.0087 82.404 67.1927 82.62C67.3767 82.828 67.6567 82.932 68.0327 82.932C68.4567 82.932 68.8007 82.788 69.0647 82.5C69.3367 82.212 69.4727 81.832 69.4727 81.36V77.94H70.9727V84H69.5087V82.764H69.6767C69.5007 83.196 69.2327 83.532 68.8727 83.772C68.5207 84.004 68.1087 84.12 67.6367 84.12ZM72.5892 84V79.488C72.5892 79.232 72.5812 78.972 72.5652 78.708C72.5572 78.444 72.5372 78.188 72.5052 77.94H73.9572L74.1252 79.596H73.8852C73.9652 79.196 74.0972 78.864 74.2812 78.6C74.4732 78.336 74.7052 78.14 74.9772 78.012C75.2492 77.884 75.5452 77.82 75.8652 77.82C76.0092 77.82 76.1252 77.828 76.2132 77.844C76.3012 77.852 76.3892 77.872 76.4772 77.904L76.4652 79.224C76.3132 79.16 76.1812 79.12 76.0692 79.104C75.9652 79.088 75.8332 79.08 75.6732 79.08C75.3292 79.08 75.0372 79.152 74.7972 79.296C74.5652 79.44 74.3892 79.64 74.2692 79.896C74.1572 80.152 74.1012 80.444 74.1012 80.772V84H72.5892ZM80.1463 84.12C79.1303 84.12 78.3343 83.84 77.7583 83.28C77.1823 82.72 76.8943 81.952 76.8943 80.976C76.8943 80.344 77.0183 79.792 77.2663 79.32C77.5143 78.848 77.8583 78.48 78.2983 78.216C78.7463 77.952 79.2663 77.82 79.8583 77.82C80.4423 77.82 80.9303 77.944 81.3223 78.192C81.7143 78.44 82.0103 78.788 82.2103 79.236C82.4183 79.684 82.5223 80.208 82.5223 80.808V81.204H78.1063V80.412H81.4543L81.2503 80.58C81.2503 80.02 81.1303 79.592 80.8903 79.296C80.6583 79 80.3183 78.852 79.8703 78.852C79.3743 78.852 78.9903 79.028 78.7183 79.38C78.4543 79.732 78.3223 80.224 78.3223 80.856V81.012C78.3223 81.668 78.4823 82.16 78.8023 82.488C79.1303 82.808 79.5903 82.968 80.1823 82.968C80.5263 82.968 80.8463 82.924 81.1423 82.836C81.4463 82.74 81.7343 82.588 82.0063 82.38L82.4503 83.388C82.1623 83.62 81.8183 83.8 81.4183 83.928C81.0183 84.056 80.5943 84.12 80.1463 84.12Z" fill="#141B2F"/>
<path d="M11.18 103.09C10.6133 103.09 10.1067 103.017 9.66 102.87C9.21333 102.723 8.82333 102.513 8.49 102.24L8.79 101.58C9.02333 101.753 9.25667 101.9 9.49 102.02C9.73 102.133 9.98667 102.22 10.26 102.28C10.5333 102.333 10.84 102.36 11.18 102.36C11.7733 102.36 12.2133 102.25 12.5 102.03C12.7867 101.81 12.93 101.517 12.93 101.15C12.93 100.837 12.83 100.597 12.63 100.43C12.43 100.263 12.08 100.13 11.58 100.03L10.53 99.82C9.88333 99.6867 9.4 99.47 9.08 99.17C8.76667 98.87 8.61 98.4633 8.61 97.95C8.61 97.53 8.71667 97.1633 8.93 96.85C9.15 96.5367 9.45667 96.2933 9.85 96.12C10.2433 95.9467 10.7 95.86 11.22 95.86C11.72 95.86 12.1767 95.9367 12.59 96.09C13.0033 96.2367 13.3567 96.4533 13.65 96.74L13.36 97.38C13.0467 97.1 12.7167 96.9 12.37 96.78C12.03 96.6533 11.6433 96.59 11.21 96.59C10.6633 96.59 10.23 96.71 9.91 96.95C9.59667 97.1833 9.44 97.5033 9.44 97.91C9.44 98.2367 9.54 98.4933 9.74 98.68C9.94 98.86 10.27 98.9967 10.73 99.09L11.79 99.3C12.47 99.44 12.97 99.65 13.29 99.93C13.61 100.21 13.77 100.603 13.77 101.11C13.77 101.497 13.6633 101.84 13.45 102.14C13.2433 102.44 12.9467 102.673 12.56 102.84C12.1733 103.007 11.7133 103.09 11.18 103.09ZM16.7809 103.09C16.2876 103.09 15.9109 102.95 15.6509 102.67C15.3909 102.383 15.2609 101.953 15.2609 101.38V98.61H14.2809V97.98H15.2609V96.61L16.0709 96.38V97.98H17.5109V98.61H16.0709V101.29C16.0709 101.69 16.1376 101.977 16.2709 102.15C16.4109 102.317 16.6176 102.4 16.8909 102.4C17.0176 102.4 17.1309 102.39 17.2309 102.37C17.3309 102.343 17.4209 102.313 17.5009 102.28V102.96C17.4076 103 17.2943 103.03 17.1609 103.05C17.0343 103.077 16.9076 103.09 16.7809 103.09ZM20.5082 103.09C20.0282 103.09 19.6082 102.987 19.2482 102.78C18.8949 102.567 18.6215 102.267 18.4282 101.88C18.2349 101.487 18.1382 101.023 18.1382 100.49C18.1382 99.95 18.2349 99.4867 18.4282 99.1C18.6215 98.7133 18.8949 98.4167 19.2482 98.21C19.6082 97.9967 20.0282 97.89 20.5082 97.89C20.9949 97.89 21.4149 97.9967 21.7682 98.21C22.1282 98.4167 22.4049 98.7133 22.5982 99.1C22.7982 99.4867 22.8982 99.95 22.8982 100.49C22.8982 101.023 22.7982 101.487 22.5982 101.88C22.4049 102.267 22.1282 102.567 21.7682 102.78C21.4149 102.987 20.9949 103.09 20.5082 103.09ZM20.5082 102.43C20.9882 102.43 21.3682 102.267 21.6482 101.94C21.9282 101.607 22.0682 101.123 22.0682 100.49C22.0682 99.85 21.9249 99.3667 21.6382 99.04C21.3582 98.7067 20.9815 98.54 20.5082 98.54C20.0349 98.54 19.6582 98.7067 19.3782 99.04C19.0982 99.3667 18.9582 99.85 18.9582 100.49C18.9582 101.123 19.0982 101.607 19.3782 101.94C19.6582 102.267 20.0349 102.43 20.5082 102.43ZM24.1411 103V99.19C24.1411 98.99 24.1344 98.7867 24.1211 98.58C24.1144 98.3733 24.1011 98.1733 24.0811 97.98H24.8611L24.9611 99.2L24.8211 99.21C24.8878 98.91 25.0044 98.6633 25.1711 98.47C25.3378 98.2767 25.5344 98.1333 25.7611 98.04C25.9878 97.94 26.2244 97.89 26.4711 97.89C26.5711 97.89 26.6578 97.8933 26.7311 97.9C26.8111 97.9067 26.8844 97.9233 26.9511 97.95L26.9411 98.67C26.8411 98.6367 26.7478 98.6167 26.6611 98.61C26.5811 98.5967 26.4878 98.59 26.3811 98.59C26.0878 98.59 25.8311 98.66 25.6111 98.8C25.3978 98.94 25.2344 99.12 25.1211 99.34C25.0144 99.56 24.9611 99.7933 24.9611 100.04V103H24.1411ZM29.9653 103.09C29.1786 103.09 28.5586 102.863 28.1053 102.41C27.652 101.95 27.4253 101.313 27.4253 100.5C27.4253 99.9733 27.5253 99.5167 27.7253 99.13C27.9253 98.7367 28.2053 98.4333 28.5653 98.22C28.9253 98 29.3386 97.89 29.8053 97.89C30.2653 97.89 30.652 97.9867 30.9653 98.18C31.2786 98.3733 31.5186 98.65 31.6853 99.01C31.852 99.3633 31.9353 99.7833 31.9353 100.27V100.57H28.0453V100.06H31.4053L31.2353 100.19C31.2353 99.6567 31.1153 99.24 30.8753 98.94C30.6353 98.64 30.2786 98.49 29.8053 98.49C29.3053 98.49 28.9153 98.6667 28.6353 99.02C28.3553 99.3667 28.2153 99.8367 28.2153 100.43V100.52C28.2153 101.147 28.3686 101.623 28.6753 101.95C28.9886 102.27 29.4253 102.43 29.9853 102.43C30.2853 102.43 30.5653 102.387 30.8253 102.3C31.092 102.207 31.3453 102.057 31.5853 101.85L31.8653 102.42C31.6453 102.633 31.3653 102.8 31.0253 102.92C30.692 103.033 30.3386 103.09 29.9653 103.09ZM35.0748 103.09C34.6348 103.09 34.2481 102.987 33.9148 102.78C33.5814 102.567 33.3214 102.267 33.1348 101.88C32.9548 101.493 32.8648 101.03 32.8648 100.49C32.8648 99.9433 32.9548 99.4767 33.1348 99.09C33.3214 98.7033 33.5814 98.4067 33.9148 98.2C34.2481 97.9933 34.6348 97.89 35.0748 97.89C35.5281 97.89 35.9181 98.0033 36.2448 98.23C36.5781 98.4567 36.8014 98.7633 36.9148 99.15H36.7948V95.64H37.6048V103H36.8048V101.8H36.9148C36.8081 102.2 36.5881 102.517 36.2548 102.75C35.9214 102.977 35.5281 103.09 35.0748 103.09ZM35.2448 102.43C35.7181 102.43 36.0981 102.267 36.3848 101.94C36.6714 101.607 36.8148 101.123 36.8148 100.49C36.8148 99.85 36.6714 99.3667 36.3848 99.04C36.0981 98.7067 35.7181 98.54 35.2448 98.54C34.7714 98.54 34.3914 98.7067 34.1048 99.04C33.8248 99.3667 33.6848 99.85 33.6848 100.49C33.6848 101.123 33.8248 101.607 34.1048 101.94C34.3914 102.267 34.7714 102.43 35.2448 102.43ZM41.7783 103V97.98H42.5883V103H41.7783ZM41.6783 96.84V95.93H42.6783V96.84H41.6783ZM44.1611 103V99.14C44.1611 98.9533 44.1511 98.7633 44.1311 98.57C44.1178 98.37 44.1011 98.1733 44.0811 97.98H44.8611L44.9611 99.08H44.8411C44.9878 98.6933 45.2211 98.4 45.5411 98.2C45.8678 97.9933 46.2444 97.89 46.6711 97.89C47.2644 97.89 47.7111 98.05 48.0111 98.37C48.3178 98.6833 48.4711 99.18 48.4711 99.86V103H47.6611V99.91C47.6611 99.4367 47.5644 99.0933 47.3711 98.88C47.1844 98.66 46.8911 98.55 46.4911 98.55C46.0244 98.55 45.6544 98.6933 45.3811 98.98C45.1078 99.2667 44.9711 99.65 44.9711 100.13V103H44.1611ZM52.6279 103V97.98H53.4379V103H52.6279ZM52.5279 96.84V95.93H53.5279V96.84H52.5279ZM55.0107 103V99.14C55.0107 98.9533 55.0007 98.7633 54.9807 98.57C54.9674 98.37 54.9507 98.1733 54.9307 97.98H55.7107L55.8107 99.08H55.6907C55.8374 98.6933 56.0707 98.4 56.3907 98.2C56.7174 97.9933 57.094 97.89 57.5207 97.89C58.114 97.89 58.5607 98.05 58.8607 98.37C59.1674 98.6833 59.3207 99.18 59.3207 99.86V103H58.5107V99.91C58.5107 99.4367 58.414 99.0933 58.2207 98.88C58.034 98.66 57.7407 98.55 57.3407 98.55C56.874 98.55 56.504 98.6933 56.2307 98.98C55.9574 99.2667 55.8207 99.65 55.8207 100.13V103H55.0107ZM62.5401 103.09C62.1401 103.09 61.7667 103.037 61.4201 102.93C61.0734 102.817 60.7867 102.66 60.5601 102.46L60.8401 101.89C61.0867 102.083 61.3534 102.227 61.6401 102.32C61.9334 102.413 62.2367 102.46 62.5501 102.46C62.9501 102.46 63.2501 102.39 63.4501 102.25C63.6567 102.103 63.7601 101.903 63.7601 101.65C63.7601 101.457 63.6934 101.303 63.5601 101.19C63.4334 101.07 63.2234 100.977 62.9301 100.91L62.0001 100.72C61.5734 100.627 61.2534 100.47 61.0401 100.25C60.8267 100.023 60.7201 99.7367 60.7201 99.39C60.7201 99.0967 60.7967 98.84 60.9501 98.62C61.1034 98.3933 61.3267 98.2167 61.6201 98.09C61.9134 97.9567 62.2567 97.89 62.6501 97.89C63.0167 97.89 63.3534 97.9467 63.6601 98.06C63.9734 98.1667 64.2334 98.3233 64.4401 98.53L64.1501 99.09C63.9501 98.8967 63.7201 98.7533 63.4601 98.66C63.2067 98.56 62.9434 98.51 62.6701 98.51C62.2767 98.51 61.9801 98.59 61.7801 98.75C61.5867 98.9033 61.4901 99.1067 61.4901 99.36C61.4901 99.5533 61.5501 99.7133 61.6701 99.84C61.7967 99.96 61.9901 100.05 62.2501 100.11L63.1801 100.3C63.6334 100.4 63.9701 100.557 64.1901 100.77C64.4167 100.977 64.5301 101.257 64.5301 101.61C64.5301 101.91 64.4467 102.173 64.2801 102.4C64.1134 102.62 63.8801 102.79 63.5801 102.91C63.2867 103.03 62.9401 103.09 62.5401 103.09ZM67.601 103.09C67.0077 103.09 66.5577 102.927 66.251 102.6C65.951 102.273 65.801 101.773 65.801 101.1V97.98H66.611V101.08C66.611 101.54 66.7043 101.88 66.891 102.1C67.0777 102.313 67.3677 102.42 67.761 102.42C68.201 102.42 68.5543 102.277 68.821 101.99C69.0877 101.703 69.221 101.32 69.221 100.84V97.98H70.031V103H69.241V101.87H69.371C69.231 102.257 69.0043 102.557 68.691 102.77C68.3843 102.983 68.021 103.09 67.601 103.09ZM71.5825 103V99.19C71.5825 98.99 71.5758 98.7867 71.5625 98.58C71.5558 98.3733 71.5425 98.1733 71.5225 97.98H72.3025L72.4025 99.2L72.2625 99.21C72.3292 98.91 72.4458 98.6633 72.6125 98.47C72.7792 98.2767 72.9758 98.1333 73.2025 98.04C73.4292 97.94 73.6658 97.89 73.9125 97.89C74.0125 97.89 74.0992 97.8933 74.1725 97.9C74.2525 97.9067 74.3258 97.9233 74.3925 97.95L74.3825 98.67C74.2825 98.6367 74.1892 98.6167 74.1025 98.61C74.0225 98.5967 73.9292 98.59 73.8225 98.59C73.5292 98.59 73.2725 98.66 73.0525 98.8C72.8392 98.94 72.6758 99.12 72.5625 99.34C72.4558 99.56 72.4025 99.7933 72.4025 100.04V103H71.5825ZM77.4067 103.09C76.6201 103.09 76.0001 102.863 75.5467 102.41C75.0934 101.95 74.8667 101.313 74.8667 100.5C74.8667 99.9733 74.9667 99.5167 75.1667 99.13C75.3667 98.7367 75.6467 98.4333 76.0067 98.22C76.3667 98 76.7801 97.89 77.2467 97.89C77.7067 97.89 78.0934 97.9867 78.4067 98.18C78.7201 98.3733 78.9601 98.65 79.1267 99.01C79.2934 99.3633 79.3767 99.7833 79.3767 100.27V100.57H75.4867V100.06H78.8467L78.6767 100.19C78.6767 99.6567 78.5567 99.24 78.3167 98.94C78.0767 98.64 77.7201 98.49 77.2467 98.49C76.7467 98.49 76.3567 98.6667 76.0767 99.02C75.7967 99.3667 75.6567 99.8367 75.6567 100.43V100.52C75.6567 101.147 75.8101 101.623 76.1167 101.95C76.4301 102.27 76.8667 102.43 77.4267 102.43C77.7267 102.43 78.0067 102.387 78.2667 102.3C78.5334 102.207 78.7867 102.057 79.0267 101.85L79.3067 102.42C79.0867 102.633 78.8067 102.8 78.4667 102.92C78.1334 103.033 77.7801 103.09 77.4067 103.09ZM82.5162 103.09C82.0762 103.09 81.6895 102.987 81.3562 102.78C81.0228 102.567 80.7628 102.267 80.5762 101.88C80.3962 101.493 80.3062 101.03 80.3062 100.49C80.3062 99.9433 80.3962 99.4767 80.5762 99.09C80.7628 98.7033 81.0228 98.4067 81.3562 98.2C81.6895 97.9933 82.0762 97.89 82.5162 97.89C82.9695 97.89 83.3595 98.0033 83.6862 98.23C84.0195 98.4567 84.2428 98.7633 84.3562 99.15H84.2362V95.64H85.0462V103H84.2462V101.8H84.3562C84.2495 102.2 84.0295 102.517 83.6962 102.75C83.3628 102.977 82.9695 103.09 82.5162 103.09ZM82.6862 102.43C83.1595 102.43 83.5395 102.267 83.8262 101.94C84.1128 101.607 84.2562 101.123 84.2562 100.49C84.2562 99.85 84.1128 99.3667 83.8262 99.04C83.5395 98.7067 83.1595 98.54 82.6862 98.54C82.2128 98.54 81.8328 98.7067 81.5462 99.04C81.2662 99.3667 81.1262 99.85 81.1262 100.49C81.1262 101.123 81.2662 101.607 81.5462 101.94C81.8328 102.267 82.2128 102.43 82.6862 102.43ZM94.9497 103.09C94.643 102.95 94.3564 102.78 94.0897 102.58C93.823 102.373 93.5964 102.173 93.4097 101.98L93.6097 101.99C93.323 102.337 92.9764 102.607 92.5697 102.8C92.163 102.993 91.7197 103.09 91.2397 103.09C90.7597 103.09 90.3464 103.017 89.9997 102.87C89.6597 102.717 89.3964 102.507 89.2097 102.24C89.0297 101.973 88.9397 101.663 88.9397 101.31C88.9397 100.85 89.073 100.46 89.3397 100.14C89.6064 99.82 89.9864 99.5 90.4797 99.18L90.8097 98.97L90.6897 99.12C90.3764 98.7867 90.1464 98.49 89.9997 98.23C89.8597 97.9633 89.7897 97.69 89.7897 97.41C89.7897 97.1033 89.863 96.8333 90.0097 96.6C90.1564 96.3667 90.3597 96.1867 90.6197 96.06C90.8864 95.9267 91.1997 95.86 91.5597 95.86C92.013 95.86 92.3897 95.99 92.6897 96.25C92.9964 96.5033 93.1497 96.85 93.1497 97.29C93.1497 97.53 93.0997 97.7567 92.9997 97.97C92.9064 98.1767 92.7464 98.3833 92.5197 98.59C92.293 98.79 91.9864 99.01 91.5997 99.25L91.6197 99.06L93.5597 101.16H93.3797C93.553 100.887 93.6864 100.55 93.7797 100.15C93.8797 99.7433 93.9364 99.3167 93.9497 98.87H94.6597C94.6464 99.4233 94.5697 99.94 94.4297 100.42C94.2897 100.893 94.103 101.313 93.8697 101.68L93.8497 101.44C94.023 101.627 94.233 101.817 94.4797 102.01C94.7264 102.197 94.993 102.357 95.2797 102.49L94.9497 103.09ZM91.2697 102.43C91.6697 102.43 92.023 102.35 92.3297 102.19C92.643 102.03 92.9164 101.797 93.1497 101.49L93.1297 101.72L90.9597 99.4L91.2697 99.41L90.9597 99.6C90.6797 99.7867 90.4497 99.9633 90.2697 100.13C90.0897 100.297 89.9564 100.47 89.8697 100.65C89.783 100.83 89.7397 101.033 89.7397 101.26C89.7397 101.627 89.8697 101.913 90.1297 102.12C90.3964 102.327 90.7764 102.43 91.2697 102.43ZM91.5597 96.47C91.2597 96.47 91.0164 96.5567 90.8297 96.73C90.643 96.8967 90.5497 97.12 90.5497 97.4C90.5497 97.5467 90.573 97.6833 90.6197 97.81C90.673 97.9367 90.7597 98.0767 90.8797 98.23C90.9997 98.3767 91.1597 98.5633 91.3597 98.79L91.1397 98.82C91.5997 98.54 91.933 98.29 92.1397 98.07C92.353 97.8433 92.4597 97.5967 92.4597 97.33C92.4597 97.07 92.3764 96.8633 92.2097 96.71C92.0497 96.55 91.833 96.47 91.5597 96.47ZM100.746 105.23C100.313 105.23 99.9128 105.177 99.5461 105.07C99.1794 104.963 98.8494 104.8 98.5561 104.58L98.7961 103.97C99.0028 104.117 99.2061 104.233 99.4061 104.32C99.6061 104.407 99.8128 104.47 100.026 104.51C100.239 104.557 100.466 104.58 100.706 104.58C101.199 104.58 101.573 104.45 101.826 104.19C102.079 103.93 102.206 103.56 102.206 103.08V101.61H102.306C102.199 102.003 101.979 102.317 101.646 102.55C101.313 102.777 100.923 102.89 100.476 102.89C100.016 102.89 99.6161 102.79 99.2761 102.59C98.9428 102.383 98.6828 102.093 98.4961 101.72C98.3161 101.34 98.2261 100.893 98.2261 100.38C98.2261 99.8733 98.3161 99.4333 98.4961 99.06C98.6828 98.6867 98.9428 98.4 99.2761 98.2C99.6161 97.9933 100.016 97.89 100.476 97.89C100.929 97.89 101.319 98.0033 101.646 98.23C101.979 98.4567 102.199 98.77 102.306 99.17L102.206 99.07L102.296 97.98H103.086C103.059 98.1733 103.039 98.37 103.026 98.57C103.013 98.7633 103.006 98.9533 103.006 99.14V102.97C103.006 103.717 102.813 104.28 102.426 104.66C102.046 105.04 101.486 105.23 100.746 105.23ZM100.626 102.23C101.113 102.23 101.496 102.07 101.776 101.75C102.056 101.423 102.196 100.967 102.196 100.38C102.196 99.7933 102.056 99.34 101.776 99.02C101.496 98.7 101.113 98.54 100.626 98.54C100.146 98.54 99.7628 98.7 99.4761 99.02C99.1894 99.34 99.0461 99.7933 99.0461 100.38C99.0461 100.967 99.1894 101.423 99.4761 101.75C99.7628 102.07 100.146 102.23 100.626 102.23ZM106.331 103.09C105.738 103.09 105.288 102.927 104.981 102.6C104.681 102.273 104.531 101.773 104.531 101.1V97.98H105.341V101.08C105.341 101.54 105.435 101.88 105.621 102.1C105.808 102.313 106.098 102.42 106.491 102.42C106.931 102.42 107.285 102.277 107.551 101.99C107.818 101.703 107.951 101.32 107.951 100.84V97.98H108.761V103H107.971V101.87H108.101C107.961 102.257 107.735 102.557 107.421 102.77C107.115 102.983 106.751 103.09 106.331 103.09ZM112.243 103.09C111.796 103.09 111.406 102.987 111.073 102.78C110.74 102.567 110.48 102.267 110.293 101.88C110.113 101.493 110.023 101.03 110.023 100.49C110.023 99.9433 110.113 99.4767 110.293 99.09C110.48 98.7033 110.74 98.4067 111.073 98.2C111.406 97.9933 111.796 97.89 112.243 97.89C112.696 97.89 113.086 98.0067 113.413 98.24C113.746 98.4667 113.966 98.7767 114.073 99.17H113.953L114.063 97.98H114.843C114.823 98.1733 114.803 98.37 114.783 98.57C114.77 98.7633 114.763 98.9533 114.763 99.14V103H113.953V101.82H114.063C113.956 102.213 113.736 102.523 113.403 102.75C113.07 102.977 112.683 103.09 112.243 103.09ZM112.403 102.43C112.883 102.43 113.263 102.267 113.543 101.94C113.823 101.607 113.963 101.123 113.963 100.49C113.963 99.85 113.823 99.3667 113.543 99.04C113.263 98.7067 112.883 98.54 112.403 98.54C111.93 98.54 111.55 98.7067 111.263 99.04C110.983 99.3667 110.843 99.85 110.843 100.49C110.843 101.123 110.983 101.607 111.263 101.94C111.55 102.267 111.93 102.43 112.403 102.43ZM116.309 103V99.19C116.309 98.99 116.302 98.7867 116.289 98.58C116.282 98.3733 116.269 98.1733 116.249 97.98H117.029L117.129 99.2L116.989 99.21C117.056 98.91 117.172 98.6633 117.339 98.47C117.506 98.2767 117.702 98.1333 117.929 98.04C118.156 97.94 118.392 97.89 118.639 97.89C118.739 97.89 118.826 97.8933 118.899 97.9C118.979 97.9067 119.052 97.9233 119.119 97.95L119.109 98.67C119.009 98.6367 118.916 98.6167 118.829 98.61C118.749 98.5967 118.656 98.59 118.549 98.59C118.256 98.59 117.999 98.66 117.779 98.8C117.566 98.94 117.402 99.12 117.289 99.34C117.182 99.56 117.129 99.7933 117.129 100.04V103H116.309ZM121.803 103.09C121.363 103.09 120.977 102.987 120.643 102.78C120.31 102.567 120.05 102.267 119.863 101.88C119.683 101.493 119.593 101.03 119.593 100.49C119.593 99.9433 119.683 99.4767 119.863 99.09C120.05 98.7033 120.31 98.4067 120.643 98.2C120.977 97.9933 121.363 97.89 121.803 97.89C122.257 97.89 122.647 98.0033 122.973 98.23C123.307 98.4567 123.53 98.7633 123.643 99.15H123.523V95.64H124.333V103H123.533V101.8H123.643C123.537 102.2 123.317 102.517 122.983 102.75C122.65 102.977 122.257 103.09 121.803 103.09ZM121.973 102.43C122.447 102.43 122.827 102.267 123.113 101.94C123.4 101.607 123.543 101.123 123.543 100.49C123.543 99.85 123.4 99.3667 123.113 99.04C122.827 98.7067 122.447 98.54 121.973 98.54C121.5 98.54 121.12 98.7067 120.833 99.04C120.553 99.3667 120.413 99.85 120.413 100.49C120.413 101.123 120.553 101.607 120.833 101.94C121.12 102.267 121.5 102.43 121.973 102.43ZM128.129 103.09C127.343 103.09 126.723 102.863 126.269 102.41C125.816 101.95 125.589 101.313 125.589 100.5C125.589 99.9733 125.689 99.5167 125.889 99.13C126.089 98.7367 126.369 98.4333 126.729 98.22C127.089 98 127.503 97.89 127.969 97.89C128.429 97.89 128.816 97.9867 129.129 98.18C129.443 98.3733 129.683 98.65 129.849 99.01C130.016 99.3633 130.099 99.7833 130.099 100.27V100.57H126.209V100.06H129.569L129.399 100.19C129.399 99.6567 129.279 99.24 129.039 98.94C128.799 98.64 128.443 98.49 127.969 98.49C127.469 98.49 127.079 98.6667 126.799 99.02C126.519 99.3667 126.379 99.8367 126.379 100.43V100.52C126.379 101.147 126.533 101.623 126.839 101.95C127.153 102.27 127.589 102.43 128.149 102.43C128.449 102.43 128.729 102.387 128.989 102.3C129.256 102.207 129.509 102.057 129.749 101.85L130.029 102.42C129.809 102.633 129.529 102.8 129.189 102.92C128.856 103.033 128.503 103.09 128.129 103.09ZM133.239 103.09C132.799 103.09 132.412 102.987 132.079 102.78C131.745 102.567 131.485 102.267 131.299 101.88C131.119 101.493 131.029 101.03 131.029 100.49C131.029 99.9433 131.119 99.4767 131.299 99.09C131.485 98.7033 131.745 98.4067 132.079 98.2C132.412 97.9933 132.799 97.89 133.239 97.89C133.692 97.89 134.082 98.0033 134.409 98.23C134.742 98.4567 134.965 98.7633 135.079 99.15H134.959V95.64H135.769V103H134.969V101.8H135.079C134.972 102.2 134.752 102.517 134.419 102.75C134.085 102.977 133.692 103.09 133.239 103.09ZM133.409 102.43C133.882 102.43 134.262 102.267 134.549 101.94C134.835 101.607 134.979 101.123 134.979 100.49C134.979 99.85 134.835 99.3667 134.549 99.04C134.262 98.7067 133.882 98.54 133.409 98.54C132.935 98.54 132.555 98.7067 132.269 99.04C131.989 99.3667 131.849 99.85 131.849 100.49C131.849 101.123 131.989 101.607 132.269 101.94C132.555 102.267 132.935 102.43 133.409 102.43ZM10.27 116L8.12 110.98H9L10.8 115.4H10.53L12.35 110.98H13.19L11.04 116H10.27ZM15.9148 116.09C15.4682 116.09 15.0782 115.987 14.7448 115.78C14.4115 115.567 14.1515 115.267 13.9648 114.88C13.7848 114.493 13.6948 114.03 13.6948 113.49C13.6948 112.943 13.7848 112.477 13.9648 112.09C14.1515 111.703 14.4115 111.407 14.7448 111.2C15.0782 110.993 15.4682 110.89 15.9148 110.89C16.3682 110.89 16.7582 111.007 17.0848 111.24C17.4182 111.467 17.6382 111.777 17.7448 112.17H17.6248L17.7348 110.98H18.5148C18.4948 111.173 18.4748 111.37 18.4548 111.57C18.4415 111.763 18.4348 111.953 18.4348 112.14V116H17.6248V114.82H17.7348C17.6282 115.213 17.4082 115.523 17.0748 115.75C16.7415 115.977 16.3548 116.09 15.9148 116.09ZM16.0748 115.43C16.5548 115.43 16.9348 115.267 17.2148 114.94C17.4948 114.607 17.6348 114.123 17.6348 113.49C17.6348 112.85 17.4948 112.367 17.2148 112.04C16.9348 111.707 16.5548 111.54 16.0748 111.54C15.6015 111.54 15.2215 111.707 14.9348 112.04C14.6548 112.367 14.5148 112.85 14.5148 113.49C14.5148 114.123 14.6548 114.607 14.9348 114.94C15.2215 115.267 15.6015 115.43 16.0748 115.43ZM21.7709 116.09C21.1776 116.09 20.7276 115.927 20.4209 115.6C20.1209 115.273 19.9709 114.773 19.9709 114.1V110.98H20.7809V114.08C20.7809 114.54 20.8743 114.88 21.0609 115.1C21.2476 115.313 21.5376 115.42 21.9309 115.42C22.3709 115.42 22.7243 115.277 22.9909 114.99C23.2576 114.703 23.3909 114.32 23.3909 113.84V110.98H24.2009V116H23.4109V114.87H23.5409C23.4009 115.257 23.1743 115.557 22.8609 115.77C22.5543 115.983 22.1909 116.09 21.7709 116.09ZM25.7724 116V108.64H26.5824V116H25.7724ZM29.9352 116.09C29.4419 116.09 29.0652 115.95 28.8052 115.67C28.5452 115.383 28.4152 114.953 28.4152 114.38V111.61H27.4352V110.98H28.4152V109.61L29.2252 109.38V110.98H30.6652V111.61H29.2252V114.29C29.2252 114.69 29.2919 114.977 29.4252 115.15C29.5652 115.317 29.7719 115.4 30.0452 115.4C30.1719 115.4 30.2852 115.39 30.3852 115.37C30.4852 115.343 30.5752 115.313 30.6552 115.28V115.96C30.5619 116 30.4486 116.03 30.3152 116.05C30.1886 116.077 30.0619 116.09 29.9352 116.09ZM33.3213 116.09C32.9213 116.09 32.548 116.037 32.2013 115.93C31.8547 115.817 31.568 115.66 31.3413 115.46L31.6213 114.89C31.868 115.083 32.1347 115.227 32.4213 115.32C32.7147 115.413 33.018 115.46 33.3313 115.46C33.7313 115.46 34.0313 115.39 34.2313 115.25C34.438 115.103 34.5413 114.903 34.5413 114.65C34.5413 114.457 34.4747 114.303 34.3413 114.19C34.2147 114.07 34.0047 113.977 33.7113 113.91L32.7813 113.72C32.3547 113.627 32.0347 113.47 31.8213 113.25C31.608 113.023 31.5013 112.737 31.5013 112.39C31.5013 112.097 31.578 111.84 31.7313 111.62C31.8847 111.393 32.108 111.217 32.4013 111.09C32.6947 110.957 33.038 110.89 33.4313 110.89C33.798 110.89 34.1347 110.947 34.4413 111.06C34.7547 111.167 35.0147 111.323 35.2213 111.53L34.9313 112.09C34.7313 111.897 34.5013 111.753 34.2413 111.66C33.988 111.56 33.7247 111.51 33.4513 111.51C33.058 111.51 32.7613 111.59 32.5613 111.75C32.368 111.903 32.2713 112.107 32.2713 112.36C32.2713 112.553 32.3313 112.713 32.4513 112.84C32.578 112.96 32.7713 113.05 33.0313 113.11L33.9613 113.3C34.4147 113.4 34.7513 113.557 34.9713 113.77C35.198 113.977 35.3113 114.257 35.3113 114.61C35.3113 114.91 35.228 115.173 35.0613 115.4C34.8947 115.62 34.6613 115.79 34.3613 115.91C34.068 116.03 33.7213 116.09 33.3213 116.09ZM36.4034 116V114.98H37.4234V116H36.4034Z" fill="#5A5A5A"/>
<g filter="url(#filter0_d_1_2707)">
<rect x="15" y="16" width="48" height="48" rx="24" fill="#F4F7FF" shape-rendering="crispEdges"/>
<rect x="27" y="28" width="24" height="24" fill="#F4F7FF"/>
<path d="M29 33.0088V39.455C29 46.143 32.4974 48.1574 37.2667 50.8971L38.141 51.3805C38.1881 51.4396 38.2494 51.4855 38.319 51.5137C38.3886 51.5419 38.4641 51.5516 38.5385 51.5417C38.6758 51.5542 38.8139 51.5263 38.9359 51.4611L39.8103 50.9777C44.5795 48.1574 48.0769 46.143 48.0769 39.455V33.0088C48.0727 32.8435 48.0164 32.684 47.9163 32.5535C47.8162 32.423 47.6775 32.3284 47.5205 32.2836L38.7769 29.0604C38.6894 29.0206 38.5946 29 38.4987 29C38.4028 29 38.308 29.0206 38.2205 29.0604L29.4769 32.2836C29.338 32.3464 29.2194 32.4479 29.135 32.5762C29.0506 32.7046 29.0038 32.8546 29 33.0088Z" fill="#06D6A0"/>
<path d="M37.3932 43.3037C37.3786 43.3048 37.3641 43.3048 37.3495 43.3037C37.2576 43.2983 37.1676 43.2744 37.0851 43.2331C37.0025 43.1919 36.929 43.1342 36.8688 43.0636L34.0535 39.7988C33.9931 39.7289 33.9469 39.6476 33.9175 39.5595C33.8882 39.4715 33.8763 39.3782 33.8824 39.2855C33.8886 39.1928 33.9127 39.1022 33.9534 39.019C33.9942 38.9357 34.0506 38.8613 34.1197 38.8002C34.2593 38.677 34.4414 38.6151 34.6261 38.6279C34.8108 38.6407 34.9829 38.7273 35.1047 38.8686L37.4572 41.6009L43.3124 36.3403C43.451 36.2163 43.6323 36.1527 43.8169 36.1638C44.0014 36.1749 44.1741 36.2598 44.2972 36.3995C44.4201 36.5403 44.483 36.7247 44.4718 36.9123C44.4607 37.0999 44.3764 37.2753 44.2377 37.4001L37.857 43.1331C37.7278 43.2449 37.5631 43.3054 37.3932 43.3037Z" fill="#FFEFEF"/>
<path d="M37.3943 43.4177C37.3737 43.4195 37.353 43.4195 37.3324 43.4177C37.2274 43.4102 37.1249 43.3817 37.0307 43.3341C36.9365 43.2864 36.8525 43.2204 36.7834 43.1398L33.9691 39.875C33.8281 39.7109 33.757 39.4969 33.7713 39.2797C33.7857 39.0625 33.8842 38.8597 34.0455 38.716C34.2078 38.5736 34.4191 38.5021 34.6333 38.5171C34.8475 38.532 35.0472 38.6322 35.1888 38.7958L37.4661 41.4358L43.2371 36.2514C43.3982 36.1074 43.609 36.0341 43.8234 36.0471C44.0378 36.0601 44.2384 36.1584 44.3814 36.3209C44.5234 36.4845 44.5957 36.6987 44.5827 36.9162C44.5696 37.1337 44.4723 37.337 44.3118 37.4821L37.9311 43.2151C37.7822 43.3462 37.5915 43.4182 37.3943 43.4177ZM34.5778 38.7388C34.4365 38.7389 34.3 38.7901 34.1927 38.8834C34.0761 38.9875 34.0048 39.1342 33.9945 39.2914C33.9842 39.4485 34.0357 39.6035 34.1376 39.7224L36.953 42.9872C37.0038 43.046 37.0654 43.094 37.1346 43.1284C37.2038 43.1628 37.2791 43.1829 37.356 43.1876H37.3943C37.537 43.1874 37.6747 43.1345 37.7817 43.0386L44.1624 37.3045C44.22 37.2528 44.2671 37.1903 44.3008 37.1202C44.3346 37.0501 44.3544 36.974 44.3591 36.8962C44.3638 36.8184 44.3532 36.7403 44.3281 36.6666C44.303 36.5929 44.264 36.5251 44.213 36.4668C44.162 36.4084 44.1001 36.3608 44.0309 36.3267C43.9618 36.2926 43.8867 36.2725 43.8099 36.2678C43.7332 36.2632 43.6563 36.274 43.5836 36.2995C43.511 36.325 43.444 36.3647 43.3865 36.4165L37.447 41.7532L35.0203 38.9392C34.9648 38.876 34.8966 38.8254 34.8203 38.7908C34.744 38.7563 34.6613 38.7385 34.5778 38.7388Z" fill="white"/>
</g>
<defs>
<filter id="filter0_d_1_2707" x="-5" y="0" width="88" height="88" filterUnits="userSpaceOnUse" color-interpolation-filters="sRGB">
<feFlood flood-opacity="0" result="BackgroundImageFix"/>
<feColorMatrix in="SourceAlpha" type="matrix" values="0 0 0 0 0 0 0 0 0 0 0 0 0 0 0 0 0 0 127 0" result="hardAlpha"/>
<feOffset dy="4"/>
<feGaussianBlur stdDeviation="10"/>
<feComposite in2="hardAlpha" operator="out"/>
<feColorMatrix type="matrix" values="0 0 0 0 0 0 0 0 0 0 0 0 0 0 0 0 0 0 0.08 0"/>
<feBlend mode="normal" in2="BackgroundImageFix" result="effect1_dropShadow_1_2707"/>
<feBlend mode="normal" in="SourceGraphic" in2="effect1_dropShadow_1_2707" result="shape"/>
</filter>
</defs>
</svg>
