<svg width="165" height="129" viewBox="0 0 165 129" fill="none" xmlns="http://www.w3.org/2000/svg">
<rect x="5" y="31" width="160" height="98" rx="7" fill="#EEF1FB"/>
<path d="M13.936 84V75.54H17.008C17.976 75.54 18.792 75.708 19.456 76.044C20.128 76.372 20.636 76.852 20.98 77.484C21.324 78.108 21.496 78.868 21.496 79.764C21.496 80.652 21.324 81.412 20.98 82.044C20.636 82.676 20.128 83.16 19.456 83.496C18.792 83.832 17.976 84 17.008 84H13.936ZM15.484 82.716H16.912C17.936 82.716 18.696 82.472 19.192 81.984C19.688 81.496 19.936 80.756 19.936 79.764C19.936 78.764 19.688 78.024 19.192 77.544C18.696 77.056 17.936 76.812 16.912 76.812H15.484V82.716ZM22.9566 84V77.94H24.4566V84H22.9566ZM22.8726 76.8V75.336H24.5406V76.8H22.8726ZM27.8615 84L25.2455 77.94H26.8415L28.7375 82.68H28.3655L30.3095 77.94H31.8095L29.1815 84H27.8615ZM35.4237 84.12C34.4077 84.12 33.6117 83.84 33.0357 83.28C32.4597 82.72 32.1717 81.952 32.1717 80.976C32.1717 80.344 32.2957 79.792 32.5437 79.32C32.7917 78.848 33.1357 78.48 33.5757 78.216C34.0237 77.952 34.5437 77.82 35.1357 77.82C35.7197 77.82 36.2077 77.944 36.5997 78.192C36.9917 78.44 37.2877 78.788 37.4877 79.236C37.6957 79.684 37.7997 80.208 37.7997 80.808V81.204H33.3837V80.412H36.7317L36.5277 80.58C36.5277 80.02 36.4077 79.592 36.1677 79.296C35.9357 79 35.5957 78.852 35.1477 78.852C34.6517 78.852 34.2677 79.028 33.9957 79.38C33.7317 79.732 33.5997 80.224 33.5997 80.856V81.012C33.5997 81.668 33.7597 82.16 34.0797 82.488C34.4077 82.808 34.8677 82.968 35.4597 82.968C35.8037 82.968 36.1237 82.924 36.4197 82.836C36.7237 82.74 37.0117 82.588 37.2837 82.38L37.7277 83.388C37.4397 83.62 37.0957 83.8 36.6957 83.928C36.2957 84.056 35.8717 84.12 35.4237 84.12ZM39.0579 84V79.488C39.0579 79.232 39.0499 78.972 39.0339 78.708C39.0259 78.444 39.0059 78.188 38.9739 77.94H40.4259L40.5939 79.596H40.3539C40.4339 79.196 40.5659 78.864 40.7499 78.6C40.9419 78.336 41.1739 78.14 41.4459 78.012C41.7179 77.884 42.0139 77.82 42.3339 77.82C42.4779 77.82 42.5939 77.828 42.6819 77.844C42.7699 77.852 42.8579 77.872 42.9459 77.904L42.9339 79.224C42.7819 79.16 42.6499 79.12 42.5379 79.104C42.4339 79.088 42.3019 79.08 42.1419 79.08C41.7979 79.08 41.5059 79.152 41.2659 79.296C41.0339 79.44 40.8579 79.64 40.7379 79.896C40.6259 80.152 40.5699 80.444 40.5699 80.772V84H39.0579ZM45.8823 84.12C45.3623 84.12 44.8823 84.06 44.4423 83.94C44.0103 83.812 43.6463 83.636 43.3503 83.412L43.7703 82.404C44.0743 82.612 44.4103 82.772 44.7783 82.884C45.1463 82.996 45.5183 83.052 45.8943 83.052C46.2943 83.052 46.5903 82.984 46.7823 82.848C46.9823 82.712 47.0823 82.528 47.0823 82.296C47.0823 82.112 47.0183 81.968 46.8903 81.864C46.7703 81.752 46.5743 81.668 46.3023 81.612L45.1023 81.384C44.5903 81.272 44.1983 81.08 43.9263 80.808C43.6623 80.536 43.5303 80.18 43.5303 79.74C43.5303 79.364 43.6303 79.032 43.8303 78.744C44.0383 78.456 44.3303 78.232 44.7063 78.072C45.0903 77.904 45.5383 77.82 46.0503 77.82C46.4983 77.82 46.9183 77.88 47.3103 78C47.7103 78.12 48.0463 78.3 48.3183 78.54L47.8863 79.512C47.6383 79.312 47.3543 79.156 47.0343 79.044C46.7143 78.932 46.4023 78.876 46.0983 78.876C45.6823 78.876 45.3783 78.952 45.1863 79.104C44.9943 79.248 44.8983 79.436 44.8983 79.668C44.8983 79.844 44.9543 79.992 45.0663 80.112C45.1863 80.224 45.3703 80.308 45.6183 80.364L46.8183 80.592C47.3543 80.696 47.7583 80.88 48.0303 81.144C48.3103 81.4 48.4503 81.752 48.4503 82.2C48.4503 82.6 48.3423 82.944 48.1263 83.232C47.9103 83.52 47.6103 83.74 47.2263 83.892C46.8423 84.044 46.3943 84.12 45.8823 84.12ZM49.734 84V77.94H51.234V84H49.734ZM49.65 76.8V75.336H51.318V76.8H49.65ZM53.2709 84V79.068H52.1069V77.94H53.6909L53.2709 78.324V77.4C53.2709 76.648 53.4629 76.08 53.8469 75.696C54.2389 75.312 54.8109 75.12 55.5629 75.12C55.7389 75.12 55.9229 75.132 56.1149 75.156C56.3149 75.18 56.4869 75.224 56.6309 75.288V76.464C56.5269 76.424 56.4029 76.392 56.2589 76.368C56.1149 76.344 55.9749 76.332 55.8389 76.332C55.6309 76.332 55.4429 76.372 55.2749 76.452C55.1149 76.532 54.9869 76.656 54.8909 76.824C54.8029 76.984 54.7589 77.2 54.7589 77.472V78.204L54.5429 77.94H56.3549V79.068H54.7709V84H53.2709ZM57.0437 86.724L56.6957 85.536C57.0717 85.456 57.3877 85.364 57.6437 85.26C57.8997 85.156 58.1117 85.02 58.2797 84.852C58.4477 84.684 58.5877 84.468 58.6997 84.204L58.9997 83.496L58.9637 84.084L56.3237 77.94H57.9197L59.8157 82.668H59.4677L61.3757 77.94H62.8877L60.1277 84.336C59.9437 84.768 59.7437 85.124 59.5277 85.404C59.3117 85.692 59.0797 85.92 58.8317 86.088C58.5837 86.264 58.3117 86.4 58.0157 86.496C57.7197 86.592 57.3957 86.668 57.0437 86.724ZM67.0923 84V75.54H70.8483C71.7763 75.54 72.4843 75.764 72.9723 76.212C73.4603 76.66 73.7043 77.276 73.7043 78.06C73.7043 78.836 73.4603 79.452 72.9723 79.908C72.4843 80.364 71.7763 80.592 70.8483 80.592H68.6403V84H67.0923ZM68.6403 79.368H70.6683C71.1803 79.368 71.5643 79.256 71.8203 79.032C72.0763 78.8 72.2043 78.476 72.2043 78.06C72.2043 77.644 72.0763 77.324 71.8203 77.1C71.5643 76.868 71.1803 76.752 70.6683 76.752H68.6403V79.368ZM77.4075 84.12C76.7835 84.12 76.2435 83.992 75.7875 83.736C75.3315 83.48 74.9755 83.116 74.7195 82.644C74.4715 82.172 74.3475 81.612 74.3475 80.964C74.3475 80.316 74.4715 79.76 74.7195 79.296C74.9755 78.824 75.3315 78.46 75.7875 78.204C76.2435 77.948 76.7835 77.82 77.4075 77.82C78.0315 77.82 78.5715 77.948 79.0275 78.204C79.4915 78.46 79.8475 78.824 80.0955 79.296C80.3515 79.76 80.4795 80.316 80.4795 80.964C80.4795 81.612 80.3515 82.172 80.0955 82.644C79.8475 83.116 79.4915 83.48 79.0275 83.736C78.5715 83.992 78.0315 84.12 77.4075 84.12ZM77.4075 82.968C77.8795 82.968 78.2555 82.804 78.5355 82.476C78.8155 82.14 78.9555 81.636 78.9555 80.964C78.9555 80.292 78.8155 79.792 78.5355 79.464C78.2555 79.136 77.8795 78.972 77.4075 78.972C76.9355 78.972 76.5595 79.136 76.2795 79.464C75.9995 79.792 75.8595 80.292 75.8595 80.964C75.8595 81.636 75.9995 82.14 76.2795 82.476C76.5595 82.804 76.9355 82.968 77.4075 82.968ZM81.761 84V79.488C81.761 79.232 81.753 78.972 81.737 78.708C81.729 78.444 81.709 78.188 81.677 77.94H83.129L83.297 79.596H83.057C83.137 79.196 83.269 78.864 83.453 78.6C83.645 78.336 83.877 78.14 84.149 78.012C84.421 77.884 84.717 77.82 85.037 77.82C85.181 77.82 85.297 77.828 85.385 77.844C85.473 77.852 85.561 77.872 85.649 77.904L85.637 79.224C85.485 79.16 85.353 79.12 85.241 79.104C85.137 79.088 85.005 79.08 84.845 79.08C84.501 79.08 84.209 79.152 83.969 79.296C83.737 79.44 83.561 79.64 83.441 79.896C83.329 80.152 83.273 80.444 83.273 80.772V84H81.761ZM89.4158 84.12C88.6958 84.12 88.1518 83.932 87.7838 83.556C87.4158 83.18 87.2318 82.616 87.2318 81.864V79.068H86.0678V77.94H87.2318V76.392L88.7318 76.008V77.94H90.3518V79.068H88.7318V81.768C88.7318 82.184 88.8118 82.476 88.9718 82.644C89.1318 82.812 89.3518 82.896 89.6318 82.896C89.7838 82.896 89.9118 82.884 90.0158 82.86C90.1278 82.836 90.2358 82.804 90.3398 82.764V83.952C90.2038 84.008 90.0518 84.048 89.8838 84.072C89.7238 84.104 89.5678 84.12 89.4158 84.12ZM91.7553 84V79.068H90.5913V77.94H92.1753L91.7553 78.324V77.4C91.7553 76.648 91.9473 76.08 92.3313 75.696C92.7233 75.312 93.2953 75.12 94.0473 75.12C94.2233 75.12 94.4073 75.132 94.5993 75.156C94.7993 75.18 94.9713 75.224 95.1153 75.288V76.464C95.0113 76.424 94.8873 76.392 94.7433 76.368C94.5993 76.344 94.4593 76.332 94.3233 76.332C94.1153 76.332 93.9273 76.372 93.7593 76.452C93.5993 76.532 93.4713 76.656 93.3753 76.824C93.2873 76.984 93.2433 77.2 93.2433 77.472V78.204L93.0273 77.94H94.8393V79.068H93.2553V84H91.7553ZM98.3489 84.12C97.7249 84.12 97.1849 83.992 96.7289 83.736C96.2729 83.48 95.9169 83.116 95.6609 82.644C95.4129 82.172 95.2889 81.612 95.2889 80.964C95.2889 80.316 95.4129 79.76 95.6609 79.296C95.9169 78.824 96.2729 78.46 96.7289 78.204C97.1849 77.948 97.7249 77.82 98.3489 77.82C98.9729 77.82 99.5129 77.948 99.9689 78.204C100.433 78.46 100.789 78.824 101.037 79.296C101.293 79.76 101.421 80.316 101.421 80.964C101.421 81.612 101.293 82.172 101.037 82.644C100.789 83.116 100.433 83.48 99.9689 83.736C99.5129 83.992 98.9729 84.12 98.3489 84.12ZM98.3489 82.968C98.8209 82.968 99.1969 82.804 99.4769 82.476C99.7569 82.14 99.8969 81.636 99.8969 80.964C99.8969 80.292 99.7569 79.792 99.4769 79.464C99.1969 79.136 98.8209 78.972 98.3489 78.972C97.8769 78.972 97.5009 79.136 97.2209 79.464C96.9409 79.792 96.8009 80.292 96.8009 80.964C96.8009 81.636 96.9409 82.14 97.2209 82.476C97.5009 82.804 97.8769 82.968 98.3489 82.968ZM102.714 84V75.168H104.214V84H102.714ZM105.843 84V77.94H107.343V84H105.843ZM105.759 76.8V75.336H107.427V76.8H105.759ZM111.708 84.12C111.084 84.12 110.544 83.992 110.088 83.736C109.632 83.48 109.276 83.116 109.02 82.644C108.772 82.172 108.648 81.612 108.648 80.964C108.648 80.316 108.772 79.76 109.02 79.296C109.276 78.824 109.632 78.46 110.088 78.204C110.544 77.948 111.084 77.82 111.708 77.82C112.332 77.82 112.872 77.948 113.328 78.204C113.792 78.46 114.148 78.824 114.396 79.296C114.652 79.76 114.78 80.316 114.78 80.964C114.78 81.612 114.652 82.172 114.396 82.644C114.148 83.116 113.792 83.48 113.328 83.736C112.872 83.992 112.332 84.12 111.708 84.12ZM111.708 82.968C112.18 82.968 112.556 82.804 112.836 82.476C113.116 82.14 113.256 81.636 113.256 80.964C113.256 80.292 113.116 79.792 112.836 79.464C112.556 79.136 112.18 78.972 111.708 78.972C111.236 78.972 110.86 79.136 110.58 79.464C110.3 79.792 110.16 80.292 110.16 80.964C110.16 81.636 110.3 82.14 110.58 82.476C110.86 82.804 111.236 82.968 111.708 82.968Z" fill="#141B2F"/>
<path d="M13.88 103V95.95H16.7C17.4467 95.95 18.0233 96.11 18.43 96.43C18.8367 96.75 19.04 97.2033 19.04 97.79C19.04 98.23 18.9067 98.5967 18.64 98.89C18.38 99.1833 18.0167 99.3767 17.55 99.47V99.33C18.07 99.39 18.4767 99.57 18.77 99.87C19.07 100.163 19.22 100.56 19.22 101.06C19.22 101.687 19.01 102.167 18.59 102.5C18.1767 102.833 17.59 103 16.83 103H13.88ZM14.69 102.33H16.75C17.2567 102.33 17.6567 102.233 17.95 102.04C18.25 101.84 18.4 101.51 18.4 101.05C18.4 100.583 18.25 100.253 17.95 100.06C17.6567 99.86 17.2567 99.76 16.75 99.76H14.69V102.33ZM14.69 99.1H16.58C17.1267 99.1 17.5367 98.9933 17.81 98.78C18.0833 98.5667 18.22 98.26 18.22 97.86C18.22 97.4467 18.0833 97.1367 17.81 96.93C17.5367 96.7167 17.1267 96.61 16.58 96.61H14.69V99.1ZM22.4969 103.09C22.0502 103.09 21.6602 102.987 21.3269 102.78C20.9935 102.567 20.7335 102.267 20.5469 101.88C20.3669 101.493 20.2769 101.03 20.2769 100.49C20.2769 99.9433 20.3669 99.4767 20.5469 99.09C20.7335 98.7033 20.9935 98.4067 21.3269 98.2C21.6602 97.9933 22.0502 97.89 22.4969 97.89C22.9502 97.89 23.3402 98.0067 23.6669 98.24C24.0002 98.4667 24.2202 98.7767 24.3269 99.17H24.2069L24.3169 97.98H25.0969C25.0769 98.1733 25.0569 98.37 25.0369 98.57C25.0235 98.7633 25.0169 98.9533 25.0169 99.14V103H24.2069V101.82H24.3169C24.2102 102.213 23.9902 102.523 23.6569 102.75C23.3235 102.977 22.9369 103.09 22.4969 103.09ZM22.6569 102.43C23.1369 102.43 23.5169 102.267 23.7969 101.94C24.0769 101.607 24.2169 101.123 24.2169 100.49C24.2169 99.85 24.0769 99.3667 23.7969 99.04C23.5169 98.7067 23.1369 98.54 22.6569 98.54C22.1835 98.54 21.8035 98.7067 21.5169 99.04C21.2369 99.3667 21.0969 99.85 21.0969 100.49C21.0969 101.123 21.2369 101.607 21.5169 101.94C21.8035 102.267 22.1835 102.43 22.6569 102.43ZM26.583 103V95.64H27.393V103H26.583ZM30.8758 103.09C30.4291 103.09 30.0391 102.987 29.7058 102.78C29.3724 102.567 29.1124 102.267 28.9258 101.88C28.7458 101.493 28.6558 101.03 28.6558 100.49C28.6558 99.9433 28.7458 99.4767 28.9258 99.09C29.1124 98.7033 29.3724 98.4067 29.7058 98.2C30.0391 97.9933 30.4291 97.89 30.8758 97.89C31.3291 97.89 31.7191 98.0067 32.0458 98.24C32.3791 98.4667 32.5991 98.7767 32.7058 99.17H32.5858L32.6958 97.98H33.4758C33.4558 98.1733 33.4358 98.37 33.4158 98.57C33.4024 98.7633 33.3958 98.9533 33.3958 99.14V103H32.5858V101.82H32.6958C32.5891 102.213 32.3691 102.523 32.0358 102.75C31.7024 102.977 31.3158 103.09 30.8758 103.09ZM31.0358 102.43C31.5158 102.43 31.8958 102.267 32.1758 101.94C32.4558 101.607 32.5958 101.123 32.5958 100.49C32.5958 99.85 32.4558 99.3667 32.1758 99.04C31.8958 98.7067 31.5158 98.54 31.0358 98.54C30.5624 98.54 30.1824 98.7067 29.8958 99.04C29.6158 99.3667 29.4758 99.85 29.4758 100.49C29.4758 101.123 29.6158 101.607 29.8958 101.94C30.1824 102.267 30.5624 102.43 31.0358 102.43ZM34.9619 103V99.14C34.9619 98.9533 34.9519 98.7633 34.9319 98.57C34.9185 98.37 34.9019 98.1733 34.8819 97.98H35.6619L35.7619 99.08H35.6419C35.7885 98.6933 36.0219 98.4 36.3419 98.2C36.6685 97.9933 37.0452 97.89 37.4719 97.89C38.0652 97.89 38.5119 98.05 38.8119 98.37C39.1185 98.6833 39.2719 99.18 39.2719 99.86V103H38.4619V99.91C38.4619 99.4367 38.3652 99.0933 38.1719 98.88C37.9852 98.66 37.6919 98.55 37.2919 98.55C36.8252 98.55 36.4552 98.6933 36.1819 98.98C35.9085 99.2667 35.7719 99.65 35.7719 100.13V103H34.9619ZM42.9313 103.09C42.4379 103.09 42.0079 102.983 41.6413 102.77C41.2813 102.557 41.0013 102.253 40.8013 101.86C40.6079 101.467 40.5113 101 40.5113 100.46C40.5113 99.9133 40.6113 99.45 40.8113 99.07C41.0113 98.6833 41.2913 98.39 41.6513 98.19C42.0179 97.99 42.4446 97.89 42.9313 97.89C43.2513 97.89 43.5613 97.9467 43.8613 98.06C44.1679 98.1733 44.4213 98.3333 44.6213 98.54L44.3313 99.12C44.1313 98.9267 43.9113 98.7833 43.6713 98.69C43.4379 98.5967 43.2079 98.55 42.9813 98.55C42.4613 98.55 42.0579 98.7133 41.7713 99.04C41.4846 99.3667 41.3413 99.8433 41.3413 100.47C41.3413 101.09 41.4846 101.57 41.7713 101.91C42.0579 102.25 42.4613 102.42 42.9813 102.42C43.2013 102.42 43.4279 102.377 43.6613 102.29C43.9013 102.203 44.1246 102.06 44.3313 101.86L44.6213 102.43C44.4146 102.643 44.1579 102.807 43.8513 102.92C43.5446 103.033 43.2379 103.09 42.9313 103.09ZM47.9048 103.09C47.1181 103.09 46.4981 102.863 46.0448 102.41C45.5914 101.95 45.3648 101.313 45.3648 100.5C45.3648 99.9733 45.4648 99.5167 45.6648 99.13C45.8648 98.7367 46.1448 98.4333 46.5048 98.22C46.8648 98 47.2781 97.89 47.7448 97.89C48.2048 97.89 48.5914 97.9867 48.9048 98.18C49.2181 98.3733 49.4581 98.65 49.6248 99.01C49.7914 99.3633 49.8748 99.7833 49.8748 100.27V100.57H45.9848V100.06H49.3448L49.1748 100.19C49.1748 99.6567 49.0548 99.24 48.8148 98.94C48.5748 98.64 48.2181 98.49 47.7448 98.49C47.2448 98.49 46.8548 98.6667 46.5748 99.02C46.2948 99.3667 46.1548 99.8367 46.1548 100.43V100.52C46.1548 101.147 46.3081 101.623 46.6148 101.95C46.9281 102.27 47.3648 102.43 47.9248 102.43C48.2248 102.43 48.5048 102.387 48.7648 102.3C49.0314 102.207 49.2848 102.057 49.5248 101.85L49.8048 102.42C49.5848 102.633 49.3048 102.8 48.9648 102.92C48.6314 103.033 48.2781 103.09 47.9048 103.09ZM53.5216 105.27L53.3316 104.6C53.645 104.527 53.905 104.44 54.1116 104.34C54.325 104.247 54.5016 104.12 54.6416 103.96C54.7816 103.8 54.9016 103.6 55.0016 103.36L55.2616 102.77L55.2416 103.11L53.0516 97.98H53.9316L55.7416 102.39H55.4816L57.2716 97.98H58.1216L55.8016 103.42C55.6683 103.74 55.5216 104.007 55.3616 104.22C55.2016 104.44 55.0283 104.617 54.8416 104.75C54.6616 104.89 54.4616 105 54.2416 105.08C54.0216 105.16 53.7816 105.223 53.5216 105.27ZM61.0258 103.09C60.5458 103.09 60.1258 102.987 59.7658 102.78C59.4124 102.567 59.1391 102.267 58.9458 101.88C58.7524 101.487 58.6558 101.023 58.6558 100.49C58.6558 99.95 58.7524 99.4867 58.9458 99.1C59.1391 98.7133 59.4124 98.4167 59.7658 98.21C60.1258 97.9967 60.5458 97.89 61.0258 97.89C61.5124 97.89 61.9324 97.9967 62.2858 98.21C62.6458 98.4167 62.9224 98.7133 63.1158 99.1C63.3158 99.4867 63.4158 99.95 63.4158 100.49C63.4158 101.023 63.3158 101.487 63.1158 101.88C62.9224 102.267 62.6458 102.567 62.2858 102.78C61.9324 102.987 61.5124 103.09 61.0258 103.09ZM61.0258 102.43C61.5058 102.43 61.8858 102.267 62.1658 101.94C62.4458 101.607 62.5858 101.123 62.5858 100.49C62.5858 99.85 62.4424 99.3667 62.1558 99.04C61.8758 98.7067 61.4991 98.54 61.0258 98.54C60.5524 98.54 60.1758 98.7067 59.8958 99.04C59.6158 99.3667 59.4758 99.85 59.4758 100.49C59.4758 101.123 59.6158 101.607 59.8958 101.94C60.1758 102.267 60.5524 102.43 61.0258 102.43ZM66.4487 103.09C65.8553 103.09 65.4053 102.927 65.0987 102.6C64.7987 102.273 64.6487 101.773 64.6487 101.1V97.98H65.4587V101.08C65.4587 101.54 65.552 101.88 65.7387 102.1C65.9253 102.313 66.2153 102.42 66.6087 102.42C67.0487 102.42 67.402 102.277 67.6687 101.99C67.9353 101.703 68.0687 101.32 68.0687 100.84V97.98H68.8787V103H68.0887V101.87H68.2187C68.0787 102.257 67.852 102.557 67.5387 102.77C67.232 102.983 66.8687 103.09 66.4487 103.09ZM70.4302 103V99.19C70.4302 98.99 70.4235 98.7867 70.4102 98.58C70.4035 98.3733 70.3902 98.1733 70.3702 97.98H71.1502L71.2502 99.2L71.1102 99.21C71.1768 98.91 71.2935 98.6633 71.4602 98.47C71.6268 98.2767 71.8235 98.1333 72.0502 98.04C72.2768 97.94 72.5135 97.89 72.7602 97.89C72.8602 97.89 72.9468 97.8933 73.0202 97.9C73.1002 97.9067 73.1735 97.9233 73.2402 97.95L73.2302 98.67C73.1302 98.6367 73.0368 98.6167 72.9502 98.61C72.8702 98.5967 72.7768 98.59 72.6702 98.59C72.3768 98.59 72.1202 98.66 71.9002 98.8C71.6868 98.94 71.5235 99.12 71.4102 99.34C71.3035 99.56 71.2502 99.7933 71.2502 100.04V103H70.4302ZM76.6904 105.16V99.14C76.6904 98.9533 76.6804 98.7633 76.6604 98.57C76.6471 98.37 76.6304 98.1733 76.6104 97.98H77.3904L77.5004 99.17H77.3804C77.4871 98.7767 77.7037 98.4667 78.0304 98.24C78.3571 98.0067 78.7471 97.89 79.2004 97.89C79.6537 97.89 80.0437 97.9933 80.3704 98.2C80.7037 98.4067 80.9637 98.7033 81.1504 99.09C81.3371 99.4767 81.4304 99.9433 81.4304 100.49C81.4304 101.03 81.3371 101.493 81.1504 101.88C80.9704 102.267 80.7137 102.567 80.3804 102.78C80.0471 102.987 79.6537 103.09 79.2004 103.09C78.7537 103.09 78.3671 102.977 78.0404 102.75C77.7137 102.523 77.4971 102.213 77.3904 101.82H77.5004V105.16H76.6904ZM79.0404 102.43C79.5204 102.43 79.9004 102.267 80.1804 101.94C80.4671 101.607 80.6104 101.123 80.6104 100.49C80.6104 99.85 80.4671 99.3667 80.1804 99.04C79.9004 98.7067 79.5204 98.54 79.0404 98.54C78.5671 98.54 78.1871 98.7067 77.9004 99.04C77.6204 99.3667 77.4804 99.85 77.4804 100.49C77.4804 101.123 77.6204 101.607 77.9004 101.94C78.1871 102.267 78.5671 102.43 79.0404 102.43ZM84.7465 103.09C84.2665 103.09 83.8465 102.987 83.4865 102.78C83.1332 102.567 82.8598 102.267 82.6665 101.88C82.4732 101.487 82.3765 101.023 82.3765 100.49C82.3765 99.95 82.4732 99.4867 82.6665 99.1C82.8598 98.7133 83.1332 98.4167 83.4865 98.21C83.8465 97.9967 84.2665 97.89 84.7465 97.89C85.2332 97.89 85.6532 97.9967 86.0065 98.21C86.3665 98.4167 86.6432 98.7133 86.8365 99.1C87.0365 99.4867 87.1365 99.95 87.1365 100.49C87.1365 101.023 87.0365 101.487 86.8365 101.88C86.6432 102.267 86.3665 102.567 86.0065 102.78C85.6532 102.987 85.2332 103.09 84.7465 103.09ZM84.7465 102.43C85.2265 102.43 85.6065 102.267 85.8865 101.94C86.1665 101.607 86.3065 101.123 86.3065 100.49C86.3065 99.85 86.1632 99.3667 85.8765 99.04C85.5965 98.7067 85.2198 98.54 84.7465 98.54C84.2732 98.54 83.8965 98.7067 83.6165 99.04C83.3365 99.3667 83.1965 99.85 83.1965 100.49C83.1965 101.123 83.3365 101.607 83.6165 101.94C83.8965 102.267 84.2732 102.43 84.7465 102.43ZM88.3794 103V99.19C88.3794 98.99 88.3727 98.7867 88.3594 98.58C88.3527 98.3733 88.3394 98.1733 88.3194 97.98H89.0994L89.1994 99.2L89.0594 99.21C89.126 98.91 89.2427 98.6633 89.4094 98.47C89.576 98.2767 89.7727 98.1333 89.9994 98.04C90.226 97.94 90.4627 97.89 90.7094 97.89C90.8094 97.89 90.896 97.8933 90.9694 97.9C91.0494 97.9067 91.1227 97.9233 91.1894 97.95L91.1794 98.67C91.0794 98.6367 90.986 98.6167 90.8994 98.61C90.8194 98.5967 90.726 98.59 90.6194 98.59C90.326 98.59 90.0694 98.66 89.8494 98.8C89.636 98.94 89.4727 99.12 89.3594 99.34C89.2527 99.56 89.1994 99.7933 89.1994 100.04V103H88.3794ZM94.0759 103.09C93.5825 103.09 93.2059 102.95 92.9459 102.67C92.6859 102.383 92.5559 101.953 92.5559 101.38V98.61H91.5759V97.98H92.5559V96.61L93.3659 96.38V97.98H94.8059V98.61H93.3659V101.29C93.3659 101.69 93.4325 101.977 93.5659 102.15C93.7059 102.317 93.9125 102.4 94.1859 102.4C94.3125 102.4 94.4259 102.39 94.5259 102.37C94.6259 102.343 94.7159 102.313 94.7959 102.28V102.96C94.7025 103 94.5892 103.03 94.4559 103.05C94.3292 103.077 94.2025 103.09 94.0759 103.09ZM96.0715 103V98.61H95.0915V97.98H96.2915L96.0715 98.19V97.35C96.0715 96.7833 96.2148 96.35 96.5015 96.05C96.7882 95.75 97.1982 95.6 97.7315 95.6C97.8648 95.6 98.0015 95.6133 98.1415 95.64C98.2882 95.66 98.4082 95.69 98.5015 95.73V96.4C98.4215 96.3667 98.3215 96.34 98.2015 96.32C98.0882 96.2933 97.9715 96.28 97.8515 96.28C97.6448 96.28 97.4682 96.3233 97.3215 96.41C97.1748 96.49 97.0648 96.6133 96.9915 96.78C96.9182 96.9467 96.8815 97.16 96.8815 97.42V98.15L96.7515 97.98H98.2815V98.61H96.8815V103H96.0715ZM101.114 103.09C100.634 103.09 100.214 102.987 99.8537 102.78C99.5003 102.567 99.227 102.267 99.0337 101.88C98.8403 101.487 98.7437 101.023 98.7437 100.49C98.7437 99.95 98.8403 99.4867 99.0337 99.1C99.227 98.7133 99.5003 98.4167 99.8537 98.21C100.214 97.9967 100.634 97.89 101.114 97.89C101.6 97.89 102.02 97.9967 102.374 98.21C102.734 98.4167 103.01 98.7133 103.204 99.1C103.404 99.4867 103.504 99.95 103.504 100.49C103.504 101.023 103.404 101.487 103.204 101.88C103.01 102.267 102.734 102.567 102.374 102.78C102.02 102.987 101.6 103.09 101.114 103.09ZM101.114 102.43C101.594 102.43 101.974 102.267 102.254 101.94C102.534 101.607 102.674 101.123 102.674 100.49C102.674 99.85 102.53 99.3667 102.244 99.04C101.964 98.7067 101.587 98.54 101.114 98.54C100.64 98.54 100.264 98.7067 99.9837 99.04C99.7037 99.3667 99.5637 99.85 99.5637 100.49C99.5637 101.123 99.7037 101.607 99.9837 101.94C100.264 102.267 100.64 102.43 101.114 102.43ZM104.767 103V95.64H105.577V103H104.767ZM107.149 103V97.98H107.959V103H107.149ZM107.049 96.84V95.93H108.049V96.84H107.049ZM111.592 103.09C111.112 103.09 110.692 102.987 110.332 102.78C109.979 102.567 109.706 102.267 109.512 101.88C109.319 101.487 109.222 101.023 109.222 100.49C109.222 99.95 109.319 99.4867 109.512 99.1C109.706 98.7133 109.979 98.4167 110.332 98.21C110.692 97.9967 111.112 97.89 111.592 97.89C112.079 97.89 112.499 97.9967 112.852 98.21C113.212 98.4167 113.489 98.7133 113.682 99.1C113.882 99.4867 113.982 99.95 113.982 100.49C113.982 101.023 113.882 101.487 113.682 101.88C113.489 102.267 113.212 102.567 112.852 102.78C112.499 102.987 112.079 103.09 111.592 103.09ZM111.592 102.43C112.072 102.43 112.452 102.267 112.732 101.94C113.012 101.607 113.152 101.123 113.152 100.49C113.152 99.85 113.009 99.3667 112.722 99.04C112.442 98.7067 112.066 98.54 111.592 98.54C111.119 98.54 110.742 98.7067 110.462 99.04C110.182 99.3667 110.042 99.85 110.042 100.49C110.042 101.123 110.182 101.607 110.462 101.94C110.742 102.267 111.119 102.43 111.592 102.43ZM114.86 103V101.98H115.88V103H114.86ZM13.88 116V108.95H16.76C17.5 108.95 18.0733 109.127 18.48 109.48C18.8867 109.827 19.09 110.313 19.09 110.94C19.09 111.353 18.9967 111.707 18.81 112C18.63 112.287 18.3733 112.507 18.04 112.66C17.7133 112.813 17.33 112.89 16.89 112.89L17.07 112.76H17.27C17.5433 112.76 17.7867 112.827 18 112.96C18.22 113.093 18.3933 113.317 18.52 113.63L19.52 116H18.61L17.65 113.67C17.5367 113.37 17.3667 113.177 17.14 113.09C16.9133 112.997 16.63 112.95 16.29 112.95H14.71V116H13.88ZM14.71 112.3H16.64C17.1733 112.3 17.5767 112.187 17.85 111.96C18.13 111.727 18.27 111.393 18.27 110.96C18.27 110.527 18.13 110.197 17.85 109.97C17.5767 109.743 17.1733 109.63 16.64 109.63H14.71V112.3ZM22.8364 116.09C22.0497 116.09 21.4297 115.863 20.9764 115.41C20.5231 114.95 20.2964 114.313 20.2964 113.5C20.2964 112.973 20.3964 112.517 20.5964 112.13C20.7964 111.737 21.0764 111.433 21.4364 111.22C21.7964 111 22.2097 110.89 22.6764 110.89C23.1364 110.89 23.5231 110.987 23.8364 111.18C24.1497 111.373 24.3897 111.65 24.5564 112.01C24.7231 112.363 24.8064 112.783 24.8064 113.27V113.57H20.9164V113.06H24.2764L24.1064 113.19C24.1064 112.657 23.9864 112.24 23.7464 111.94C23.5064 111.64 23.1497 111.49 22.6764 111.49C22.1764 111.49 21.7864 111.667 21.5064 112.02C21.2264 112.367 21.0864 112.837 21.0864 113.43V113.52C21.0864 114.147 21.2397 114.623 21.5464 114.95C21.8597 115.27 22.2964 115.43 22.8564 115.43C23.1564 115.43 23.4364 115.387 23.6964 115.3C23.9631 115.207 24.2164 115.057 24.4564 114.85L24.7364 115.42C24.5164 115.633 24.2364 115.8 23.8964 115.92C23.5631 116.033 23.2097 116.09 22.8364 116.09ZM27.9459 116.09C27.5059 116.09 27.1192 115.987 26.7859 115.78C26.4525 115.567 26.1925 115.267 26.0059 114.88C25.8259 114.493 25.7359 114.03 25.7359 113.49C25.7359 112.943 25.8259 112.477 26.0059 112.09C26.1925 111.703 26.4525 111.407 26.7859 111.2C27.1192 110.993 27.5059 110.89 27.9459 110.89C28.3992 110.89 28.7892 111.003 29.1159 111.23C29.4492 111.457 29.6725 111.763 29.7859 112.15H29.6659V108.64H30.4759V116H29.6759V114.8H29.7859C29.6792 115.2 29.4592 115.517 29.1259 115.75C28.7925 115.977 28.3992 116.09 27.9459 116.09ZM28.1159 115.43C28.5892 115.43 28.9692 115.267 29.2559 114.94C29.5425 114.607 29.6859 114.123 29.6859 113.49C29.6859 112.85 29.5425 112.367 29.2559 112.04C28.9692 111.707 28.5892 111.54 28.1159 111.54C27.6425 111.54 27.2625 111.707 26.9759 112.04C26.6959 112.367 26.5559 112.85 26.5559 113.49C26.5559 114.123 26.6959 114.607 26.9759 114.94C27.2625 115.267 27.6425 115.43 28.1159 115.43ZM33.812 116.09C33.2186 116.09 32.7686 115.927 32.462 115.6C32.162 115.273 32.012 114.773 32.012 114.1V110.98H32.822V114.08C32.822 114.54 32.9153 114.88 33.102 115.1C33.2886 115.313 33.5786 115.42 33.972 115.42C34.412 115.42 34.7653 115.277 35.032 114.99C35.2986 114.703 35.432 114.32 35.432 113.84V110.98H36.242V116H35.452V114.87H35.582C35.442 115.257 35.2153 115.557 34.902 115.77C34.5953 115.983 34.232 116.09 33.812 116.09ZM39.9234 116.09C39.4301 116.09 39.0001 115.983 38.6334 115.77C38.2734 115.557 37.9934 115.253 37.7934 114.86C37.6001 114.467 37.5034 114 37.5034 113.46C37.5034 112.913 37.6034 112.45 37.8034 112.07C38.0034 111.683 38.2834 111.39 38.6434 111.19C39.0101 110.99 39.4368 110.89 39.9234 110.89C40.2434 110.89 40.5534 110.947 40.8534 111.06C41.1601 111.173 41.4134 111.333 41.6134 111.54L41.3234 112.12C41.1234 111.927 40.9034 111.783 40.6634 111.69C40.4301 111.597 40.2001 111.55 39.9734 111.55C39.4534 111.55 39.0501 111.713 38.7634 112.04C38.4768 112.367 38.3334 112.843 38.3334 113.47C38.3334 114.09 38.4768 114.57 38.7634 114.91C39.0501 115.25 39.4534 115.42 39.9734 115.42C40.1934 115.42 40.4201 115.377 40.6534 115.29C40.8934 115.203 41.1168 115.06 41.3234 114.86L41.6134 115.43C41.4068 115.643 41.1501 115.807 40.8434 115.92C40.5368 116.033 40.2301 116.09 39.9234 116.09ZM44.897 116.09C44.1103 116.09 43.4903 115.863 43.037 115.41C42.5836 114.95 42.357 114.313 42.357 113.5C42.357 112.973 42.457 112.517 42.657 112.13C42.857 111.737 43.137 111.433 43.497 111.22C43.857 111 44.2703 110.89 44.737 110.89C45.197 110.89 45.5836 110.987 45.897 111.18C46.2103 111.373 46.4503 111.65 46.617 112.01C46.7836 112.363 46.867 112.783 46.867 113.27V113.57H42.977V113.06H46.337L46.167 113.19C46.167 112.657 46.047 112.24 45.807 111.94C45.567 111.64 45.2103 111.49 44.737 111.49C44.237 111.49 43.847 111.667 43.567 112.02C43.287 112.367 43.147 112.837 43.147 113.43V113.52C43.147 114.147 43.3003 114.623 43.607 114.95C43.9203 115.27 44.357 115.43 44.917 115.43C45.217 115.43 45.497 115.387 45.757 115.3C46.0236 115.207 46.277 115.057 46.517 114.85L46.797 115.42C46.577 115.633 46.297 115.8 45.957 115.92C45.6236 116.033 45.2703 116.09 44.897 116.09ZM50.6938 116V112.19C50.6938 111.99 50.6872 111.787 50.6738 111.58C50.6672 111.373 50.6538 111.173 50.6338 110.98H51.4138L51.5138 112.2L51.3738 112.21C51.4405 111.91 51.5572 111.663 51.7238 111.47C51.8905 111.277 52.0872 111.133 52.3138 111.04C52.5405 110.94 52.7772 110.89 53.0238 110.89C53.1238 110.89 53.2105 110.893 53.2838 110.9C53.3638 110.907 53.4372 110.923 53.5038 110.95L53.4938 111.67C53.3938 111.637 53.3005 111.617 53.2138 111.61C53.1338 111.597 53.0405 111.59 52.9338 111.59C52.6405 111.59 52.3838 111.66 52.1638 111.8C51.9505 111.94 51.7872 112.12 51.6738 112.34C51.5672 112.56 51.5138 112.793 51.5138 113.04V116H50.6938ZM54.3466 116V110.98H55.1566V116H54.3466ZM54.2466 109.84V108.93H55.2466V109.84H54.2466ZM58.3995 116.09C57.9995 116.09 57.6261 116.037 57.2795 115.93C56.9328 115.817 56.6461 115.66 56.4195 115.46L56.6995 114.89C56.9461 115.083 57.2128 115.227 57.4995 115.32C57.7928 115.413 58.0961 115.46 58.4095 115.46C58.8095 115.46 59.1095 115.39 59.3095 115.25C59.5161 115.103 59.6195 114.903 59.6195 114.65C59.6195 114.457 59.5528 114.303 59.4195 114.19C59.2928 114.07 59.0828 113.977 58.7895 113.91L57.8595 113.72C57.4328 113.627 57.1128 113.47 56.8995 113.25C56.6861 113.023 56.5795 112.737 56.5795 112.39C56.5795 112.097 56.6561 111.84 56.8095 111.62C56.9628 111.393 57.1861 111.217 57.4795 111.09C57.7728 110.957 58.1161 110.89 58.5095 110.89C58.8761 110.89 59.2128 110.947 59.5195 111.06C59.8328 111.167 60.0928 111.323 60.2995 111.53L60.0095 112.09C59.8095 111.897 59.5795 111.753 59.3195 111.66C59.0661 111.56 58.8028 111.51 58.5295 111.51C58.1361 111.51 57.8395 111.59 57.6395 111.75C57.4461 111.903 57.3495 112.107 57.3495 112.36C57.3495 112.553 57.4095 112.713 57.5295 112.84C57.6561 112.96 57.8495 113.05 58.1095 113.11L59.0395 113.3C59.4928 113.4 59.8295 113.557 60.0495 113.77C60.2761 113.977 60.3895 114.257 60.3895 114.61C60.3895 114.91 60.3061 115.173 60.1395 115.4C59.9728 115.62 59.7395 115.79 59.4395 115.91C59.1461 116.03 58.7995 116.09 58.3995 116.09ZM61.6904 116V108.64H62.5004V113.21H62.5204L64.8504 110.98H65.8704L63.1204 113.6L63.1404 113.19L66.1304 116H65.0804L62.5204 113.64H62.5004V116H61.6904ZM66.7843 116V114.98H67.8043V116H66.7843Z" fill="#5A5A5A"/>
<g filter="url(#filter0_d_1_2695)">
<rect x="20" y="16" width="48" height="48" rx="24" fill="#F4F7FF" shape-rendering="crispEdges"/>
<rect x="32" y="28" width="24" height="24" fill="#F4F7FF"/>
<path d="M54.2328 44.3519C53.9432 44.1986 53.6067 44.1384 53.276 44.1807C52.9454 44.223 52.6393 44.3654 52.4059 44.5856L50.7742 43.7164L52.675 40.6804C52.7075 40.6272 52.7246 40.5672 52.7246 40.5061C52.7246 40.445 52.7075 40.3849 52.675 40.3317L50.7742 37.2958L52.4025 36.4297C52.6366 36.65 52.9436 36.7922 53.275 36.8338C53.6063 36.8755 53.9433 36.8142 54.2328 36.6596C54.4797 36.5305 54.6823 36.3399 54.8174 36.1096C54.9526 35.8793 55.0148 35.6186 54.997 35.3572C54.9793 35.0958 54.8822 34.8443 54.7169 34.6314C54.5517 34.4185 54.3248 34.2528 54.0623 34.1531C53.7998 34.0534 53.5123 34.0238 53.2324 34.0677C52.9526 34.1116 52.6917 34.2272 52.4797 34.4012C52.2676 34.5753 52.1129 34.8009 52.0331 35.0522C51.9534 35.3036 51.9518 35.5705 52.0286 35.8226L50.3969 36.6918L48.4961 33.6597C48.4633 33.6062 48.4157 33.5618 48.3583 33.5308C48.3008 33.4998 48.2354 33.4835 48.1688 33.4834H44.3713V31.7443C44.7276 31.6598 45.0383 31.4582 45.2449 31.1773C45.4516 30.8965 45.5402 30.5558 45.4939 30.2191C45.4477 29.8823 45.2699 29.5727 44.9939 29.3483C44.7179 29.1238 44.3626 29 43.9947 29C43.6268 29 43.2715 29.1238 42.9955 29.3483C42.7195 29.5727 42.5417 29.8823 42.4955 30.2191C42.4493 30.5558 42.5378 30.8965 42.7445 31.1773C42.9512 31.4582 43.2618 31.6598 43.6181 31.7443V33.4834H39.8172C39.7508 33.4844 39.6858 33.5011 39.6285 33.532C39.5712 33.5628 39.5234 33.6068 39.4899 33.6597L37.5932 36.6918L35.9574 35.8226C36.0338 35.5849 36.0364 35.3321 35.9649 35.093C35.9139 34.9162 35.8256 34.7504 35.705 34.6052C35.5844 34.46 35.4338 34.3381 35.2621 34.2467C35.0903 34.1553 34.9007 34.096 34.704 34.0724C34.5074 34.0487 34.3076 34.0611 34.1161 34.1088C33.8933 34.1648 33.6874 34.2673 33.5143 34.4085C33.3412 34.5496 33.2056 34.7255 33.1181 34.9227C33.0305 35.1199 32.9932 35.333 33.0091 35.5456C33.0251 35.7582 33.0938 35.9645 33.21 36.1487C33.3261 36.3329 33.4867 36.49 33.6791 36.6078C33.8716 36.7256 34.0909 36.801 34.32 36.8282C34.5491 36.8553 34.7819 36.8335 35.0004 36.7644C35.2189 36.6953 35.4172 36.5808 35.5801 36.4297L37.2118 37.2958L35.311 40.3317C35.2766 40.3844 35.2585 40.4446 35.2585 40.5061C35.2585 40.5675 35.2766 40.6278 35.311 40.6804L37.2118 43.7164L35.5801 44.5856C35.4177 44.4333 35.2194 44.3177 35.0007 44.2476C34.7819 44.1775 34.5486 44.1549 34.3189 44.1815C34.0891 44.2081 33.8691 44.2832 33.6759 44.4009C33.4827 44.5187 33.3216 44.676 33.2049 44.8606C33.0883 45.0451 33.0194 45.252 33.0035 45.4651C32.9877 45.6782 33.0253 45.8919 33.1134 46.0894C33.2015 46.287 33.3379 46.4631 33.5118 46.6041C33.6857 46.7452 33.8925 46.8474 34.1161 46.9027C34.2444 46.9356 34.3768 46.9526 34.5099 46.9532C34.7745 46.9515 35.0341 46.8862 35.2631 46.7637C35.4353 46.6727 35.5861 46.5508 35.7065 46.4052C35.8269 46.2596 35.9146 46.0933 35.9642 45.916C36.0357 45.6769 36.0331 45.4241 35.9567 45.1864L37.5925 44.3171L39.4892 47.3531C39.523 47.4055 39.5708 47.4489 39.6282 47.4792C39.6856 47.5094 39.7505 47.5254 39.8165 47.5256H43.6174V49.2646C43.2624 49.3492 42.953 49.5503 42.7473 49.8303C42.5415 50.1102 42.4534 50.4498 42.4996 50.7854C42.5458 51.1209 42.7231 51.4294 42.9982 51.653C43.2733 51.8766 43.6274 52 43.994 52C44.3607 52 44.7148 51.8766 44.9899 51.653C45.265 51.4294 45.4422 51.1209 45.4884 50.7854C45.5346 50.4498 45.4466 50.1102 45.2408 49.8303C45.035 49.5503 44.7256 49.3492 44.3706 49.2646V47.5256H48.1681C48.2344 47.5263 48.2997 47.5107 48.3572 47.4803C48.4147 47.45 48.4624 47.4061 48.4954 47.3531L50.3962 44.3171L52.0279 45.1864C51.9653 45.3928 51.9553 45.6097 51.9987 45.8203C52.042 46.0309 52.1376 46.2294 52.2779 46.4002C52.4182 46.571 52.5994 46.7096 52.8074 46.8051C53.0154 46.9006 53.2445 46.9505 53.4768 46.9507C53.6099 46.9496 53.7422 46.9326 53.8706 46.9002C54.0617 46.8531 54.241 46.7717 54.398 46.6608C54.5551 46.5498 54.687 46.4113 54.786 46.2533C54.8858 46.0949 54.9507 45.9199 54.9768 45.7383C55.003 45.5567 54.99 45.3721 54.9386 45.1952C54.8872 45.0182 54.7984 44.8524 54.6772 44.7073C54.5561 44.5621 54.405 44.4405 54.2328 44.3494V44.3519Z" fill="#E76F51"/>
<path d="M47.3774 37.7344V36.7842H41.1953V37.7344H43.7844C43.9242 37.8957 44.0844 38.1275 44.1876 38.4174H41.1953V39.3676H44.238C43.8421 40.2612 41.1953 40.2881 41.1953 40.2881V40.9711L44.7849 44.3562H46.6195L43.9074 41.2384C43.9074 41.2384 45.7744 40.6478 45.9626 39.3676H47.3774V38.4174H45.8853C45.8063 38.1306 45.6881 37.9064 45.5651 37.7344H47.3774Z" fill="white"/>
</g>
<defs>
<filter id="filter0_d_1_2695" x="0" y="0" width="88" height="88" filterUnits="userSpaceOnUse" color-interpolation-filters="sRGB">
<feFlood flood-opacity="0" result="BackgroundImageFix"/>
<feColorMatrix in="SourceAlpha" type="matrix" values="0 0 0 0 0 0 0 0 0 0 0 0 0 0 0 0 0 0 127 0" result="hardAlpha"/>
<feOffset dy="4"/>
<feGaussianBlur stdDeviation="10"/>
<feComposite in2="hardAlpha" operator="out"/>
<feColorMatrix type="matrix" values="0 0 0 0 0 0 0 0 0 0 0 0 0 0 0 0 0 0 0.08 0"/>
<feBlend mode="normal" in2="BackgroundImageFix" result="effect1_dropShadow_1_2695"/>
<feBlend mode="normal" in="SourceGraphic" in2="effect1_dropShadow_1_2695" result="shape"/>
</filter>
</defs>
</svg>
