<svg width="18" height="18" viewBox="0 0 18 18" fill="none" xmlns="http://www.w3.org/2000/svg">
<path d="M15.4794 11.4356L12.7249 15.9237C12.4512 16.3706 12.0889 16.7567 11.6603 17.0582C11.2317 17.3596 10.7458 17.5701 10.2328 17.6766C9.71967 17.7831 9.19022 17.7834 8.67703 17.6774C8.16384 17.5714 7.67775 17.3614 7.24883 17.0604C6.58744 17.557 5.76999 17.8003 4.94465 17.7461C4.11931 17.6918 3.34073 17.3437 2.75002 16.7647C2.15931 16.1857 1.7956 15.4143 1.72478 14.5902C1.65396 13.7662 1.88071 12.944 2.36398 12.2727L1.40337 11.315C0.993413 10.9057 0.681436 10.4089 0.49094 9.86186C0.300445 9.31479 0.236388 8.73167 0.30347 8.15629C0.370551 7.5809 0.567048 7.02819 0.878284 6.53962C1.18952 6.05105 1.60738 5.63932 2.10049 5.33533L6.31255 2.73538C7.45378 2.00512 8.79523 1.6511 10.1482 1.72313C11.5011 1.79517 12.7974 2.28962 13.8547 3.13693L15.0662 1.9274C15.1337 1.85768 15.2143 1.80208 15.3035 1.76384C15.3926 1.7256 15.4885 1.70549 15.5855 1.70467C15.6825 1.70386 15.7787 1.72236 15.8685 1.75909C15.9583 1.79583 16.0399 1.85007 16.1085 1.91864C16.1773 1.98675 16.2315 2.06812 16.2679 2.15783C16.3048 2.24723 16.3233 2.34309 16.3224 2.43978C16.3216 2.53671 16.3014 2.63251 16.263 2.72152C16.2246 2.81052 16.1687 2.89095 16.0988 2.95804L14.8882 4.16659C15.7004 5.18093 16.1907 6.41499 16.296 7.71013C16.4014 9.00528 16.117 10.3033 15.4794 11.4356ZM6.13558 16.0414L3.4199 13.3286C3.20762 13.7076 3.12578 14.1459 3.18692 14.5759C3.24805 15.006 3.4488 15.404 3.75829 15.7088C4.07072 16.005 4.46779 16.1963 4.89415 16.2559C5.3205 16.3155 5.7539 16.2405 6.13558 16.0414ZM13.3812 4.66539C12.5693 3.84777 11.5017 3.33324 10.3564 3.20761C9.21102 3.08198 8.05725 3.35286 7.08747 3.97506L2.86859 6.57502C2.56283 6.76357 2.30375 7.01889 2.11076 7.32187C1.91776 7.62485 1.79584 7.96761 1.75421 8.32441C1.71258 8.68122 1.75229 9.04281 1.87035 9.38209C1.98841 9.72136 2.18182 10.0295 2.43597 10.2834L7.76027 15.5999C8.01512 15.8547 8.32439 16.0484 8.6648 16.1665C9.00521 16.2846 9.36797 16.3241 9.72583 16.282C10.0837 16.2399 10.4273 16.1173 10.731 15.9234C11.0347 15.7295 11.2906 15.4693 11.4793 15.1624L14.2222 10.6957C14.7573 9.73508 14.9648 8.6262 14.813 7.53714C14.6612 6.44809 14.1586 5.43822 13.3812 4.66055V4.66539ZM14.3156 17.7556C14.1615 17.756 14.0112 17.7076 13.8864 17.6174C13.7615 17.5271 13.6685 17.3997 13.6205 17.2533C13.5726 17.1068 13.5722 16.949 13.6195 16.8024C13.6668 16.6557 13.7594 16.5279 13.8839 16.4371C15.1625 15.4782 16.0281 14.0685 16.3049 12.4944C16.3246 12.3998 16.3628 12.31 16.4174 12.2302C16.4719 12.1504 16.5417 12.0822 16.6228 12.0296C16.7042 11.9773 16.7951 11.9413 16.8902 11.9237C16.9869 11.9061 17.086 11.9081 17.1819 11.9295C17.2766 11.9499 17.3663 11.9893 17.4454 12.0452C17.5651 12.1284 17.6569 12.2457 17.709 12.3818C17.761 12.518 17.7708 12.6666 17.7371 12.8084C17.379 14.7285 16.3134 16.4443 14.7511 17.6165C14.6246 17.7084 14.4719 17.7571 14.3156 17.7556ZM0.9765 4.43495C0.841748 4.43437 0.709765 4.39656 0.59515 4.3257C0.480534 4.25484 0.387775 4.15368 0.32703 4.0334C0.266929 3.91292 0.241178 3.77821 0.252671 3.64406C0.264164 3.50992 0.312413 3.38156 0.392131 3.27307C1.58409 1.6832 3.33719 0.607393 5.29449 0.264731C5.48402 0.226051 5.68117 0.264259 5.84254 0.370929C6.00391 0.477599 6.11631 0.644016 6.15499 0.833552C6.19367 1.02309 6.15549 1.22023 6.04882 1.3816C5.94215 1.54297 5.77576 1.65534 5.58623 1.69402C3.97825 1.96002 2.53549 2.83767 1.55992 4.14327C1.49256 4.23469 1.40459 4.30896 1.30319 4.36009C1.2015 4.40984 1.08971 4.43545 0.9765 4.43495Z" fill="#3C5BFA"/>
</svg>
