<svg width="144" height="148" viewBox="0 0 144 148" fill="none" xmlns="http://www.w3.org/2000/svg">
<path fill-rule="evenodd" clip-rule="evenodd" d="M68.7842 44.3713C62.9539 46.4206 57.4121 50.8084 53.0469 54.8993C43.9563 63.418 42.5997 65.2088 31.3849 72.3607C24.8485 76.5291 19.6956 80.0541 17.1565 84.7692C10.0243 98.0134 18.5199 112.318 36.3207 112.318H108.684C108.684 112.318 117.196 112.5 123.407 105.421C144.461 81.4279 109.542 30.0449 68.7842 44.3713Z" fill="#ECF4FF"/>
<path d="M106.55 109.505C106.55 109.505 103.627 107.456 104.477 105.229C105.327 103.001 107.865 103.698 107.816 101.814C107.767 99.9278 106.543 96.7902 108.529 95.0142C110.514 93.2374 113.047 94.9577 113.918 91.814C114.619 89.2797 116.074 87.6543 118.221 88.5841C120.209 89.4451 121.478 91.3743 120.868 95.3233C120.218 99.5274 123.271 98.8509 122.797 101.949C122.32 105.07 119.921 104.647 118.641 106.571C118.037 107.48 118.619 111.151 115.133 111.018L106.55 109.505Z" fill="#C3DCFA"/>
<path d="M117.599 90.2025C117.598 90.2025 117.595 90.2748 117.585 90.4141C117.552 90.8337 117.46 91.8531 117.229 93.2565C116.554 97.3622 114.694 104.749 109.758 110.038C109.75 110.048 109.742 110.057 109.736 110.068L110.15 110.141C115.061 104.771 116.9 97.4197 117.576 93.3175C117.886 91.4292 117.95 90.2278 117.95 90.2225C117.955 90.1224 117.881 90.0371 117.784 90.031C117.687 90.0249 117.605 90.1024 117.599 90.2025Z" fill="white"/>
<path fill-rule="evenodd" clip-rule="evenodd" d="M109.588 112.115C109.588 112.115 110.329 107.237 112.39 106.407C114.451 105.576 116.51 105.009 116.61 103.103C116.711 101.196 117.584 99.0799 120.587 99.5666C122.444 99.8669 122.081 97.7244 124.029 97.653C125.213 97.6104 125.765 98.978 125.711 100.217C125.65 101.628 124.671 102.852 125.352 104.13C126.237 105.786 126.247 108.586 123.701 108.933C121.154 109.281 123.082 112.346 119.731 112.115L118.556 112.069L109.588 112.115Z" fill="#DAEDFF"/>
<path d="M123.681 98.985C123.319 100.79 122.115 103.238 120.377 105.468C118.64 107.701 115.193 110.906 112.715 111.895C112.678 111.91 112.648 111.936 112.63 111.967L113.223 112.072C115.63 111.003 118.972 107.852 120.65 105.696C122.417 103.425 123.641 100.95 124.025 99.0599C124.043 98.9615 123.983 98.8649 123.888 98.8448C123.842 98.8355 123.795 98.845 123.756 98.8712C123.718 98.8974 123.691 98.9383 123.681 98.985Z" fill="white"/>
<path d="M53.3078 111.683C53.3078 111.683 58.2217 109.37 57.4921 105.79C56.7633 102.207 52.7675 102.585 53.3078 99.7564C53.8481 96.9278 56.4721 92.5253 53.9205 89.3198C51.3688 86.1151 47.1256 88.0365 46.5938 83.0663C46.1646 79.0616 44.3762 76.2252 40.9098 77.0567C37.7009 77.8271 35.3083 80.3962 35.2494 86.5086C35.1846 93.0171 30.7546 91.188 30.6999 95.9824C30.6444 100.812 34.3624 100.812 35.815 104.051C36.5008 105.581 34.7125 110.959 39.9984 111.683H53.3078Z" fill="#C3DCFA"/>
<path d="M41.4476 79.6614C41.4476 79.6623 41.435 79.7703 41.4164 79.9836C41.3609 80.6243 41.2481 82.1853 41.2481 84.3618C41.2465 90.7275 42.2176 102.354 48.3426 111.635C48.3535 111.65 48.3619 111.668 48.3686 111.684H47.7274C41.6588 102.288 40.7137 90.7231 40.7112 84.3618C40.7112 81.434 40.9132 79.6066 40.914 79.5979C40.9309 79.4455 41.063 79.3367 41.2111 79.3533C41.2819 79.3618 41.3466 79.399 41.3909 79.4568C41.4353 79.5145 41.4556 79.5882 41.4476 79.6614Z" fill="white"/>
<path fill-rule="evenodd" clip-rule="evenodd" d="M47.4025 111.683C47.4025 111.683 48.1759 107.263 45.275 105.464C42.3758 103.664 39.4135 102.264 39.7358 99.3637C40.0573 96.4638 39.2662 93.0415 34.6191 92.9771C31.7468 92.9379 32.8257 89.8055 29.9072 89.1813C28.1331 88.8009 26.9633 90.717 26.737 92.5975C26.4786 94.74 27.6509 96.8451 26.3061 98.5906C24.5615 100.852 23.8529 105.067 27.6029 106.267C31.353 107.467 28.0111 111.139 33.1177 111.683H47.4025V111.683Z" fill="#CEE8FF"/>
<path d="M30.5989 93.4167C30.6965 96.2322 31.4077 98.1057 33.4737 101.928C35.5372 105.756 38.4583 109.403 41.9466 111.553C41.998 111.584 42.0358 111.631 42.0577 111.684H41.1362C37.775 109.434 34.9995 105.894 33.0067 102.2C30.9086 98.3086 30.1714 96.3889 30.0637 93.4376C30.0613 93.3639 30.0872 93.2922 30.1357 93.2382C30.1843 93.1841 30.2516 93.1523 30.3229 93.1495C30.3937 93.1471 30.4626 93.1739 30.5143 93.224C30.5661 93.2741 30.5965 93.3435 30.5989 93.4167Z" fill="white"/>
<path fill-rule="evenodd" clip-rule="evenodd" d="M91.9871 106.92H109.6V109.257H91.9871V106.92Z" fill="#F9A51A"/>
<path fill-rule="evenodd" clip-rule="evenodd" d="M107.368 106.92H109.6V109.257H107.368V106.92Z" fill="#F9A51A"/>
<path fill-rule="evenodd" clip-rule="evenodd" d="M105.11 106.92H107.369V109.257H105.11V106.92Z" fill="#FFD113"/>
<path fill-rule="evenodd" clip-rule="evenodd" d="M96.9894 106.92H105.11V109.257H96.9894V106.92Z" fill="#F9A719"/>
<path fill-rule="evenodd" clip-rule="evenodd" d="M93.5743 106.92H96.9894V109.257H93.5743V106.92Z" fill="#EB8323"/>
<path fill-rule="evenodd" clip-rule="evenodd" d="M92.822 109.257H108.74V109.48H92.822V109.257Z" fill="#DE6426"/>
<path fill-rule="evenodd" clip-rule="evenodd" d="M94.1559 109.48H111.769V111.817H94.1559V109.48Z" fill="#F9A51A"/>
<path fill-rule="evenodd" clip-rule="evenodd" d="M109.536 109.48H111.769V111.817H109.536V109.48Z" fill="#F9A51A"/>
<path fill-rule="evenodd" clip-rule="evenodd" d="M107.278 109.48H109.536V111.817H107.278V109.48Z" fill="#FFD113"/>
<path fill-rule="evenodd" clip-rule="evenodd" d="M99.1582 109.48H107.279V111.817H99.1582V109.48Z" fill="#F9A719"/>
<path fill-rule="evenodd" clip-rule="evenodd" d="M95.7422 109.48H99.1573V111.817H95.7422V109.48Z" fill="#EB8323"/>
<path fill-rule="evenodd" clip-rule="evenodd" d="M94.9899 111.817H110.908V112.039H94.9899V111.817Z" fill="#DE6426"/>
<path fill-rule="evenodd" clip-rule="evenodd" d="M94.1559 104.362H111.769V106.698H94.1559V104.362Z" fill="#F9A51A"/>
<path fill-rule="evenodd" clip-rule="evenodd" d="M109.536 104.362H111.769V106.698H109.536V104.362Z" fill="#F9A51A"/>
<path fill-rule="evenodd" clip-rule="evenodd" d="M107.278 104.362H109.536V106.698H107.278V104.362Z" fill="#FFD113"/>
<path fill-rule="evenodd" clip-rule="evenodd" d="M99.1582 104.362H107.279V106.698H99.1582V104.362Z" fill="#F9A719"/>
<path fill-rule="evenodd" clip-rule="evenodd" d="M95.7422 104.362H99.1573V106.698H95.7422V104.362Z" fill="#EB8323"/>
<path fill-rule="evenodd" clip-rule="evenodd" d="M94.9899 106.698H110.908V106.921H94.9899V106.698Z" fill="#DE6426"/>
<path fill-rule="evenodd" clip-rule="evenodd" d="M91.9871 99.2427H109.6V101.579H91.9871V99.2427Z" fill="#F9A51A"/>
<path fill-rule="evenodd" clip-rule="evenodd" d="M107.368 99.2427H109.6V101.579H107.368V99.2427Z" fill="#F9A51A"/>
<path fill-rule="evenodd" clip-rule="evenodd" d="M105.11 99.2427H107.369V101.579H105.11V99.2427Z" fill="#FFD113"/>
<path fill-rule="evenodd" clip-rule="evenodd" d="M96.9894 99.2427H105.11V101.579H96.9894V99.2427Z" fill="#F9A719"/>
<path fill-rule="evenodd" clip-rule="evenodd" d="M93.5743 99.2427H96.9894V101.579H93.5743V99.2427Z" fill="#EB8323"/>
<path fill-rule="evenodd" clip-rule="evenodd" d="M92.822 101.579H108.74V101.802H92.822V101.579Z" fill="#DE6426"/>
<path fill-rule="evenodd" clip-rule="evenodd" d="M94.1559 101.802H111.769V104.14H94.1559V101.802Z" fill="#F9A51A"/>
<path fill-rule="evenodd" clip-rule="evenodd" d="M109.536 101.802H111.769V104.14H109.536V101.802Z" fill="#F9A51A"/>
<path fill-rule="evenodd" clip-rule="evenodd" d="M107.278 101.802H109.536V104.14H107.278V101.802Z" fill="#FFD113"/>
<path fill-rule="evenodd" clip-rule="evenodd" d="M99.1582 101.802H107.279V104.14H99.1582V101.802Z" fill="#F9A719"/>
<path fill-rule="evenodd" clip-rule="evenodd" d="M95.7422 101.802H99.1573V104.14H95.7422V101.802Z" fill="#EB8323"/>
<path fill-rule="evenodd" clip-rule="evenodd" d="M94.9899 104.14H110.908V104.362H94.9899V104.14Z" fill="#DE6426"/>
<path fill-rule="evenodd" clip-rule="evenodd" d="M94.1559 96.6841H111.769V99.0216H94.1559V96.6841Z" fill="#F9A51A"/>
<path fill-rule="evenodd" clip-rule="evenodd" d="M109.536 96.6841H111.769V99.0216H109.536V96.6841Z" fill="#F9A51A"/>
<path fill-rule="evenodd" clip-rule="evenodd" d="M107.278 96.6841H109.536V99.0216H107.278V96.6841Z" fill="#FFD113"/>
<path fill-rule="evenodd" clip-rule="evenodd" d="M99.1582 96.6841H107.279V99.0216H99.1582V96.6841Z" fill="#F9A719"/>
<path fill-rule="evenodd" clip-rule="evenodd" d="M95.7422 96.6841H99.1573V99.0216H95.7422V96.6841Z" fill="#EB8323"/>
<path fill-rule="evenodd" clip-rule="evenodd" d="M94.9899 99.0207H110.908V99.2427H94.9899V99.0207Z" fill="#DE6426"/>
<path fill-rule="evenodd" clip-rule="evenodd" d="M91.9871 91.7887H109.6V94.1245H91.9871V91.7887Z" fill="#F9A51A"/>
<path fill-rule="evenodd" clip-rule="evenodd" d="M107.368 91.7887H109.6V94.1245H107.368V91.7887Z" fill="#F9A51A"/>
<path fill-rule="evenodd" clip-rule="evenodd" d="M105.11 91.7887H107.369V94.1245H105.11V91.7887Z" fill="#FFD113"/>
<path fill-rule="evenodd" clip-rule="evenodd" d="M96.9894 91.7887H105.11V94.1245H96.9894V91.7887Z" fill="#F9A719"/>
<path fill-rule="evenodd" clip-rule="evenodd" d="M93.5743 91.7887H96.9894V94.1245H93.5743V91.7887Z" fill="#EB8323"/>
<path fill-rule="evenodd" clip-rule="evenodd" d="M92.822 94.1245H108.74V94.3483H92.822V94.1245Z" fill="#DE6426"/>
<path fill-rule="evenodd" clip-rule="evenodd" d="M93.2251 94.3483H110.837V96.6841H93.2251V94.3483Z" fill="#F9A51A"/>
<path fill-rule="evenodd" clip-rule="evenodd" d="M108.606 94.3483H110.838V96.6841H108.606V94.3483Z" fill="#F9A51A"/>
<path fill-rule="evenodd" clip-rule="evenodd" d="M106.348 94.3483H108.606V96.6841H106.348V94.3483Z" fill="#FFD113"/>
<path fill-rule="evenodd" clip-rule="evenodd" d="M98.2274 94.3483H106.348V96.6841H98.2274V94.3483Z" fill="#F9A719"/>
<path fill-rule="evenodd" clip-rule="evenodd" d="M94.8123 94.3483H98.2282V96.6841H94.8123V94.3483Z" fill="#EB8323"/>
<path fill-rule="evenodd" clip-rule="evenodd" d="M94.0599 96.6841H109.978V96.9078H94.0599V96.6841Z" fill="#DE6426"/>
<path fill-rule="evenodd" clip-rule="evenodd" d="M94.1559 89.2292H111.769V91.5658H94.1559V89.2292Z" fill="#F9A51A"/>
<path fill-rule="evenodd" clip-rule="evenodd" d="M109.536 89.2292H111.769V91.5658H109.536V89.2292Z" fill="#F9A51A"/>
<path fill-rule="evenodd" clip-rule="evenodd" d="M107.278 89.2292H109.536V91.5658H107.278V89.2292Z" fill="#FFD113"/>
<path fill-rule="evenodd" clip-rule="evenodd" d="M99.1582 89.2292H107.279V91.5658H99.1582V89.2292Z" fill="#F9A719"/>
<path fill-rule="evenodd" clip-rule="evenodd" d="M95.7422 89.2292H99.1573V91.5658H95.7422V89.2292Z" fill="#EB8323"/>
<path fill-rule="evenodd" clip-rule="evenodd" d="M94.9899 91.5659H110.908V91.7887H94.9899V91.5659Z" fill="#DE6426"/>
<path fill-rule="evenodd" clip-rule="evenodd" d="M91.9871 84.1101H109.6V86.4468H91.9871V84.1101Z" fill="#F9A51A"/>
<path fill-rule="evenodd" clip-rule="evenodd" d="M107.368 84.1101H109.6V86.4468H107.368V84.1101Z" fill="#F9A51A"/>
<path fill-rule="evenodd" clip-rule="evenodd" d="M105.11 84.1101H107.369V86.4468H105.11V84.1101Z" fill="#FFD113"/>
<path fill-rule="evenodd" clip-rule="evenodd" d="M96.9894 84.1101H105.11V86.4468H96.9894V84.1101Z" fill="#F9A719"/>
<path fill-rule="evenodd" clip-rule="evenodd" d="M93.5743 84.1101H96.9894V86.4468H93.5743V84.1101Z" fill="#EB8323"/>
<path fill-rule="evenodd" clip-rule="evenodd" d="M92.822 86.4468H108.74V86.6697H92.822V86.4468Z" fill="#DE6426"/>
<path fill-rule="evenodd" clip-rule="evenodd" d="M94.1559 86.6697H111.769V89.0063H94.1559V86.6697Z" fill="#F9A51A"/>
<path fill-rule="evenodd" clip-rule="evenodd" d="M109.536 86.6697H111.769V89.0063H109.536V86.6697Z" fill="#F9A51A"/>
<path fill-rule="evenodd" clip-rule="evenodd" d="M107.278 86.6697H109.536V89.0063H107.278V86.6697Z" fill="#FFD113"/>
<path fill-rule="evenodd" clip-rule="evenodd" d="M99.1582 86.6697H107.279V89.0063H99.1582V86.6697Z" fill="#F9A719"/>
<path fill-rule="evenodd" clip-rule="evenodd" d="M95.7422 86.6697H99.1573V89.0063H95.7422V86.6697Z" fill="#EB8323"/>
<path fill-rule="evenodd" clip-rule="evenodd" d="M94.9899 89.0063H110.908V89.2292H94.9899V89.0063Z" fill="#DE6426"/>
<path d="M100.556 90.6543C100.324 90.1546 99.9778 89.6906 99.5318 89.3493C99.2524 89.7925 99.0681 90.3078 98.9722 90.8267C98.8939 91.2559 98.8754 91.6816 98.9141 92.0673C98.952 92.4373 99.0412 92.7681 99.1775 93.0232C99.3744 93.3889 99.6934 93.5917 100.122 93.4829C100.608 93.3601 100.858 92.897 100.899 92.3215H100.9C100.936 91.807 100.816 91.2115 100.556 90.6543ZM94.8502 89.9997C94.6288 90.1694 94.3233 90.1076 94.1685 89.8621C94.0162 89.6166 94.0717 89.2797 94.2939 89.1099C96.317 87.5681 98.0212 87.4349 99.3038 87.9956C99.7767 87.522 100.377 87.1746 101.109 87.037C103.509 86.3945 105.384 89.7568 105.021 90.7092C104.574 90.1746 103.767 87.5455 101.276 88.1035C100.895 88.1731 100.536 88.3335 100.226 88.5719C100.744 89.0054 101.147 89.5644 101.426 90.1625C101.768 90.8964 101.924 91.6973 101.873 92.4051V92.4068H101.875C101.802 93.4437 101.308 94.2899 100.341 94.5337C99.4249 94.7653 98.7475 94.3404 98.3359 93.5708C98.1272 93.1834 97.9951 92.7063 97.9429 92.1883C97.8916 91.6869 97.9126 91.1445 98.0111 90.6108C98.1197 90.0136 98.3258 89.419 98.628 88.8888C97.6534 88.605 96.3818 88.8322 94.8502 89.9997Z" fill="#DC455A"/>
<mask id="mask0_1_367" style="mask-type:luminance" maskUnits="userSpaceOnUse" x="48" y="68" width="51" height="42">
<path d="M65.2673 108.164C64.4162 107.91 63.5768 107.616 62.7519 107.283C55.2367 104.241 49.838 98.1884 48.8643 91.0322C48.76 90.2661 48.7044 89.4886 48.7044 88.6999C48.7044 82.1409 52.4056 76.2949 58.1788 72.5052C59.5379 71.6129 61.0132 70.8345 62.5811 70.1877C64.6681 69.3267 66.9202 68.6981 69.2892 68.3447C70.7468 68.127 72.249 68.013 73.7832 68.013C75.861 68.013 77.8791 68.2228 79.8097 68.6154C83.2988 69.3258 86.5001 70.6369 89.2428 72.4103C89.6459 72.6715 90.0389 72.9431 90.4218 73.2234C90.9529 73.6126 91.4654 74.0192 91.9543 74.4431C92.5459 74.9559 93.1056 75.4948 93.6316 76.0563C93.9219 76.3654 94.2013 76.6823 94.4698 77.0053C94.5851 77.1437 94.6987 77.2839 94.8106 77.4249C94.8502 77.4745 94.8897 77.5241 94.9284 77.5738C95.1178 77.8184 95.3013 78.0674 95.478 78.319C95.5756 78.4583 95.6715 78.5985 95.7658 78.7395C95.8912 78.9275 96.0141 79.1173 96.1327 79.3088C96.2404 79.483 96.3448 79.6597 96.4475 79.8373C96.556 80.0253 96.6604 80.2151 96.7614 80.4067C96.8279 80.5329 96.8935 80.6591 96.9575 80.7862L96.9709 80.8124V80.8132C97.0475 80.9656 97.1216 81.1188 97.1931 81.2729V81.2738C97.3118 81.5288 97.4262 81.7857 97.5331 82.046V82.0469C97.5735 82.1452 97.6122 82.2453 97.6509 82.3446V82.3455C97.7729 82.658 97.8866 82.9749 97.9909 83.2935L98.0035 83.3327V83.3336C98.0296 83.4145 98.0565 83.4955 98.0818 83.5765V83.5773C98.1373 83.7567 98.1887 83.9369 98.2383 84.118V84.1197H98.2392C98.3056 84.3617 98.3662 84.6064 98.4218 84.851C98.4445 84.9494 98.4664 85.0486 98.4874 85.1479V85.1496C98.5101 85.2576 98.532 85.3655 98.5531 85.4744V85.4752C98.5859 85.6502 98.617 85.8252 98.6448 86.0019V86.0037L98.6574 86.082V86.0855C98.6625 86.116 98.6658 86.1465 98.67 86.1769V86.1804H98.6709L98.6835 86.2718V86.2753H98.6844C98.7029 86.4059 98.7205 86.5365 98.7365 86.6679C98.7416 86.708 98.7449 86.7489 98.75 86.7898C98.7542 86.8299 98.7584 86.8708 98.7635 86.9108V86.9117C98.7677 86.9517 98.7727 86.9927 98.7761 87.0327V87.0336C98.7862 87.1363 98.7938 87.2399 98.8022 87.3435V87.3452C98.8123 87.4689 98.8207 87.5934 98.8283 87.7179V87.7248C98.8333 87.8171 98.8375 87.9094 98.8409 88.0025V88.0095C98.8476 88.1819 98.8518 88.3551 98.8535 88.5293V88.5519C98.8544 88.6015 98.856 88.6503 98.856 88.6999C98.856 88.746 98.8544 88.7913 98.8544 88.8366H98.8535V88.8705C98.8518 89.0446 98.8476 89.2188 98.8409 89.3929V89.3972C98.8375 89.4904 98.8333 89.5844 98.8283 89.6776V89.6819L98.8156 89.8813V89.8856C98.7938 90.2069 98.7635 90.5264 98.7239 90.8433V90.8459L98.7113 90.9382V90.9399L98.6987 91.0331V91.0348L98.686 91.128V91.1288L98.6734 91.2229V91.2237L98.6608 91.3177V91.3186C98.6448 91.4231 98.6263 91.5258 98.6086 91.6294V91.6303C98.5951 91.7069 98.5834 91.7835 98.5691 91.8601V91.861C98.5489 91.9698 98.5261 92.0778 98.5043 92.1857V92.1875C98.4125 92.6349 98.3031 93.0772 98.1769 93.5142C98.1601 93.5734 98.1424 93.6318 98.1247 93.6901V93.691C98.0986 93.7763 98.0734 93.8625 98.0464 93.9478V93.9487C98.0422 93.9617 98.038 93.9748 98.033 93.9887C97.9867 94.1341 97.9387 94.2786 97.8891 94.4223C97.8764 94.4588 97.863 94.4945 97.8504 94.5311V94.532C97.8377 94.5677 97.8243 94.6042 97.8117 94.6399V94.6408C97.7771 94.7357 97.7426 94.8306 97.7073 94.9246V94.9255C97.661 95.0473 97.613 95.1692 97.5634 95.2911V95.292C97.5045 95.4374 97.443 95.581 97.3799 95.7247L97.3143 95.8735C97.1466 96.2452 96.9675 96.6114 96.7774 96.9713C96.6882 97.1394 96.5964 97.3065 96.5022 97.4728C96.3961 97.6591 96.2876 97.8445 96.1748 98.0282C96.1361 98.0918 96.0965 98.1545 96.057 98.218C96.0486 98.232 96.0393 98.245 96.0309 98.2589V98.2598C95.7027 98.7787 95.3484 99.2854 94.9697 99.7773C94.8544 99.9279 94.7366 100.077 94.6162 100.224C94.4715 100.402 94.3225 100.578 94.171 100.752C93.8815 101.085 93.5794 101.41 93.2672 101.728C92.5904 102.415 91.8728 103.058 91.1187 103.653C86.6154 107.208 80.5098 109.39 73.7857 109.39C70.7931 109.388 67.9259 108.955 65.2673 108.164Z" fill="white"/>
</mask>
<g mask="url(#mask0_1_367)">
<path d="M48.7044 68.013H98.8611V109.389H48.7044V68.013Z" fill="url(#paint0_linear_1_367)"/>
</g>
<path fill-rule="evenodd" clip-rule="evenodd" d="M81.0552 71.3734C76.0167 69.7298 71.6708 69.8151 66.9463 71.2994L67.2938 72.688C67.4773 72.6384 68.5276 72.3311 68.7136 72.2867C72.1303 71.4701 75.8029 71.5014 79.2046 72.3833C79.3333 72.4164 80.5772 72.7272 80.7042 72.7638L81.0552 71.3734Z" fill="#E41F26"/>
<path fill-rule="evenodd" clip-rule="evenodd" d="M83.3182 112.033V103.233L82.8688 103.998C81.3565 105.116 79.3367 106.381 77.0847 107.21L77.5946 111.011L77.7756 112.034H83.3182V112.033Z" fill="#E16071"/>
<path fill-rule="evenodd" clip-rule="evenodd" d="M83.3182 107.46V103.763C83.1776 103.828 83.0362 103.893 82.894 103.955L82.8688 103.998C81.3565 105.116 79.3367 106.381 77.0847 107.21L77.4255 109.751C79.5681 109.035 81.4861 108.399 83.3182 107.46Z" fill="#C72F49"/>
<path fill-rule="evenodd" clip-rule="evenodd" d="M55.0945 70.1172L55.0961 70.118C55.2527 70.2765 55.4277 70.4567 55.6171 70.6543C55.8872 70.7736 58.7149 74.2464 58.6753 74.343C58.6888 74.3491 59.3856 75.4182 59.3705 75.4556C59.3823 75.4608 59.4462 75.5862 59.4572 75.6071L59.4563 75.6088L59.4588 75.6097C59.5388 75.7577 59.6145 75.9057 59.6835 76.052L59.6827 76.0546L59.6861 76.0555L59.7037 76.0938L59.7012 76.1007L59.7079 76.1042C59.7601 76.2165 59.8098 76.3271 59.8552 76.4376C59.8771 76.4899 59.8973 76.5421 59.9167 76.5944C59.9167 76.5944 59.2804 77.0497 58.2318 77.4171H58.231C58.135 77.451 58.0349 77.4841 57.9314 77.5154H57.9306V77.5163C57.8624 77.5372 57.7925 77.5572 57.7218 77.5773L57.7193 77.5764L57.7185 77.5781C57.6124 77.6077 57.5022 77.6356 57.3903 77.6626L57.3869 77.6617L57.3861 77.6634C57.1327 77.7226 56.866 77.7731 56.5857 77.8097L56.5832 77.8088L56.5824 77.8106C56.4679 77.8254 56.3518 77.8376 56.2331 77.848H56.2323L56.1582 77.8541L56.1557 77.8532L56.1548 77.855L56.0816 77.8602L56.0783 77.8593V77.8602L56.0042 77.8645L56.0017 77.8637V77.8645C55.8662 77.8715 55.7298 77.875 55.5893 77.875L55.5885 77.8741L55.5876 77.875C54.807 77.8743 54.0311 77.7486 53.2876 77.5024L54.3219 69.3659L54.3227 69.365L54.3236 69.3659L54.3244 69.3685C54.3564 69.3928 54.651 69.6688 55.0945 70.1172Z" fill="#ED9EA9"/>
<path fill-rule="evenodd" clip-rule="evenodd" d="M58.2503 112.033V103.233L58.6997 103.998C60.2129 105.116 62.2318 106.381 64.4838 107.21L63.9739 111.011L63.7938 112.034H58.2503V112.033Z" fill="#E16071"/>
<path fill-rule="evenodd" clip-rule="evenodd" d="M58.2503 106.59V103.763C58.39 103.828 58.5314 103.893 58.6745 103.955L58.6989 103.998C60.212 105.116 62.231 106.381 64.483 107.21L64.1885 109.41C62.0467 108.694 60.0505 107.741 58.2503 106.59Z" fill="#C72F49"/>
<path fill-rule="evenodd" clip-rule="evenodd" d="M57.0511 67.7283L57.052 67.7291C57.2093 67.8876 57.3852 68.0678 57.5737 68.2654C57.8447 68.3847 60.6715 71.8575 60.632 71.9541C60.6454 71.9602 61.3423 73.0293 61.3271 73.0667C61.3381 73.072 61.4029 73.1973 61.4138 73.2182L61.413 73.2208L61.4155 73.2217C61.4954 73.3697 61.5712 73.5177 61.6402 73.664L61.6393 73.6666L61.6419 73.6674L61.6604 73.7057L61.657 73.7127L61.6646 73.7162C61.7168 73.8285 61.7664 73.9399 61.8119 74.0496C61.8337 74.1019 61.8539 74.1541 61.8733 74.2063C61.8733 74.2063 61.2379 74.6616 60.1885 75.029H60.1876C60.0917 75.063 59.9915 75.0961 59.888 75.1274H59.8872V75.1283C59.819 75.1492 59.7492 75.1692 59.6785 75.1892L59.676 75.1884L59.6751 75.1901C59.5691 75.2197 59.4588 75.2476 59.3469 75.2745L59.3435 75.2737L59.3427 75.2754C59.0894 75.3346 58.8226 75.3851 58.5424 75.4217L58.5398 75.4208L58.539 75.4225C58.4245 75.4373 58.3084 75.4495 58.1897 75.46H58.1889L58.1149 75.4652L58.1123 75.4643L58.1115 75.4652L58.0383 75.4696L58.0349 75.4687L58.0341 75.4696L57.9608 75.4739L57.9583 75.473L57.9575 75.4739C57.8228 75.4809 57.6857 75.4843 57.546 75.4843L57.5443 75.4835V75.4843C57.4837 75.4843 57.4231 75.4835 57.3616 75.4817C56.6968 75.4652 55.9848 75.3564 55.2443 75.1126L56.2785 66.9761V66.9752L56.2802 66.9761L56.2811 66.9787C56.3122 67.0039 56.6068 67.2799 57.0511 67.7283Z" fill="#ED9EA9"/>
<mask id="mask1_1_367" style="mask-type:luminance" maskUnits="userSpaceOnUse" x="44" y="81" width="8" height="16">
<path d="M44.0354 88.4143C44.0329 88.5693 44.0312 88.7234 44.0312 88.8783C44.0304 88.7234 44.032 88.5693 44.0354 88.4143ZM44.0539 87.7927C44.0514 87.8484 44.0497 87.9041 44.0472 87.9599C44.0497 87.9041 44.0514 87.8484 44.0539 87.7927ZM44.0665 87.5359L44.0564 87.7448C44.059 87.6752 44.0623 87.6055 44.0665 87.5359ZM44.0809 87.2782C44.0766 87.3461 44.0724 87.414 44.0691 87.4819C44.0733 87.4131 44.0766 87.3461 44.0809 87.2782ZM44.0901 87.1328C44.0876 87.1746 44.0842 87.2164 44.0817 87.2573C44.0851 87.2164 44.0876 87.1746 44.0901 87.1328ZM44.1313 86.6113C44.1238 86.7036 44.1154 86.795 44.1086 86.8873C44.1154 86.795 44.1229 86.7027 44.1313 86.6113ZM44.1473 86.4381C44.1448 86.4677 44.1423 86.4973 44.1389 86.526C44.1423 86.4964 44.1448 86.4668 44.1473 86.4381ZM44.1608 86.3023L44.1482 86.4363L44.1608 86.3023ZM44.1726 86.1839L44.1608 86.3014L44.1726 86.1839ZM44.213 85.8278C44.2029 85.9088 44.1936 85.9906 44.1852 86.0724C44.1936 85.9906 44.2037 85.9088 44.213 85.8278ZM44.2222 85.7564L44.2138 85.8261L44.2222 85.7564ZM44.2525 85.5161C44.245 85.571 44.2382 85.6258 44.2315 85.6807C44.2382 85.6258 44.245 85.571 44.2525 85.5161ZM44.2643 85.4212L44.2525 85.5118L44.2643 85.4212ZM44.2778 85.3263L44.266 85.4134L44.2778 85.3263ZM44.2912 85.2314L44.2795 85.3168L44.2912 85.2314ZM44.3047 85.1365L44.2921 85.2236L44.3047 85.1365ZM44.3182 85.0451L44.3055 85.1331L44.3182 85.0451ZM44.3308 84.9607L44.3224 85.0164L44.3308 84.9607ZM44.3628 84.7596C44.3518 84.8266 44.3417 84.8928 44.3316 84.9598C44.3417 84.8937 44.3518 84.8266 44.3628 84.7596ZM44.4023 84.5228L44.3687 84.7239L44.4023 84.5228ZM44.4444 84.286L44.4141 84.4523L44.4444 84.286ZM44.4966 84.0004L44.4604 84.1937L44.4966 84.0004ZM44.5429 83.7636L44.5058 83.9508L44.5429 83.7636ZM44.5925 83.5242L44.5521 83.7201C44.5656 83.6539 44.5791 83.5886 44.5925 83.5242ZM44.643 83.2892C44.6262 83.3666 44.6094 83.4433 44.5934 83.5207C44.6094 83.4433 44.6262 83.3658 44.643 83.2892ZM44.6859 83.0994L44.6447 83.2865L44.6859 83.0994ZM44.7297 82.9096L44.6901 83.082L44.7297 82.9096ZM44.7743 82.7189L44.7347 82.8826L44.7743 82.7189ZM44.8214 82.5291L44.781 82.6928L44.8214 82.5291ZM44.8576 82.3872L44.8273 82.5074L44.8576 82.3872ZM44.9073 82.1974L44.8736 82.3263L44.9073 82.1974ZM44.9578 82.0077L44.9191 82.1522L44.9578 82.0077ZM45.0099 81.8179L44.9653 81.9815L45.0099 81.8179ZM45.0983 96.4185H51.3629V81.5079H45.0983C45.0983 81.5079 47.3529 88.8635 45.0983 96.4185Z" fill="white"/>
</mask>
<g mask="url(#mask1_1_367)">
<path d="M44.0303 81.5079H51.3629V96.4185H44.0303V81.5079Z" fill="url(#paint1_linear_1_367)"/>
</g>
<path fill-rule="evenodd" clip-rule="evenodd" d="M93.9354 76.3863C97.0298 79.8269 98.8611 84.0866 98.8611 88.6999C98.8611 100.125 87.632 109.388 73.7832 109.388C63.2787 109.388 54.284 104.059 50.5508 96.5004C55.1197 101.581 62.4456 104.875 70.703 104.875C84.5527 104.875 95.7809 95.6115 95.7809 84.1868C95.7818 81.427 95.1254 78.7943 93.9354 76.3863Z" fill="#DC455A"/>
<path d="M54.6711 80.9255C54.5146 81.1345 54.1957 81.1919 53.9583 81.0535C53.7219 80.9151 53.6571 80.6339 53.8136 80.4249C54.2664 79.826 54.879 79.4116 55.5338 79.1861C56.0017 79.025 56.4906 78.9589 56.9602 78.9893C57.4424 79.0207 57.9036 79.153 58.3 79.3863L58.3244 79.402C58.7494 79.6579 59.0961 80.0271 59.3107 80.5102C59.4142 80.7436 59.2838 81.0065 59.0195 81.0979C58.7553 81.1893 58.4565 81.0735 58.3539 80.8411C58.2184 80.5372 58.0054 80.3074 57.7471 80.1516L57.7328 80.1437C57.4862 79.9983 57.195 79.9156 56.8878 79.8956C56.568 79.8747 56.2314 79.92 55.9083 80.0314C55.4403 80.1925 54.9994 80.4911 54.6711 80.9255Z" fill="#C72F49"/>
<path fill-rule="evenodd" clip-rule="evenodd" d="M45.9003 93.0458C46.7831 86.8882 45.2027 81.6272 45.1665 81.5079L45.0781 81.8153C45.0773 81.8153 45.0773 81.8161 45.0781 81.817L45.0327 81.9807C45.0293 81.9894 45.0276 81.9981 45.0259 82.0068L44.9864 82.1513L44.9738 82.1966L44.9409 82.3263C44.935 82.3463 44.9292 82.3663 44.9249 82.3864L44.8947 82.5065C44.8913 82.5143 44.8904 82.5213 44.8888 82.5291L44.8492 82.6928C44.8467 82.7015 44.845 82.7102 44.8433 82.7198L44.8038 82.8835C44.8004 82.8922 44.7987 82.9009 44.7979 82.9096L44.7583 83.082C44.7558 83.0881 44.7541 83.0933 44.7533 83.1002L44.712 83.2865C44.7112 83.2874 44.7112 83.2883 44.7112 83.29L44.6203 83.721C44.6009 83.8141 44.5824 83.9081 44.5648 84.0022L44.5286 84.1954C44.5227 84.2259 44.5168 84.2564 44.5117 84.2869L44.4823 84.4531L44.4697 84.5237L44.436 84.7256C44.4335 84.7378 44.4318 84.7491 44.4309 84.7613L44.3906 85.0173C44.3536 85.2634 44.3199 85.5101 44.2896 85.7573L44.2525 86.0724C44.2483 86.1099 44.245 86.1473 44.2408 86.1839L44.2071 86.526C44.2037 86.5547 44.202 86.5826 44.1995 86.6113L44.1608 87.0945C44.1297 87.5341 44.1112 87.9738 44.1027 88.4143L44.0985 88.9018C44.0994 91.3952 44.4579 93.9025 45.1673 96.4194C45.5048 95.2824 45.7421 94.1497 45.9003 93.0458Z" fill="#E16273"/>
<path fill-rule="evenodd" clip-rule="evenodd" d="M73.1503 80.0654L72.7733 76.9957L75.9603 76.9931L75.4461 80.0375C78.0121 80.3579 79.6784 81.642 80.4433 83.882L76.695 85.0538C76.3222 84.0057 75.5496 83.4755 74.3773 83.4642C73.3927 83.4546 72.8962 83.7784 72.8903 84.4349C72.8877 84.6743 72.9719 84.878 73.1369 85.0478C73.3018 85.2175 73.7604 85.3908 74.5162 85.571C76.2389 85.9714 77.4734 86.3284 78.2191 86.6435C78.9647 86.9622 79.5833 87.4906 80.0731 88.2324C80.5629 88.9741 80.8027 89.8447 80.7934 90.8511C80.7808 92.258 80.2851 93.4324 79.3114 94.3735C78.3344 95.3155 76.9971 95.8761 75.2988 96.0572L75.7735 99.1522L72.4139 99.18L73.0022 96.0346C70.1316 95.6524 68.3391 94.0627 67.6237 91.2768L71.8072 90.5133C72.1539 91.7809 73.0476 92.4208 74.4935 92.4356C75.6203 92.4469 76.1892 92.1326 76.196 91.4918C76.1993 91.1549 76.0714 90.8885 75.808 90.7005C75.5479 90.5081 75.0826 90.3392 74.416 90.1895C71.7954 89.6157 70.1367 88.8958 69.4407 88.0339C68.7447 87.172 68.4039 86.183 68.4131 85.0756C68.4249 83.8498 68.8213 82.7677 69.5997 81.8231C70.3824 80.8846 71.5648 80.2978 73.1503 80.0654Z" fill="#D85F6F"/>
<path fill-rule="evenodd" clip-rule="evenodd" d="M73.1133 79.5187L72.7363 76.449L75.9233 76.4464L75.4091 79.4908C77.975 79.8112 79.6413 81.0953 80.4063 83.3353L76.658 84.5071C76.2852 83.4589 75.5126 82.9288 74.3403 82.9174C73.3557 82.9079 72.86 83.2317 72.8532 83.8881C72.8507 84.1284 72.9349 84.3313 73.0998 84.501C73.2648 84.6717 73.7234 84.844 74.4791 85.0243C76.201 85.4247 77.4356 85.7825 78.1821 86.0968C78.9277 86.4155 79.5454 86.9439 80.0352 87.6856C80.5258 88.4274 80.7657 89.298 80.7564 90.3044C80.7429 91.7112 80.2481 92.8848 79.2744 93.8268C78.2973 94.7688 76.9601 95.3294 75.261 95.5105L75.7365 98.6054L72.3761 98.6342L72.9652 95.4879C70.0946 95.1057 68.302 93.516 67.5859 90.7301L71.7701 89.9675C72.1169 91.235 73.0106 91.8749 74.4564 91.8888C75.5833 91.9002 76.1522 91.5859 76.1589 90.946C76.1623 90.6091 76.0344 90.3427 75.7718 90.1546C75.5118 89.9622 75.0464 89.7933 74.3798 89.6436C71.7592 89.0699 70.1005 88.3499 69.4045 87.488C68.7085 86.6261 68.3677 85.6372 68.3769 84.5298C68.3887 83.304 68.7851 82.2218 69.5635 81.2772C70.3445 80.3379 71.5261 79.7511 73.1133 79.5187Z" fill="#F8E0E7"/>
<path fill-rule="evenodd" clip-rule="evenodd" d="M101.712 64.945L97.5019 67.2791L98.0347 68.3098L102.247 65.9749L101.712 64.945Z" fill="#2E2F80"/>
<path fill-rule="evenodd" clip-rule="evenodd" d="M99.7161 61.1693L95.5697 63.4676C95.1902 63.6783 95.0454 64.1719 95.2491 64.5645L96.4744 66.9291C96.6772 67.3217 97.1552 67.4714 97.5356 67.2608L101.681 64.9624C102.061 64.7517 102.206 64.2581 102.002 63.8646L100.776 61.5001C100.573 61.1083 100.096 60.9586 99.7161 61.1693Z" fill="#52A2D9"/>
<mask id="mask2_1_367" style="mask-type:luminance" maskUnits="userSpaceOnUse" x="76" y="51" width="28" height="29">
<path d="M90.4614 51.1697C97.9059 51.1697 103.939 57.4118 103.939 65.1113C103.939 72.8108 97.9059 79.052 90.4614 79.052C83.0186 79.052 76.9854 72.8108 76.9854 65.1113C76.9854 57.4118 83.0186 51.1697 90.4614 51.1697Z" fill="white"/>
</mask>
<g mask="url(#mask2_1_367)">
<path d="M76.9854 51.1697H103.938V79.052H76.9854V51.1697Z" fill="url(#paint2_linear_1_367)"/>
</g>
<path fill-rule="evenodd" clip-rule="evenodd" d="M90.4614 54.054C96.365 54.054 101.149 59.0041 101.149 65.1113C101.149 71.2176 96.365 76.1678 90.4614 76.1678C84.5595 76.1678 79.7743 71.2176 79.7743 65.1113C79.7735 59.0041 84.5586 54.054 90.4614 54.054Z" fill="white"/>
<path fill-rule="evenodd" clip-rule="evenodd" d="M81.1679 64.3896C81.5534 64.3896 81.8656 64.7126 81.8656 65.1104C81.8656 65.5083 81.5534 65.8313 81.1679 65.8313C80.7825 65.8313 80.4703 65.5083 80.4703 65.1104C80.4711 64.7126 80.7834 64.3896 81.1679 64.3896ZM99.6959 64.3896C100.081 64.3896 100.394 64.7126 100.394 65.1104C100.394 65.5083 100.081 65.8313 99.6959 65.8313C99.3122 65.8313 98.9999 65.5083 98.9999 65.1104C99.0008 64.7126 99.3122 64.3896 99.6959 64.3896ZM90.4614 73.9922C90.8468 73.9922 91.1582 74.3151 91.1582 74.713C91.1582 75.1109 90.846 75.4338 90.4614 75.4338C90.0776 75.4338 89.7654 75.1109 89.7654 74.713C89.7654 74.3151 90.0776 73.9922 90.4614 73.9922ZM90.4614 54.5928C90.8468 54.5928 91.1582 54.9158 91.1582 55.3137C91.1582 55.7124 90.846 56.0345 90.4614 56.0345C90.0776 56.0345 89.7654 55.7115 89.7654 55.3137C89.7654 54.915 90.0776 54.5928 90.4614 54.5928ZM84.2447 71.2672C84.2795 71.3032 84.3072 71.346 84.326 71.393C84.3449 71.4401 84.3546 71.4905 84.3546 71.5414C84.3546 71.5924 84.3449 71.6428 84.326 71.6899C84.3072 71.7369 84.2795 71.7797 84.2447 71.8157L83.9906 72.0795C83.8441 72.2301 83.6051 72.2301 83.4595 72.0795C83.3131 71.928 83.3131 71.6816 83.4595 71.531L83.7137 71.2672C83.8593 71.1166 84.0991 71.1166 84.2447 71.2672ZM97.2453 57.8192C97.3909 57.9698 97.3909 58.2171 97.2453 58.3677L96.9894 58.6315C96.8438 58.7821 96.604 58.7821 96.4592 58.6315C96.3137 58.4809 96.3137 58.2336 96.4592 58.083L96.7151 57.8192C96.8598 57.6678 97.0997 57.6678 97.2453 57.8192ZM96.6764 71.2672C96.5308 71.4178 96.5308 71.6651 96.6764 71.8157L96.9322 72.0795C97.0786 72.2301 97.3176 72.2301 97.4624 72.0795C97.6088 71.928 97.6088 71.6816 97.4624 71.531L97.2066 71.2672C97.0618 71.1166 96.8228 71.1166 96.6764 71.2672ZM83.6775 57.8192C83.6427 57.8552 83.6151 57.898 83.5962 57.9451C83.5774 57.9921 83.5677 58.0425 83.5677 58.0935C83.5677 58.1444 83.5774 58.1948 83.5962 58.2419C83.6151 58.2889 83.6427 58.3317 83.6775 58.3677L83.9333 58.6315C84.0037 58.7038 84.0988 58.7445 84.198 58.7445C84.2972 58.7445 84.3924 58.7038 84.4627 58.6315C84.4975 58.5955 84.5251 58.5527 84.544 58.5057C84.5628 58.4586 84.5725 58.4082 84.5725 58.3573C84.5725 58.3063 84.5628 58.2559 84.544 58.2088C84.5251 58.1618 84.4975 58.119 84.4627 58.083L84.2085 57.8192C84.0613 57.6678 83.8231 57.6678 83.6775 57.8192ZM97.2007 70.9634C97.6947 71.4378 90.9487 66.0463 90.3082 65.4743C90.0701 65.2602 90.1222 65.0068 90.2325 64.8719C90.3621 64.7108 90.6844 64.7134 90.8308 64.8545L97.2007 70.9634Z" fill="#2E2F80"/>
<path fill-rule="evenodd" clip-rule="evenodd" d="M86.0995 69.688C85.826 70.0083 90.2502 65.8495 90.7475 65.3672C90.9083 65.2105 90.5733 64.5532 90.2392 64.8423L86.0995 69.688Z" fill="#2E2F80"/>
<path fill-rule="evenodd" clip-rule="evenodd" d="M61.1598 61.9232L63.4638 60.646L63.7559 61.2101L61.452 62.4872L61.1598 61.9232Z" fill="#2E2F80"/>
<path fill-rule="evenodd" clip-rule="evenodd" d="M62.3715 58.5802L60.1026 59.8373C59.8939 59.9522 59.8157 60.223 59.9276 60.438L60.5975 61.7317C60.7086 61.9467 60.9703 62.0286 61.1782 61.9128L63.447 60.6556C63.6549 60.5407 63.734 60.27 63.6221 60.0549L62.9522 58.7612C62.8403 58.5462 62.5794 58.4644 62.3715 58.5802Z" fill="#52A2D9"/>
<mask id="mask3_1_367" style="mask-type:luminance" maskUnits="userSpaceOnUse" x="49" y="53" width="16" height="16">
<path d="M57.3078 53.1085C61.3801 53.1085 64.6816 56.5229 64.6816 60.7366C64.6816 64.9502 61.3801 68.3647 57.3078 68.3647C53.2354 68.3647 49.9348 64.9502 49.9348 60.7366C49.9348 56.5229 53.2363 53.1085 57.3078 53.1085Z" fill="white"/>
</mask>
<g mask="url(#mask3_1_367)">
<path d="M49.9348 53.1085H64.6816V68.3638H49.9348V53.1085Z" fill="url(#paint3_linear_1_367)"/>
</g>
<path fill-rule="evenodd" clip-rule="evenodd" d="M57.3078 54.6869C60.5377 54.6869 63.155 57.3953 63.155 60.7366C63.155 64.0779 60.5377 66.7863 57.3078 66.7863C54.0779 66.7863 51.4597 64.0779 51.4597 60.7366C51.4597 57.3953 54.0787 54.6869 57.3078 54.6869Z" fill="white"/>
<path fill-rule="evenodd" clip-rule="evenodd" d="M52.223 60.3422C52.4334 60.3422 52.6043 60.519 52.6043 60.7366C52.6043 60.9542 52.4334 61.131 52.223 61.131C52.0126 61.131 51.8418 60.9542 51.8418 60.7366C51.8418 60.5181 52.0126 60.3422 52.223 60.3422ZM62.3606 60.3422C62.5718 60.3422 62.7426 60.519 62.7426 60.7366C62.7426 60.8413 62.7024 60.9417 62.6309 61.0158C62.5593 61.0898 62.4622 61.1314 62.361 61.1314C62.2598 61.1314 62.1627 61.0898 62.0911 61.0158C62.0195 60.9417 61.9793 60.8413 61.9793 60.7366C61.9793 60.5181 62.151 60.3422 62.3606 60.3422ZM57.3078 65.5954C57.5182 65.5954 57.689 65.7721 57.689 65.9897C57.689 66.2074 57.5182 66.3841 57.3078 66.3841C57.0974 66.3841 56.9266 66.2074 56.9266 65.9897C56.9266 65.7721 57.0974 65.5954 57.3078 65.5954ZM57.3078 54.9811C57.5182 54.9811 57.689 55.1579 57.689 55.3755C57.689 55.5932 57.5182 55.7699 57.3078 55.7699C57.0974 55.7699 56.9266 55.5932 56.9266 55.3755C56.9266 55.1579 57.0974 54.9811 57.3078 54.9811ZM53.9062 64.1049C53.9861 64.1876 53.9861 64.3226 53.9062 64.4053L53.7673 64.5498C53.6874 64.6325 53.5569 64.6325 53.477 64.5498C53.397 64.4671 53.397 64.3321 53.477 64.2494L53.6167 64.1049C53.6966 64.0222 53.8262 64.0222 53.9062 64.1049ZM61.0191 56.7467C61.0991 56.8294 61.0991 56.9643 61.0191 57.047L60.8803 57.1916C60.8003 57.2743 60.6699 57.2743 60.5899 57.1916C60.51 57.1089 60.51 56.9739 60.5899 56.8912L60.7296 56.7467C60.8087 56.664 60.9392 56.664 61.0191 56.7467ZM60.7086 64.1049C60.6286 64.1876 60.6286 64.3226 60.7086 64.4053L60.8483 64.5498C60.9274 64.6325 61.0578 64.6325 61.1378 64.5498C61.2177 64.4671 61.2177 64.3321 61.1378 64.2494L60.9989 64.1049C60.919 64.0222 60.7885 64.0222 60.7086 64.1049ZM53.5956 56.7467C53.5157 56.8294 53.5157 56.9643 53.5956 57.047L53.7353 57.1916C53.8144 57.2743 53.9449 57.2743 54.0248 57.1916C54.1048 57.1089 54.1048 56.9739 54.0248 56.8912L53.886 56.7467C53.8069 56.664 53.6756 56.664 53.5956 56.7467ZM60.9947 63.9386C61.2648 64.1981 57.5746 61.2485 57.2245 60.936C57.0932 60.8184 57.1218 60.68 57.1824 60.606C57.2531 60.5181 57.429 60.519 57.5098 60.5964L60.9947 63.9386Z" fill="#2E2F80"/>
<path fill-rule="evenodd" clip-rule="evenodd" d="M56.1759 57.4579C56.0858 57.2438 57.0562 60.4745 57.1715 60.841C57.2102 60.9603 57.6023 60.9403 57.5409 60.7018L56.1759 57.4579Z" fill="#2E2F80"/>
<path fill-rule="evenodd" clip-rule="evenodd" d="M77.3915 47.654L80.4944 45.9339L80.8879 46.6936L77.785 48.4136L77.3915 47.654Z" fill="#2E2F80"/>
<path fill-rule="evenodd" clip-rule="evenodd" d="M79.0228 43.1498L75.9679 44.8431C75.6877 44.9981 75.5816 45.362 75.7314 45.6519L76.6336 47.394C76.7834 47.6839 77.136 47.7936 77.4154 47.6386L80.4703 45.9453C80.7505 45.7903 80.8566 45.4264 80.7059 45.1365L79.8038 43.3945C79.654 43.1046 79.3022 42.9949 79.0228 43.1498Z" fill="#52A2D9"/>
<mask id="mask4_1_367" style="mask-type:luminance" maskUnits="userSpaceOnUse" x="62" y="35" width="21" height="22">
<path d="M72.2044 35.782C77.6881 35.782 82.1341 40.3814 82.1341 46.0541C82.1341 51.7269 77.6881 56.3262 72.2044 56.3262C66.7207 56.3262 62.2747 51.7277 62.2747 46.0541C62.2747 40.3814 66.7207 35.782 72.2044 35.782Z" fill="white"/>
</mask>
<g mask="url(#mask4_1_367)">
<path d="M62.2747 35.782H82.1341V56.3262H62.2747V35.782Z" fill="url(#paint4_linear_1_367)"/>
</g>
<path fill-rule="evenodd" clip-rule="evenodd" d="M72.2044 37.9072C76.5536 37.9072 80.079 41.5549 80.079 46.0541C80.079 50.5533 76.5536 54.2002 72.2044 54.2002C67.8552 54.2002 64.329 50.5533 64.329 46.0541C64.329 41.5549 67.8552 37.9072 72.2044 37.9072Z" fill="white"/>
<path fill-rule="evenodd" clip-rule="evenodd" d="M65.3566 45.5231C65.6402 45.5231 65.8699 45.7607 65.8699 46.0541C65.8699 46.3475 65.6402 46.5852 65.3566 46.5852C65.0729 46.5852 64.8432 46.3475 64.8432 46.0541C64.8432 45.7607 65.0729 45.5231 65.3566 45.5231ZM79.0085 45.5231C79.2921 45.5231 79.5218 45.7607 79.5218 46.0541C79.5218 46.3475 79.2921 46.5852 79.0085 46.5852C78.7249 46.5852 78.4951 46.3475 78.4951 46.0541C78.4951 45.7607 78.7249 45.5231 79.0085 45.5231ZM72.2044 52.5975C72.488 52.5975 72.7178 52.8351 72.7178 53.1285C72.7178 53.4219 72.488 53.6596 72.2044 53.6596C71.9208 53.6596 71.691 53.4219 71.691 53.1285C71.691 52.8351 71.9208 52.5975 72.2044 52.5975ZM72.2044 38.3041C72.488 38.3041 72.7178 38.5418 72.7178 38.8352C72.7178 39.1286 72.488 39.3663 72.2044 39.3663C71.9208 39.3663 71.691 39.1286 71.691 38.8352C71.691 38.5418 71.9208 38.3041 72.2044 38.3041ZM67.6237 50.5899C67.7315 50.7013 67.7315 50.8833 67.6237 50.9938L67.4352 51.188C67.3834 51.2415 67.3132 51.2716 67.24 51.2716C67.1668 51.2716 67.0965 51.2415 67.0447 51.188C66.937 51.0765 66.937 50.8946 67.0447 50.784L67.2324 50.589C67.2846 50.5358 67.355 50.506 67.4282 50.5062C67.5015 50.5064 67.5718 50.5364 67.6237 50.5899ZM77.2025 40.6808C77.2542 40.7346 77.2833 40.8074 77.2833 40.8833C77.2833 40.9591 77.2542 41.0319 77.2025 41.0857L77.014 41.2798C76.9622 41.3333 76.8919 41.3634 76.8187 41.3634C76.7455 41.3634 76.6753 41.3333 76.6235 41.2798C76.5717 41.226 76.5427 41.1533 76.5427 41.0774C76.5427 41.0015 76.5717 40.9287 76.6235 40.875L76.8111 40.6808C76.8633 40.6277 76.9336 40.5979 77.0068 40.5979C77.08 40.5979 77.1503 40.6277 77.2025 40.6808ZM76.7834 50.5899C76.6765 50.7013 76.6765 50.8833 76.7834 50.9938L76.9719 51.188C77.0796 51.2994 77.2555 51.2994 77.3624 51.188C77.4701 51.0765 77.4701 50.8946 77.3624 50.784L77.1747 50.589C77.1225 50.5358 77.0521 50.506 76.9789 50.5062C76.9056 50.5064 76.8353 50.5364 76.7834 50.5899ZM67.2046 40.6808C67.1533 40.7348 67.1245 40.8075 67.1245 40.8833C67.1245 40.959 67.1533 41.0317 67.2046 41.0857L67.3932 41.2798C67.5009 41.3912 67.6768 41.3912 67.7836 41.2798C67.8354 41.226 67.8644 41.1533 67.8644 41.0774C67.8644 41.0015 67.8354 40.9287 67.7836 40.875L67.596 40.6808C67.5438 40.6277 67.4735 40.5979 67.4003 40.5979C67.3271 40.5979 67.2568 40.6277 67.2046 40.6808ZM69.3961 40.3169C69.2118 39.8399 72.0554 45.6336 72.3062 46.223C72.3996 46.4433 72.2869 46.5948 72.1741 46.6487C72.0378 46.7132 71.8248 46.6069 71.7701 46.465L69.3961 40.3169Z" fill="#2E2F80"/>
<path fill-rule="evenodd" clip-rule="evenodd" d="M76.3937 44.7944C76.674 44.6707 72.4585 45.9923 71.9805 46.1507C71.8257 46.2021 71.8476 46.7488 72.1581 46.6661L76.3937 44.7944Z" fill="#2E2F80"/>
<path fill-rule="evenodd" clip-rule="evenodd" d="M45.7606 107.97H59.7416V109.825H45.7606V107.97Z" fill="#F9A51A"/>
<path fill-rule="evenodd" clip-rule="evenodd" d="M57.9701 107.97H59.7424V109.825H57.9701V107.97Z" fill="#F9A51A"/>
<path fill-rule="evenodd" clip-rule="evenodd" d="M56.1776 107.97H57.9701V109.825H56.1776V107.97Z" fill="#FFD113"/>
<path fill-rule="evenodd" clip-rule="evenodd" d="M49.7311 107.97H56.1776V109.825H49.7311V107.97Z" fill="#F9A719"/>
<path fill-rule="evenodd" clip-rule="evenodd" d="M47.0205 107.97H49.7311V109.825H47.0205V107.97Z" fill="#EB8323"/>
<path fill-rule="evenodd" clip-rule="evenodd" d="M46.4229 109.826H59.0591V110.002H46.4229V109.826Z" fill="#DE6426"/>
<path fill-rule="evenodd" clip-rule="evenodd" d="M47.4825 110.001H61.9995V111.856H47.4825V110.001Z" fill="#F9A51A"/>
<path fill-rule="evenodd" clip-rule="evenodd" d="M60.1599 110.001H61.9995V111.856H60.1599V110.001Z" fill="#F9A51A"/>
<path fill-rule="evenodd" clip-rule="evenodd" d="M58.2983 110.001H60.1599V111.856H58.2983V110.001Z" fill="#FFD113"/>
<path fill-rule="evenodd" clip-rule="evenodd" d="M51.6045 110.001H58.2983V111.856H51.6045V110.001Z" fill="#F9A719"/>
<path fill-rule="evenodd" clip-rule="evenodd" d="M48.7903 110.001H51.6045V111.856H48.7903V110.001Z" fill="#EB8323"/>
<path fill-rule="evenodd" clip-rule="evenodd" d="M48.17 111.857H61.2909V112.034H48.17V111.857Z" fill="#DE6426"/>
<path fill-rule="evenodd" clip-rule="evenodd" d="M45.8061 103.907H59.7871V105.762H45.8061V103.907Z" fill="#F9A51A"/>
<path fill-rule="evenodd" clip-rule="evenodd" d="M58.0155 103.907H59.7879V105.762H58.0155V103.907Z" fill="#F9A51A"/>
<path fill-rule="evenodd" clip-rule="evenodd" d="M56.223 103.907H58.0155V105.762H56.223V103.907Z" fill="#FFD113"/>
<path fill-rule="evenodd" clip-rule="evenodd" d="M49.7766 103.907H56.223V105.762H49.7766V103.907Z" fill="#F9A719"/>
<path fill-rule="evenodd" clip-rule="evenodd" d="M47.0659 103.907H49.7766V105.762H47.0659V103.907Z" fill="#EB8323"/>
<path fill-rule="evenodd" clip-rule="evenodd" d="M46.4684 105.762H59.1045V105.938H46.4684V105.762Z" fill="#DE6426"/>
<path fill-rule="evenodd" clip-rule="evenodd" d="M47.5279 105.938H62.045V107.794H47.5279V105.938Z" fill="#F9A51A"/>
<path fill-rule="evenodd" clip-rule="evenodd" d="M60.2053 105.938H62.045V107.794H60.2053V105.938Z" fill="#F9A51A"/>
<path fill-rule="evenodd" clip-rule="evenodd" d="M58.3438 105.938H60.2053V107.794H58.3438V105.938Z" fill="#FFD113"/>
<path fill-rule="evenodd" clip-rule="evenodd" d="M51.6499 105.938H58.3438V107.794H51.6499V105.938Z" fill="#F9A719"/>
<path fill-rule="evenodd" clip-rule="evenodd" d="M48.8357 105.938H51.6499V107.794H48.8357V105.938Z" fill="#EB8323"/>
<path fill-rule="evenodd" clip-rule="evenodd" d="M48.2146 107.794H61.3355V107.97H48.2146V107.794Z" fill="#DE6426"/>
<path d="M39.4531 107.438C38.9607 104.42 40.9283 101.56 43.8469 101.052C46.7655 100.542 49.53 102.577 50.0215 105.596C50.5138 108.615 48.5462 111.475 45.6285 111.984C42.7108 112.493 39.9462 110.458 39.4531 107.438Z" fill="#E48826"/>
<path d="M39.0769 107.106C38.5846 104.087 40.5513 101.227 43.4699 100.718C46.3884 100.209 49.153 102.244 49.6445 105.263C50.1368 108.282 48.17 111.142 45.2515 111.651C42.3338 112.16 39.5692 110.125 39.0769 107.106Z" fill="#FFEF95"/>
<path d="M39.2747 107.26C38.7823 104.24 40.7491 101.38 43.6676 100.872C46.5862 100.362 49.3507 102.397 49.8422 105.417C50.3345 108.435 48.3678 111.295 45.4492 111.804C42.5315 112.313 39.767 110.278 39.2747 107.26Z" fill="#F9CA11"/>
<path d="M39.2747 107.26C39.2713 107.244 39.2704 107.228 39.2671 107.212L49.8338 105.368C49.8372 105.384 49.8389 105.4 49.8422 105.416C50.3345 108.434 48.3678 111.294 45.4492 111.804C42.5315 112.313 39.767 110.278 39.2747 107.26Z" fill="#FFD80D"/>
<path d="M40.0741 107.121C39.6559 104.559 41.3256 102.132 43.8023 101.699C46.279 101.268 48.6253 102.994 49.0436 105.557C49.461 108.119 47.7922 110.546 45.3146 110.977C42.8379 111.409 40.4916 109.682 40.0741 107.121Z" fill="#F9A719"/>
<path d="M40.0741 107.121C39.6559 104.559 41.3256 102.132 43.8023 101.699C46.279 101.268 48.6253 102.994 49.0436 105.557C49.461 108.119 47.7922 110.546 45.3146 110.977C42.8379 111.409 40.4916 109.682 40.0741 107.121Z" stroke="#F9A719" stroke-width="0.0385412" stroke-miterlimit="10"/>
<path d="M46.2597 101.969C47.3268 102.862 47.9117 103.978 48.0615 104.899C48.7844 109.331 44.8702 111.033 41.1867 109.491C42.1941 110.64 43.7266 111.25 45.3146 110.973C47.7913 110.54 49.461 108.114 49.0436 105.552C48.7692 103.878 47.6752 102.561 46.2597 101.969Z" fill="#EB8323"/>
<path d="M40.9292 107.408C40.5597 105.146 42.0342 103.004 44.2197 102.621C45.4981 102.399 46.736 102.827 47.6188 103.673C46.7352 102.565 45.3196 101.962 43.8519 102.218C41.6656 102.6 40.192 104.741 40.5606 107.004C40.7065 107.907 41.1381 108.734 41.7876 109.356C41.3403 108.797 41.0442 108.124 40.9292 107.408Z" fill="#FFD80D"/>
<path fill-rule="evenodd" clip-rule="evenodd" d="M43.9546 104.369L43.8696 103.819L44.4646 103.72L44.5488 104.256C45.2271 104.222 45.7127 104.478 46.0064 105.023L45.0865 105.497C44.9451 105.244 44.7221 105.141 44.4183 105.191C44.1625 105.234 44.0489 105.341 44.075 105.511C44.0851 105.573 44.1145 105.622 44.165 105.658C44.2155 105.695 44.3417 105.718 44.5446 105.73C45.0074 105.755 45.3424 105.791 45.5486 105.838C45.7556 105.886 45.9382 105.995 46.0964 106.165C46.2546 106.335 46.3548 106.549 46.3943 106.81C46.4516 107.174 46.3733 107.501 46.1621 107.789C45.9491 108.077 45.6268 108.284 45.1951 108.409L45.2809 108.958L44.6859 109.058L44.6001 108.508C43.841 108.541 43.3083 108.212 43.0045 107.523L44.0548 107.134C44.1995 107.445 44.4579 107.571 44.8332 107.507C45.1252 107.458 45.2591 107.351 45.233 107.185C45.2195 107.099 45.1757 107.034 45.0992 106.998C45.0234 106.96 44.8955 106.939 44.7171 106.93C44.0135 106.902 43.554 106.792 43.3369 106.601C43.1198 106.409 42.9885 106.169 42.9439 105.882C42.8942 105.564 42.9506 105.265 43.1114 104.986C43.2729 104.707 43.554 104.501 43.9546 104.369Z" fill="#FFD80D"/>
<defs>
<linearGradient id="paint0_linear_1_367" x1="73.7828" y1="105.257" x2="73.7837" y2="75.1596" gradientUnits="userSpaceOnUse">
<stop stop-color="#DF5568"/>
<stop offset="1" stop-color="#F4C0CB"/>
</linearGradient>
<linearGradient id="paint1_linear_1_367" x1="47.6968" y1="94.9427" x2="47.6968" y2="84.0678" gradientUnits="userSpaceOnUse">
<stop stop-color="#DF5568"/>
<stop offset="1" stop-color="#F4C0CB"/>
</linearGradient>
<linearGradient id="paint2_linear_1_367" x1="87.7865" y1="78.7318" x2="93.7774" y2="50.2304" gradientUnits="userSpaceOnUse">
<stop stop-color="#3851A2"/>
<stop offset="1" stop-color="#71B5E3"/>
</linearGradient>
<linearGradient id="paint3_linear_1_367" x1="55.8444" y1="68.1888" x2="59.1224" y2="52.5944" gradientUnits="userSpaceOnUse">
<stop stop-color="#3851A2"/>
<stop offset="1" stop-color="#71B5E3"/>
</linearGradient>
<linearGradient id="paint4_linear_1_367" x1="70.2331" y1="56.0899" x2="74.647" y2="35.0901" gradientUnits="userSpaceOnUse">
<stop stop-color="#3851A2"/>
<stop offset="1" stop-color="#71B5E3"/>
</linearGradient>
</defs>
</svg>
