<svg width="30" height="30" viewBox="0 0 30 30" fill="none" xmlns="http://www.w3.org/2000/svg">
<path d="M14.79 29.0376C22.6601 29.0376 29.04 22.6577 29.04 14.7876C29.04 6.91754 22.6601 0.537598 14.79 0.537598C6.91998 0.537598 0.540039 6.91754 0.540039 14.7876C0.540039 22.6577 6.91998 29.0376 14.79 29.0376Z" fill="#F3F3F3"/>
<path d="M11.6634 19.8815C12.2064 19.7203 13.4956 19.5065 13.7904 19.4645L13.7694 12.986L10.6194 12.9785L10.2504 15.491H9.55664C9.51114 15.291 9.46589 15.0388 9.42089 14.7343C9.37589 14.4298 9.33589 14.1133 9.30089 13.7848C9.26689 13.4583 9.23864 13.1333 9.21614 12.8098C9.19364 12.4863 9.18214 12.213 9.18164 11.99H19.9914C19.9914 12.2275 19.9801 12.5045 19.9576 12.821C19.9351 13.1375 19.9066 13.4588 19.8721 13.7848C19.8376 14.1113 19.7981 14.4253 19.7536 14.7268C19.7091 15.0283 19.6636 15.283 19.6171 15.491H18.9204L18.5739 12.9643L15.3361 12.9913L15.3316 19.4945L16.6426 19.7008L17.5119 19.8815V20.3848L11.6746 20.42L11.6634 19.8815ZM9.23039 10.8598V9.88477H20.0401V10.8598H9.23039Z" fill="#8E6134"/>
<path d="M15.5203 2.28905C17.8703 2.04106 24.0658 3.66981 25.7885 8.28174C23.3395 4.90998 17.8256 3.42662 15.6167 3.65972C13.4078 3.89282 8.06222 5.12019 5.71434 10.4001C6.32893 8.21071 7.59709 6.26104 9.34936 4.81164C11.1016 3.36224 13.2545 2.48217 15.5203 2.28905Z" fill="#FACB1B"/>
<g filter="url(#filter0_d_103_6383)">
<path d="M15.4673 2.34043C17.8055 2.10426 23.9597 3.7516 25.6524 8.34585C23.2319 4.98173 17.7549 3.48201 15.5571 3.70401C13.3593 3.92601 8.03761 5.12287 5.67916 10.3633C6.3001 8.18871 7.56997 6.25538 9.31905 4.82174C11.0681 3.38809 13.2131 2.52243 15.4673 2.34043Z" fill="#F2C700"/>
</g>
<path d="M15.5203 2.28905C17.8703 2.04106 24.0658 3.66981 25.7885 8.28174C23.3395 4.90998 17.8256 3.42662 15.6167 3.65972C13.4078 3.89282 8.06222 5.12019 5.71434 10.4001C6.32893 8.21071 7.59709 6.26104 9.34936 4.81164C11.1016 3.36224 13.2545 2.48217 15.5203 2.28905Z" stroke="#F2C700" stroke-width="0.0750394"/>
<path d="M3.97225 8.19454C4.85791 6.0052 9.20626 1.3058 14.0839 1.95376C9.95883 2.52929 6.05906 6.69579 5.22656 8.75373C4.39406 10.8117 2.96443 16.1036 6.51824 20.656C4.87588 19.0849 3.75214 17.0501 3.29719 14.8233C2.84223 12.5965 3.07775 10.2839 3.97225 8.19454Z" fill="#FACB1B"/>
<g filter="url(#filter1_d_103_6383)">
<path d="M3.92024 8.15786C4.79409 5.96143 9.11931 1.23272 14.0051 1.85318C9.87962 2.45299 6.00031 6.64572 5.17891 8.71032C4.35751 10.7749 2.95707 16.0799 6.54032 20.6159C4.88743 19.0529 3.75095 17.0227 3.28275 14.7965C2.81456 12.5703 3.03697 10.2543 3.92024 8.15786Z" fill="white"/>
</g>
<path d="M3.97225 8.19454C4.85791 6.0052 9.20626 1.3058 14.0839 1.95376C9.95883 2.52929 6.05906 6.69579 5.22656 8.75373C4.39406 10.8117 2.96443 16.1036 6.51824 20.656C4.87588 19.0849 3.75214 17.0501 3.29719 14.8233C2.84223 12.5965 3.07775 10.2839 3.97225 8.19454Z" fill="#F2C700" stroke="#F2C700" stroke-width="0.075"/>
<path d="M27.4546 15.3525C27.6604 17.7053 25.9221 23.8675 21.2826 25.5066C24.6958 23.1195 26.2766 17.6359 26.0831 15.4243C25.8896 13.2128 24.7586 7.84895 19.5242 5.40837C21.7011 6.06164 23.6268 7.36377 25.0439 9.14072C26.461 10.9177 27.3021 13.0848 27.4546 15.3525Z" fill="#FACB1B"/>
<g filter="url(#filter2_d_103_6383)">
<path d="M27.4575 15.3481C27.6634 17.7009 25.9251 23.8631 21.2855 25.5022C24.6987 23.1151 26.2795 17.6315 26.0861 15.4199C25.8926 13.2084 24.7615 7.84456 19.5271 5.40398C21.7041 6.05725 23.6298 7.35937 25.0469 9.13633C26.464 10.9133 27.305 13.0804 27.4575 15.3481Z" fill="#F2C700"/>
</g>
<path d="M27.4546 15.3525C27.6604 17.7053 25.9221 23.8675 21.2826 25.5066C24.6958 23.1195 26.2766 17.6359 26.0831 15.4243C25.8896 13.2128 24.7586 7.84895 19.5242 5.40837C21.7011 6.06164 23.6268 7.36377 25.0439 9.14072C26.461 10.9177 27.3021 13.0848 27.4546 15.3525Z" stroke="#F2C700" stroke-width="0.075"/>
<path d="M18.8268 26.1802C16.7612 27.3252 10.4247 28.2436 7.04022 24.6719C10.6092 26.8191 16.2617 26.0328 18.2034 24.9565C20.145 23.8803 24.5851 20.6653 24.6857 14.8908C24.9743 17.1453 24.568 19.4341 23.5211 21.4514C22.4741 23.4688 20.8364 25.1185 18.8268 26.1802Z" fill="#FACB1B"/>
<g filter="url(#filter3_d_103_6383)">
<path d="M18.8236 26.1808C16.758 27.3258 10.4215 28.2442 7.03705 24.6725C10.606 26.8197 16.2586 26.0334 18.2002 24.9572C20.1419 23.8809 24.5819 20.6659 24.6825 14.8914C24.9711 17.1459 24.5648 19.4347 23.5179 21.452C22.471 23.4694 20.8332 25.1191 18.8236 26.1808Z" fill="white"/>
</g>
<path d="M18.8268 26.1802C16.7612 27.3252 10.4247 28.2436 7.04022 24.6719C10.6092 26.8191 16.2617 26.0328 18.2034 24.9565C20.145 23.8803 24.5851 20.6653 24.6857 14.8908C24.9743 17.1453 24.568 19.4341 23.5211 21.4514C22.4741 23.4688 20.8364 25.1185 18.8268 26.1802Z" fill="#F2C700" stroke="#F2C700" stroke-width="0.075"/>
<path d="M5.29888 22.8744C3.4378 21.4203 0.116564 15.9464 2.08197 11.4354C1.49996 15.5596 4.43232 20.4556 6.1817 21.8224C7.93109 23.1892 12.6253 26.0201 17.9801 23.8564C16.0177 25.003 13.752 25.5233 11.486 25.3478C9.21992 25.1723 7.0614 24.3094 5.29888 22.8744Z" fill="#FACB1B"/>
<g filter="url(#filter4_d_103_6383)">
<path d="M5.29791 22.874C3.43682 21.42 0.115588 15.9461 2.08099 11.435C1.49899 15.5593 4.43134 20.4553 6.18073 21.822C7.93011 23.1888 12.6243 26.0197 17.9791 23.856C16.0167 25.0026 13.751 25.5229 11.485 25.3474C9.21894 25.172 7.06043 24.309 5.29791 22.874Z" fill="#F2C700"/>
</g>
<path d="M5.29888 22.8744C3.4378 21.4203 0.116564 15.9464 2.08197 11.4354C1.49996 15.5596 4.43232 20.4556 6.1817 21.8224C7.93109 23.1892 12.6253 26.0201 17.9801 23.8564C16.0177 25.003 13.752 25.5233 11.486 25.3478C9.21992 25.1723 7.0614 24.3094 5.29888 22.8744Z" stroke="#F2C700" stroke-width="0.075"/>
<defs>
<filter id="filter0_d_103_6383" x="-16.8208" y="-5.18152" width="64.9733" height="53.0449" filterUnits="userSpaceOnUse" color-interpolation-filters="sRGB">
<feFlood flood-opacity="0" result="BackgroundImageFix"/>
<feColorMatrix in="SourceAlpha" type="matrix" values="0 0 0 0 0 0 0 0 0 0 0 0 0 0 0 0 0 0 127 0" result="hardAlpha"/>
<feOffset dy="15"/>
<feGaussianBlur stdDeviation="11.25"/>
<feColorMatrix type="matrix" values="0 0 0 0 0.913725 0 0 0 0 0.937255 0 0 0 0 0.294118 0 0 0 0.161 0"/>
<feBlend mode="normal" in2="BackgroundImageFix" result="effect1_dropShadow_103_6383"/>
<feBlend mode="normal" in="SourceGraphic" in2="effect1_dropShadow_103_6383" result="shape"/>
</filter>
<filter id="filter1_d_103_6383" x="-19.4564" y="-5.70239" width="55.9615" height="63.8184" filterUnits="userSpaceOnUse" color-interpolation-filters="sRGB">
<feFlood flood-opacity="0" result="BackgroundImageFix"/>
<feColorMatrix in="SourceAlpha" type="matrix" values="0 0 0 0 0 0 0 0 0 0 0 0 0 0 0 0 0 0 127 0" result="hardAlpha"/>
<feOffset dy="15"/>
<feGaussianBlur stdDeviation="11.25"/>
<feColorMatrix type="matrix" values="0 0 0 0 0.913725 0 0 0 0 0.937255 0 0 0 0 0.294118 0 0 0 0.161 0"/>
<feBlend mode="normal" in2="BackgroundImageFix" result="effect1_dropShadow_103_6383"/>
<feBlend mode="normal" in="SourceGraphic" in2="effect1_dropShadow_103_6383" result="shape"/>
</filter>
<filter id="filter2_d_103_6383" x="-2.9729" y="-2.09607" width="52.9467" height="65.0983" filterUnits="userSpaceOnUse" color-interpolation-filters="sRGB">
<feFlood flood-opacity="0" result="BackgroundImageFix"/>
<feColorMatrix in="SourceAlpha" type="matrix" values="0 0 0 0 0 0 0 0 0 0 0 0 0 0 0 0 0 0 127 0" result="hardAlpha"/>
<feOffset dy="15"/>
<feGaussianBlur stdDeviation="11.25"/>
<feColorMatrix type="matrix" values="0 0 0 0 0.913725 0 0 0 0 0.937255 0 0 0 0 0.294118 0 0 0 0.161 0"/>
<feBlend mode="normal" in2="BackgroundImageFix" result="effect1_dropShadow_103_6383"/>
<feBlend mode="normal" in="SourceGraphic" in2="effect1_dropShadow_103_6383" result="shape"/>
</filter>
<filter id="filter3_d_103_6383" x="-15.4629" y="7.39148" width="62.7358" height="57.311" filterUnits="userSpaceOnUse" color-interpolation-filters="sRGB">
<feFlood flood-opacity="0" result="BackgroundImageFix"/>
<feColorMatrix in="SourceAlpha" type="matrix" values="0 0 0 0 0 0 0 0 0 0 0 0 0 0 0 0 0 0 127 0" result="hardAlpha"/>
<feOffset dy="15"/>
<feGaussianBlur stdDeviation="11.25"/>
<feColorMatrix type="matrix" values="0 0 0 0 0.913725 0 0 0 0 0.937255 0 0 0 0 0.294118 0 0 0 0.161 0"/>
<feBlend mode="normal" in2="BackgroundImageFix" result="effect1_dropShadow_103_6383"/>
<feBlend mode="normal" in="SourceGraphic" in2="effect1_dropShadow_103_6383" result="shape"/>
</filter>
<filter id="filter4_d_103_6383" x="-21.0206" y="3.93506" width="61.4998" height="58.9457" filterUnits="userSpaceOnUse" color-interpolation-filters="sRGB">
<feFlood flood-opacity="0" result="BackgroundImageFix"/>
<feColorMatrix in="SourceAlpha" type="matrix" values="0 0 0 0 0 0 0 0 0 0 0 0 0 0 0 0 0 0 127 0" result="hardAlpha"/>
<feOffset dy="15"/>
<feGaussianBlur stdDeviation="11.25"/>
<feColorMatrix type="matrix" values="0 0 0 0 0.913725 0 0 0 0 0.937255 0 0 0 0 0.294118 0 0 0 0.161 0"/>
<feBlend mode="normal" in2="BackgroundImageFix" result="effect1_dropShadow_103_6383"/>
<feBlend mode="normal" in="SourceGraphic" in2="effect1_dropShadow_103_6383" result="shape"/>
</filter>
</defs>
</svg>
